<svg width="24" height="24" viewBox="0 0 24 24" fill="none" xmlns="http://www.w3.org/2000/svg">
<mask id="mask0_62_3355" style="mask-type:alpha" maskUnits="userSpaceOnUse" x="0" y="0" width="24" height="24">
<rect width="24" height="24" fill="#D9D9D9"/>
</mask>
<g mask="url(#mask0_62_3355)">
<path d="M6.75033 20.2917C5.88227 20.2917 5.14442 19.9879 4.53678 19.3802C3.92914 18.7726 3.62533 18.0348 3.62533 17.1667H1.54199V7.79171C1.54199 7.21879 1.74599 6.72834 2.15397 6.32035C2.56196 5.91237 3.05241 5.70837 3.62533 5.70837H18.2087L24.4587 11.9584V17.1667H22.3753C22.3753 18.0348 22.0715 18.7726 21.4639 19.3802C20.8562 19.9879 20.1184 20.2917 19.2503 20.2917C18.3823 20.2917 17.6444 19.9879 17.0368 19.3802C16.4291 18.7726 16.1253 18.0348 16.1253 17.1667H9.87533C9.87533 18.0348 9.57151 18.7726 8.96387 19.3802C8.35623 19.9879 7.61838 20.2917 6.75033 20.2917ZM16.1253 10.9167H20.292L17.167 7.79171H16.1253V10.9167ZM9.87533 10.9167H14.042V7.79171H9.87533V10.9167ZM3.62533 10.9167H7.79199V7.79171H3.62533V10.9167ZM6.75033 18.4688C7.11491 18.4688 7.42307 18.3429 7.6748 18.0912C7.92654 17.8394 8.05241 17.5313 8.05241 17.1667C8.05241 16.8021 7.92654 16.494 7.6748 16.2422C7.42307 15.9905 7.11491 15.8646 6.75033 15.8646C6.38574 15.8646 6.07758 15.9905 5.82585 16.2422C5.57411 16.494 5.44824 16.8021 5.44824 17.1667C5.44824 17.5313 5.57411 17.8394 5.82585 18.0912C6.07758 18.3429 6.38574 18.4688 6.75033 18.4688ZM19.2503 18.4688C19.6149 18.4688 19.9231 18.3429 20.1748 18.0912C20.4265 17.8394 20.5524 17.5313 20.5524 17.1667C20.5524 16.8021 20.4265 16.494 20.1748 16.2422C19.9231 15.9905 19.6149 15.8646 19.2503 15.8646C18.8857 15.8646 18.5776 15.9905 18.3258 16.2422C18.0741 16.494 17.9482 16.8021 17.9482 17.1667C17.9482 17.5313 18.0741 17.8394 18.3258 18.0912C18.5776 18.3429 18.8857 18.4688 19.2503 18.4688ZM3.62533 15.0834H4.45866C4.7538 14.7709 5.09234 14.5191 5.47428 14.3282C5.85623 14.1372 6.28158 14.0417 6.75033 14.0417C7.21908 14.0417 7.64442 14.1372 8.02637 14.3282C8.40831 14.5191 8.74685 14.7709 9.04199 15.0834H16.9587C17.2538 14.7709 17.5923 14.5191 17.9743 14.3282C18.3562 14.1372 18.7816 14.0417 19.2503 14.0417C19.7191 14.0417 20.1444 14.1372 20.5264 14.3282C20.9083 14.5191 21.2469 14.7709 21.542 15.0834H22.3753V13H3.62533V15.0834Z" fill="white"/>
</g>
</svg>
