<svg width="246" height="75" viewBox="0 0 246 75" fill="none" xmlns="http://www.w3.org/2000/svg">
<path d="M117.497 0.0608158C117.389 0.109935 117.163 0.306408 116.986 0.502882L116.672 0.866358V6.5641C116.672 12.8807 116.652 12.6941 117.32 13.1951L117.684 13.48L122.635 13.5094C127.566 13.5389 127.586 13.5389 127.93 13.3228C128.126 13.2049 128.392 12.9495 128.519 12.7432L128.765 12.3699L128.824 6.86863C128.883 1.84873 128.873 1.31825 128.716 0.925301C128.627 0.689532 128.441 0.384998 128.303 0.25729L128.048 0.0215216L122.881 0.00187397C120.032 -0.00794983 117.615 0.0215216 117.497 0.0608158Z" fill="#004080"/>
<path d="M117.497 15.5286C117.389 15.5777 117.163 15.7742 116.986 15.9707L116.672 16.3341V22.0319C116.672 28.3485 116.652 28.1618 117.32 28.6629L117.684 28.9477L122.635 28.9772C127.566 29.0067 127.586 29.0067 127.93 28.7906C128.126 28.6727 128.392 28.4173 128.519 28.211L128.765 27.8377L128.824 22.3364C128.883 17.3165 128.873 16.786 128.716 16.3931C128.627 16.1573 128.441 15.8528 128.303 15.7251L128.048 15.4893L122.881 15.4696C120.032 15.4598 117.615 15.4893 117.497 15.5286Z" fill="#046ED9"/>
<path d="M169.135 12.7302C169.027 12.7695 168.811 12.9463 168.644 13.1232L168.349 13.4277L168.291 33.5859C168.251 47.5748 168.202 53.9013 168.123 54.2549C167.642 56.534 166.994 58.0665 165.854 59.5892C163.801 62.3398 161.434 63.892 158.28 64.5698C157.023 64.835 154.459 64.8056 153.083 64.5109C151.207 64.1081 149.92 63.5285 148.358 62.3988C145.45 60.3063 143.741 57.3887 143.338 53.8522C143.112 51.7794 143.505 49.3333 144.389 47.3391C145.038 45.8655 146.639 43.8811 147.975 42.8889C149.291 41.9164 151.433 40.934 152.936 40.6197C153.309 40.5411 155.107 40.4821 158.035 40.4428L162.563 40.3839L162.976 40.0499C163.762 39.431 163.732 39.6078 163.732 35.1479V31.1889L163.31 30.796L162.887 30.403L157.661 30.4423C152.16 30.4816 152.032 30.4914 149.93 30.9924C148.398 31.3559 146.551 32.0829 144.969 32.9474C139.085 36.1793 134.88 41.9459 133.731 48.3411C132.748 53.8325 133.701 59.1962 136.452 63.7643C137.69 65.8076 140.067 68.5582 141.816 69.963C145.745 73.1262 150.421 74.7373 155.628 74.7275C160.166 74.7177 164.106 73.6174 167.632 71.4071C170.157 69.8255 173.153 66.898 174.715 64.4912C176.316 62.0353 177.456 59.1275 177.967 56.1509C178.291 54.2549 178.33 51.858 178.301 32.5741L178.271 13.5652L178.045 13.241C177.603 12.6221 177.652 12.632 173.291 12.6418C171.11 12.6418 169.243 12.6811 169.135 12.7302Z" fill="#004080"/>
<path d="M184.696 12.7499C184.499 12.7991 184.204 12.9759 184.057 13.1331L183.772 13.4278L183.743 19.4202C183.723 25.2653 183.723 25.4127 183.92 25.7958C184.273 26.4835 184.096 26.4638 189.617 26.4933C194.431 26.5326 194.588 26.5228 194.912 26.3361C195.62 25.9137 195.659 25.8056 195.688 23.6837L195.728 21.7779L197.26 21.7484C198.773 21.719 198.812 21.7091 199.156 21.4439C199.775 20.9724 199.785 20.9233 199.785 16.984V13.418L199.411 13.0545L199.048 12.6812L192.044 12.6615C187.741 12.6517 184.912 12.691 184.696 12.7499Z" fill="#046ED9"/>
<path d="M29.4421 12.9366C29.0688 12.9759 28.1847 13.0643 27.4774 13.1134C26.161 13.2215 25.7484 13.2902 24.2356 13.6341C18.42 14.9406 13.3902 17.7207 8.98923 22.0333C4.83381 26.12 1.79829 31.749 0.609624 37.5842C0.138087 39.9026 0.000555019 41.2485 0.000555019 43.7731C-0.00926867 46.3568 0.108616 47.5749 0.570329 49.8638C0.874863 51.357 0.933805 51.6124 1.31693 52.8601C2.81013 57.6933 5.41341 62.0452 8.90081 65.5424C10.7084 67.35 11.8676 68.3029 14.1172 69.8157C14.9915 70.4052 16.9169 71.4465 18.3119 72.085C19.9132 72.812 22.6147 73.7354 23.8426 73.9613C24.0096 74.0006 24.5598 74.1087 25.0706 74.2266C26.4656 74.5311 30.0807 74.8455 31.5051 74.7865C34.295 74.6588 36.9966 74.2659 39.0202 73.6764C40.4054 73.2737 41.5547 72.92 41.82 72.8021C41.987 72.7334 42.3996 72.5565 42.7532 72.4092C45.4155 71.2991 47.7928 69.9041 50.1112 68.0966C51.1918 67.2518 53.7852 64.7565 54.6104 63.7643C56.3394 61.6817 57.7638 59.491 58.815 57.2807C60.4752 53.813 61.3495 50.6595 61.821 46.4747C61.9192 45.6102 61.9585 43.6651 61.9585 39.1069V32.918L61.1235 32.8492C60.0527 32.7706 32.5955 32.7706 31.7507 32.859L31.1122 32.918L31.0827 38.3406L31.063 43.7731L41.0046 43.7928L50.956 43.8223L50.9462 44.9225C50.9265 47.2311 50.1799 50.0996 48.9422 52.5948C47.5374 55.4142 45.6709 57.7031 43.215 59.6286C39.6588 62.3989 35.5525 63.8135 31.0729 63.8135C29.4913 63.8135 27.2023 63.617 26.5933 63.4205C26.4361 63.3714 25.8172 63.1847 25.218 63.0177C22.7817 62.3104 20.5812 61.1611 18.5182 59.5009C14.4217 56.2198 11.8086 51.691 11.0718 46.6318C10.8164 44.8734 10.9048 41.5039 11.2585 39.8142C11.5237 38.5371 12.1525 36.6313 12.7321 35.3739C14.6182 31.2872 18.2137 27.6623 22.3691 25.6976C23.6658 25.0787 24.9527 24.6071 25.994 24.3714C26.9862 24.1454 29.3046 23.8311 29.9628 23.8311C30.2673 23.8311 30.5915 23.7819 30.6701 23.7328C30.8469 23.6248 30.8666 22.3379 30.7782 16.5615L30.7192 12.8777L30.4245 12.8678C30.2673 12.858 29.8253 12.8875 29.4421 12.9366Z" fill="#004080"/>
<path d="M117.187 30.3834C117.099 30.4031 117.04 30.462 117.06 30.5013C117.089 30.5406 117.02 30.5701 116.902 30.5701C116.676 30.5602 116.598 30.6781 116.431 31.2479C116.313 31.6703 116.333 41.16 116.45 41.5922C116.49 41.7101 116.45 41.9655 116.372 42.1522C116.254 42.4371 116.234 44.6867 116.234 57.8897C116.234 68.8726 116.264 73.4013 116.342 73.6862C116.509 74.2855 116.922 74.7963 117.315 74.924C117.541 74.9928 119.339 75.0124 122.63 74.9928C128.259 74.9633 127.758 75.0321 128.288 74.1381L128.563 73.6862L128.583 58.1255C128.602 49.52 128.573 42.5157 128.524 42.4567C128.475 42.3978 128.485 40.8358 128.534 38.9104C128.642 34.7943 128.602 31.1497 128.426 30.8255C128.16 30.3245 128.013 30.3147 122.482 30.3245C119.673 30.3343 117.286 30.354 117.187 30.3834Z" fill="#004080"/>
<path d="M184.46 30.8943C184.303 30.9926 184.077 31.1694 183.969 31.2971C183.772 31.5132 183.772 31.6704 183.743 52.1921C183.733 65.6309 183.752 72.9986 183.821 73.2344C183.87 73.4309 184.057 73.7256 184.214 73.8828L184.519 74.1775H189.676H194.843L195.158 73.8238L195.482 73.4702L195.541 68.1261C195.649 58.3908 195.629 32.0339 195.511 31.7293C195.452 31.5722 195.236 31.2775 195.04 31.0712L194.686 30.7077H189.715C185.059 30.7077 184.735 30.7175 184.46 30.8943Z" fill="#046ED9"/>
<path d="M200.945 30.796C200.542 30.8943 200.355 31.0515 200.159 31.4346C200.021 31.69 200.011 31.9847 200.07 33.3993C200.149 35.3444 200.208 35.5311 201.063 36.5036C201.839 37.3877 203.027 38.7041 203.627 39.3525C203.892 39.6472 204.334 40.1384 204.609 40.4331C204.874 40.7278 205.316 41.2091 205.591 41.5137C206.073 42.0343 206.858 42.8988 207.055 43.1248C207.114 43.1837 207.733 43.8517 208.43 44.6081C212.193 48.6751 212.664 49.2351 213.057 50.0505C213.372 50.7185 213.489 51.4061 213.489 52.5653C213.489 54.4908 213.234 55.2079 212.036 56.6422C211.269 57.5754 210.768 58.1255 208.529 60.5225C207.87 61.22 207.114 62.0452 206.849 62.3399C205.562 63.7742 203.499 66.0336 202.526 67.0553C200.11 69.6192 200.198 69.4621 200.149 71.584L200.11 73.2049L200.385 73.5291C200.896 74.1381 200.827 74.1283 206.141 74.1283C211.594 74.1185 211.201 74.1676 212.085 73.3326C212.556 72.8807 213.205 72.1832 214.963 70.1988C218.195 66.5641 219.629 65.1396 220.494 64.7172C221.339 64.2948 222.449 64.1573 223.824 64.3046C225.504 64.4716 226.29 64.9825 228.274 67.2026C229.816 68.9218 229.944 69.0593 231.074 70.2971C231.644 70.916 232.321 71.6724 232.597 71.9671C233.412 72.8807 234.424 73.814 234.748 73.9711C235.003 74.089 235.878 74.1185 239.935 74.1381C245.299 74.1676 244.935 74.2069 245.593 73.5487C245.859 73.2737 245.898 73.1656 245.957 72.4092C245.996 71.9475 245.996 71.1517 245.957 70.6409C245.878 69.521 245.77 69.3245 244.356 67.8215C242.627 65.9648 240.259 63.3714 239.62 62.6346C239.503 62.4971 239.159 62.1238 238.844 61.7996C238.019 60.9253 234.434 56.986 233.942 56.4064C233.707 56.1313 233.353 55.5714 233.157 55.1686L232.793 54.4318V52.6636C232.793 50.9739 232.803 50.8658 233.058 50.2273C233.412 49.3333 234.031 48.5278 235.789 46.622C236.31 46.0522 237.597 44.6376 238.638 43.4784C239.689 42.3192 240.564 41.3467 240.593 41.3172C240.642 41.2779 241.035 40.8358 242.518 39.1953C244.179 37.3484 245.623 35.5998 245.77 35.2756C245.849 35.089 245.908 34.3817 245.927 33.3404C245.957 31.8177 245.947 31.69 245.75 31.4248C245.289 30.796 245.387 30.8059 239.886 30.8059C235.514 30.8059 234.846 30.8255 234.551 30.963C234.119 31.1693 233.451 31.8373 232.233 33.2913C231.683 33.9494 231.202 34.5094 231.172 34.5389C231.143 34.5683 230.838 34.922 230.484 35.3248C230.141 35.7275 229.826 36.0812 229.797 36.1107C229.767 36.1401 229.276 36.6903 228.706 37.3386C226.192 40.1777 225.504 40.5804 223.068 40.5706C221.28 40.5608 220.337 40.2464 219.325 39.323C218.696 38.7532 214.816 34.4799 213.548 32.9671C213.077 32.3973 212.478 31.7489 212.232 31.523C211.358 30.7273 211.682 30.7666 206.171 30.7371C203.469 30.7273 201.112 30.7567 200.945 30.796Z" fill="#046ED9"/>
<path d="M69.8676 31.1792L69.4746 31.5623V42.1621C69.4844 52.9681 69.5336 55.5223 69.8184 57.3397C70.2507 60.0706 71.292 62.7918 72.795 65.0905C74.357 67.4777 76.5771 69.747 78.8562 71.2598C80.7129 72.4878 83.8663 73.7649 86.1749 74.2168C91.4207 75.2482 96.8434 74.2659 101.303 71.4858C102.826 70.5427 103.799 69.7666 105.036 68.519C108.249 65.287 110.086 61.6621 110.901 56.986C111.048 56.1019 111.068 54.815 111.098 43.9696C111.127 32.6036 111.117 31.916 110.96 31.5918C110.862 31.4051 110.636 31.1497 110.449 31.0318L110.115 30.8059H105.557H101.009L100.635 31.1399L100.272 31.4739L100.223 43.9893C100.164 57.9684 100.233 56.6913 99.4369 58.5185C98.2482 61.2593 95.9691 63.224 92.9532 64.1278C92.1182 64.3734 89.9766 64.4717 88.7978 64.3145C84.9764 63.8036 81.5381 60.6797 80.6048 56.8681C80.4575 56.2689 80.4378 54.982 80.4084 43.9696C80.3887 35.2953 80.3396 31.6605 80.261 31.4641C80.2021 31.3167 80.0351 31.1104 79.8877 31.0024C79.6225 30.8157 79.4358 30.8059 74.9366 30.8059H70.2703L69.8676 31.1792Z" fill="#004080"/>
<path d="M148.658 43.8552C148.452 43.9142 148.187 44.0713 148.069 44.2089C147.843 44.4446 147.833 44.5134 147.804 46.3701C147.764 48.5411 147.774 48.5608 148.511 48.993C148.933 49.2386 149.002 49.2484 150.407 49.2484C151.743 49.2386 151.89 49.2189 152.254 49.0126C152.961 48.6099 153.04 48.3545 153.04 46.4487C153.04 44.8572 153.03 44.759 152.814 44.4545C152.401 43.8847 152.126 43.8061 150.485 43.7766C149.68 43.7668 148.855 43.8061 148.658 43.8552ZM151.841 44.6411C151.959 44.7099 152.087 44.8081 152.126 44.867C152.254 45.0537 152.214 48.1187 152.087 48.2464C152.008 48.325 151.487 48.3643 150.367 48.3643C148.894 48.3643 148.766 48.3545 148.668 48.1776C148.609 48.0696 148.57 47.3131 148.57 46.4094C148.57 45.1126 148.599 44.8179 148.727 44.6902C148.855 44.5625 149.13 44.533 150.25 44.533C151.094 44.533 151.713 44.5723 151.841 44.6411Z" fill="black"/>
<path d="M149.356 46.5469V47.5883L150.368 47.5588L151.37 47.5293L151.4 46.5175L151.429 45.5155H150.388H149.356V46.5469Z" fill="black"/>
<path d="M159.622 43.8945C159.406 43.9731 159.22 44.0419 159.21 44.0419C159.2 44.0419 159.102 44.199 158.974 44.3955C158.778 44.7197 158.758 44.8769 158.748 46.4781C158.738 48.4822 158.778 48.6 159.583 49.0126C160.025 49.2288 160.173 49.2484 161.479 49.2484C162.786 49.2484 162.923 49.2288 163.306 49.0126C164.033 48.6 164.092 48.4134 164.092 46.4388V44.7099L163.719 44.3366C163.513 44.1303 163.179 43.9142 162.963 43.8552C162.383 43.698 160.104 43.7275 159.622 43.8945ZM163.012 44.7099C163.228 44.8867 163.238 44.9555 163.247 46.4094C163.257 47.4801 163.218 47.991 163.13 48.1383C163.012 48.3545 162.963 48.3643 161.489 48.3643C160.664 48.3643 159.917 48.3348 159.829 48.3053C159.691 48.2562 159.672 48.0008 159.672 46.488C159.672 44.926 159.691 44.7295 159.848 44.6411C159.937 44.5822 160.644 44.533 161.401 44.533C162.609 44.533 162.825 44.5527 163.012 44.7099Z" fill="black"/>
<path d="M160.32 45.6726C160.241 45.8691 160.241 46.7336 160.32 47.215L160.388 47.5883L161.43 47.5588L162.471 47.5293L162.501 46.5175L162.53 45.5155H161.449C160.565 45.5155 160.369 45.5449 160.32 45.6726Z" fill="black"/>
<path d="M153.885 44.0615C153.767 44.3661 153.924 44.5331 154.327 44.5331C154.612 44.5331 154.661 44.4938 154.661 44.3071C154.661 43.8356 154.042 43.6489 153.885 44.0615Z" fill="black"/>
<path d="M157.176 44.091C157.068 44.3759 157.225 44.5331 157.618 44.5331C158.021 44.5331 158.07 44.4545 157.903 44.1303C157.775 43.9044 157.264 43.8749 157.176 44.091Z" fill="black"/>
<path d="M155.516 44.2972C155.477 44.3365 155.447 44.5428 155.447 44.7589C155.447 45.0635 155.516 45.2108 155.781 45.4761C156.066 45.7609 156.184 45.8101 156.557 45.8101C157.274 45.8101 157.432 45.3483 156.754 45.1715C156.41 45.0929 156.253 44.9161 156.214 44.5723C156.194 44.3365 156.135 44.2776 155.889 44.2579C155.722 44.2383 155.555 44.2579 155.516 44.2972Z" fill="black"/>
<path d="M153.983 45.6235C153.944 45.7414 153.954 46.0263 154.003 46.2621C154.091 46.655 154.15 46.714 154.73 46.9989C155.388 47.323 155.447 47.4115 155.594 48.384C155.653 48.7769 155.732 48.8261 156.046 48.6591C156.203 48.5706 156.233 48.4429 156.233 47.7848C156.233 47.0382 156.223 46.9989 155.928 46.7533C155.761 46.6157 155.535 46.4978 155.427 46.4978C155.123 46.4978 154.661 46.1245 154.661 45.8691C154.661 45.4271 154.131 45.2404 153.983 45.6235Z" fill="black"/>
<path d="M157.294 46.6058C156.93 46.8121 157.206 47.4604 157.599 47.3327C157.775 47.2738 157.815 47.205 157.785 46.9103C157.756 46.5272 157.589 46.4289 157.294 46.6058Z" fill="black"/>
<path d="M153.993 47.9712C153.806 48.2659 154.003 48.5803 154.347 48.541C154.582 48.5115 154.612 48.4722 154.612 48.1677C154.612 47.873 154.573 47.8238 154.366 47.7944C154.199 47.7747 154.081 47.8337 153.993 47.9712Z" fill="black"/>
<path d="M157.215 48.6883C157.215 49.4349 157.392 49.6609 157.971 49.6805C158.462 49.6904 158.512 49.4153 158.119 48.9732C157.952 48.7964 157.804 48.5213 157.765 48.3543C157.726 48.1284 157.657 48.0694 157.46 48.0694C157.225 48.0694 157.215 48.0891 157.215 48.6883Z" fill="black"/>
<path d="M153.964 49.5825C153.846 49.828 153.905 50.3585 154.062 50.6139C154.14 50.7318 154.19 50.7318 154.415 50.5845C154.641 50.4371 154.671 50.3683 154.641 49.9066C154.612 49.4351 154.592 49.3958 154.347 49.3663C154.131 49.3369 154.052 49.386 153.964 49.5825Z" fill="black"/>
<path d="M147.853 49.995C147.745 50.103 147.775 50.604 147.892 50.6728C148.089 50.8005 148.472 50.6237 148.531 50.3683C148.57 50.2307 148.57 50.103 148.551 50.0834C148.462 49.9851 147.932 49.9262 147.853 49.995Z" fill="black"/>
<path d="M149.483 49.995C149.336 50.0539 149.316 50.4075 149.444 50.6138C149.562 50.8005 150.004 50.6728 150.151 50.4174C150.21 50.2995 150.22 50.1718 150.171 50.1325C150.063 50.0146 149.631 49.936 149.483 49.995Z" fill="black"/>
<path d="M161.979 50.1325C161.704 50.437 161.871 50.9478 162.402 51.4096C162.893 51.8516 163.325 51.9302 163.502 51.6159C163.64 51.3408 163.649 51.3506 163.168 51.0264C162.932 50.8594 162.667 50.5745 162.579 50.3977C162.382 49.9753 162.196 49.8967 161.979 50.1325Z" fill="black"/>
<path d="M151.075 50.1325C150.957 50.3192 151.134 50.6041 151.399 50.6728C152.303 50.8889 152.402 50.9381 152.549 51.2131C152.726 51.557 153.128 51.999 153.256 51.999C153.315 51.999 153.413 51.9303 153.482 51.8517C153.718 51.5766 153.158 50.5844 152.559 50.2209C152.225 50.0146 151.183 49.9557 151.075 50.1325Z" fill="black"/>
<path d="M159.622 50.2307C159.357 50.3191 159.131 50.4468 159.141 50.5057C159.151 50.5745 159.161 50.6629 159.17 50.7218C159.18 50.8496 160.516 50.8496 160.762 50.7218C160.88 50.6531 160.948 50.5155 160.948 50.3289C160.948 50.044 160.929 50.0342 160.536 50.044C160.3 50.0538 159.897 50.1324 159.622 50.2307Z" fill="black"/>
<path d="M156.498 50.8889C156.39 50.9184 156.341 50.997 156.37 51.0756C156.41 51.1738 156.341 51.2131 156.125 51.2131C155.889 51.2131 155.83 51.2524 155.879 51.3605C155.918 51.4882 155.899 51.498 155.742 51.4096C155.584 51.3212 155.486 51.3703 155.162 51.6552C154.926 51.8713 154.789 52.0678 154.828 52.1562C154.857 52.2446 154.828 52.2839 154.749 52.2446C154.553 52.1857 154.14 53.0894 154.229 53.4136C154.258 53.5511 154.248 53.669 154.209 53.669C154.16 53.669 154.13 53.8655 154.15 54.1111C154.17 54.3567 154.229 54.5532 154.278 54.5532C154.435 54.5532 154.366 54.73 154.199 54.7693C154.091 54.7889 154.062 54.8282 154.121 54.8675C154.366 55.0247 154.484 54.7595 154.494 54.0325C154.504 53.6199 154.553 53.3154 154.602 53.3547C154.651 53.3841 154.671 53.3154 154.641 53.1975C154.602 53.0501 154.622 53.0108 154.73 53.0501C154.799 53.0796 154.857 53.0698 154.838 53.0207C154.818 52.9715 154.956 52.6965 155.123 52.4214C155.358 52.0481 155.594 51.8222 155.987 51.5962C156.282 51.4292 156.527 51.2426 156.527 51.1935C156.527 51.1247 156.734 51.105 157.068 51.1345C157.51 51.1738 157.569 51.1542 157.431 51.0658C157.225 50.9184 156.734 50.83 156.498 50.8889Z" fill="black"/>
<path d="M157.706 50.9572C157.706 50.9769 157.775 51.0262 157.864 51.0558C157.942 51.0853 157.982 51.0755 157.952 51.0164C157.893 50.9178 157.706 50.8784 157.706 50.9572Z" fill="black"/>
<path d="M158.138 51.498C158.345 51.7239 158.394 51.7534 158.394 51.6061C158.394 51.5569 158.296 51.4587 158.178 51.3998C157.952 51.2819 157.952 51.2819 158.138 51.498Z" fill="black"/>
<path d="M147.784 51.8025C147.784 52.0775 147.804 52.0972 148.167 52.0972C148.442 52.0972 148.56 52.048 148.59 51.9203C148.668 51.6158 148.56 51.5077 148.167 51.5077C147.804 51.5077 147.784 51.5274 147.784 51.8025Z" fill="black"/>
<path d="M149.395 51.6552C149.268 51.9793 149.425 52.0776 150.181 52.1169C151.105 52.1562 151.39 52.3821 151.498 53.1385C151.557 53.5708 151.596 53.6199 151.841 53.6494L152.107 53.6788V52.9912C152.107 52.333 152.087 52.274 151.753 51.9007L151.399 51.5078H150.427C149.651 51.5078 149.435 51.5373 149.395 51.6552Z" fill="black"/>
<path d="M160.29 51.6944C160.123 51.9597 160.231 52.1954 160.506 52.1954C160.978 52.1954 161.116 51.5864 160.654 51.5274C160.497 51.5078 160.369 51.5667 160.29 51.6944Z" fill="black"/>
<path d="M158.492 51.9204C158.492 51.9401 158.581 52.2053 158.689 52.5197C158.797 52.8242 158.885 53.2073 158.885 53.3645C158.885 53.7967 159.357 54.4353 159.838 54.6612C160.594 55.0051 160.987 54.8479 162.068 53.7869C162.785 53.0894 162.932 52.9814 163.237 52.9814C163.551 52.9814 163.601 53.0207 163.758 53.3743C163.856 53.5806 163.993 53.7869 164.062 53.8066C164.141 53.836 164.17 53.8164 164.141 53.7673C164.111 53.7083 164.131 53.669 164.18 53.669C164.239 53.669 164.288 53.5512 164.288 53.4136C164.288 53.227 164.249 53.168 164.151 53.2073C164.052 53.2466 164.023 53.2171 164.052 53.1287C164.17 52.8242 163.453 52.7751 162.52 53.0305C162.333 53.0796 162.304 53.0698 162.422 52.9912C162.5 52.9323 162.53 52.8831 162.481 52.8831C162.431 52.8831 162.048 53.2368 161.646 53.669C160.919 54.4353 160.879 54.4549 160.457 54.4451C159.868 54.4353 159.543 54.337 159.494 54.1602C159.465 54.0325 159.475 54.0325 159.573 54.1602C159.671 54.2879 159.681 54.2879 159.642 54.1602C159.622 54.0816 159.543 54.0129 159.465 54.0129C159.376 54.0129 159.308 53.8655 159.268 53.6199C159.239 53.4038 159.199 53.2957 159.19 53.3743C159.16 53.6494 158.983 53.2564 158.983 52.9028C158.983 52.7358 158.934 52.5884 158.875 52.5884C158.807 52.5884 158.787 52.4902 158.816 52.3428C158.846 52.166 158.807 52.058 158.679 51.9892C158.571 51.9401 158.492 51.9106 158.492 51.9204Z" fill="black"/>
<path d="M149.857 53.0403C149.523 53.2761 149.621 53.6101 150.034 53.6494C150.427 53.6887 150.574 53.5708 150.486 53.2859C150.388 52.9716 150.113 52.8635 149.857 53.0403Z" fill="black"/>
<path d="M147.912 53.0501C147.843 53.0698 147.784 53.2269 147.784 53.3841V53.6788L148.344 53.6494C148.816 53.6297 148.914 53.5904 148.943 53.4332C149.012 53.0894 148.374 52.8536 147.912 53.0501Z" fill="black"/>
<path d="M155.515 53.443C155.407 53.5511 155.456 55.0737 155.574 55.3881C155.898 56.2231 156.556 56.5178 158.089 56.5178C159.287 56.5178 159.376 56.4884 159.376 56.0758C159.376 55.8695 159.317 55.7319 159.219 55.6926C159.13 55.6632 158.541 55.6337 157.892 55.6337C156.772 55.6337 156.704 55.6239 156.478 55.3881C156.252 55.172 156.232 55.0737 156.232 54.2584V53.3742H155.908C155.721 53.3742 155.545 53.4037 155.515 53.443Z" fill="black"/>
<path d="M148.776 54.7203C148.639 54.7497 148.433 54.8382 148.305 54.9167C147.843 55.2213 147.784 55.4963 147.784 57.353C147.784 59.1311 147.814 59.3079 148.207 59.7304C148.403 59.9465 148.462 59.9563 150.358 59.9563H152.303L152.637 59.6321C153.05 59.2195 153.138 58.7087 153.069 56.9208C153.01 55.5455 152.863 55.0641 152.411 54.8382C152.156 54.7105 149.268 54.6122 148.776 54.7203ZM152.185 57.2548C152.215 59.4749 152.303 59.3669 150.427 59.3669C149.101 59.3669 149.042 59.3571 148.816 59.1213C148.57 58.8855 148.57 58.856 148.57 57.2744C148.57 56.3903 148.6 55.6339 148.639 55.5946C148.678 55.5651 149.484 55.5455 150.427 55.5553L152.156 55.5848L152.185 57.2548Z" fill="black"/>
<path d="M150.123 56.3018L149.356 56.3312V57.3529V58.3844H150.388H151.419V57.3627V56.3411L151.154 56.3116C150.997 56.292 150.535 56.2821 150.123 56.3018Z" fill="black"/>
<path d="M154.268 55.0442C154.072 55.1621 154.17 55.2309 154.406 55.1425C154.514 55.113 154.553 55.0541 154.504 55.0148C154.445 54.9853 154.347 54.9951 154.268 55.0442Z" fill="black"/>
<path d="M162.127 55.1427C162.068 55.2507 162.028 55.5946 162.048 55.9089L162.078 56.4689H163.011H163.944L163.974 55.8696C164.013 55.0444 163.905 54.9462 162.962 54.9462C162.333 54.9462 162.215 54.9757 162.127 55.1427Z" fill="black"/>
<path d="M153.974 56.1741C153.757 56.4295 154.003 56.8126 154.367 56.8126C154.622 56.8126 154.661 56.7733 154.661 56.5376C154.661 56.066 154.239 55.8499 153.974 56.1741Z" fill="black"/>
<path d="M160.476 56.2428C160.408 56.3116 160.358 56.5081 160.358 56.6849C160.358 56.9403 160.437 57.0877 160.722 57.3333C161.203 57.7655 161.881 58.0897 162.264 58.0897C162.451 58.0897 162.775 58.1585 163.001 58.2371C163.679 58.4728 164.229 58.1192 163.846 57.6967C163.728 57.5592 163.541 57.5003 163.286 57.5003C163.07 57.5003 162.588 57.4119 162.225 57.294C161.675 57.127 161.488 57.0189 161.233 56.7046C160.84 56.2232 160.624 56.0955 160.476 56.2428Z" fill="black"/>
<path d="M155.565 57.1073C155.368 57.4315 155.732 57.8441 156.115 57.7262C156.184 57.6968 156.233 57.5199 156.233 57.294C156.233 56.9403 156.213 56.9109 155.958 56.9109C155.801 56.9109 155.643 56.9895 155.565 57.1073Z" fill="black"/>
<path d="M157.293 57.3137C157.175 57.3825 157.116 57.5298 157.116 57.7754C157.116 58.3747 157.165 58.3943 158.305 58.3648L159.327 58.3354V57.7951V57.2548L158.393 57.2351C157.882 57.2155 157.381 57.2548 157.293 57.3137Z" fill="black"/>
<path d="M154.051 57.6672C153.668 57.7654 153.983 58.4236 154.385 58.3647C154.572 58.345 154.611 58.2763 154.611 57.9914C154.611 57.6377 154.464 57.5493 154.051 57.6672Z" fill="black"/>
<path d="M160.428 58.3549C160.32 58.4532 160.35 58.964 160.458 59.1801C160.517 59.2784 160.792 59.4945 161.077 59.6615C161.705 60.0151 162.265 60.0544 162.422 59.7499C162.58 59.465 162.324 59.1998 161.823 59.1212C161.558 59.0721 161.332 58.9444 161.077 58.6693C160.723 58.296 160.556 58.2174 160.428 58.3549Z" fill="black"/>
<path d="M155.545 58.689C155.456 58.8462 155.466 58.9346 155.603 59.0819C155.928 59.4454 156.232 59.2784 156.232 58.7185C156.232 58.522 156.183 58.4827 155.937 58.4827C155.751 58.4827 155.613 58.5515 155.545 58.689Z" fill="black"/>
<path d="M154.209 59.1703C153.885 59.298 153.836 59.4454 154.023 59.7205C154.337 60.2018 154.769 59.8973 154.622 59.3079C154.553 59.0524 154.524 59.0426 154.209 59.1703Z" fill="black"/>
<path d="M157.284 59.1409C157.244 59.1704 157.215 59.3767 157.215 59.583C157.215 59.917 157.244 59.9563 157.46 59.9563C157.608 59.9563 157.765 59.8581 157.873 59.7009C158.03 59.4455 158.03 59.4356 157.814 59.2588C157.578 59.0623 157.392 59.023 157.284 59.1409Z" fill="black"/>
<path d="M163.325 59.19C163.158 59.357 163.177 59.8482 163.354 59.9169C163.58 60.0053 163.963 59.8776 164.032 59.7008C164.071 59.5927 164.012 59.4454 163.885 59.298C163.639 59.0426 163.502 59.0131 163.325 59.19Z" fill="black"/>
<path d="M158.748 59.2587C158.718 59.3078 158.718 59.4846 158.748 59.6614C158.807 59.9168 158.856 59.966 159.072 59.9365C159.288 59.907 159.327 59.8579 159.357 59.5337C159.386 59.1899 159.376 59.1702 159.092 59.1702C158.934 59.1702 158.777 59.2095 158.748 59.2587Z" fill="black"/>
</svg>
