<svg width="247" height="214" viewBox="0 0 247 214" fill="none" xmlns="http://www.w3.org/2000/svg">
<path d="M105.797 213.755C158.512 213.755 201.246 210.298 201.246 206.034C201.246 201.77 158.512 198.314 105.797 198.314C53.0817 198.314 10.3477 201.77 10.3477 206.034C10.3477 210.298 53.0817 213.755 105.797 213.755Z" fill="#74B9FF"/>
<path d="M76.8564 181.418C76.8564 183.211 78.3119 184.666 80.1049 184.666H196.817C198.61 184.666 200.065 183.211 200.065 181.418V80.9272H76.8775V181.418H76.8564Z" fill="#74B9FF"/>
<path d="M113.517 139.927C114.066 141.825 114.825 143.66 115.796 145.411C116.386 146.466 116.344 147.773 115.669 148.786L112.842 153.026L118.263 158.447L122.503 155.62C123.516 154.945 124.824 154.903 125.878 155.494C127.608 156.464 129.443 157.223 131.363 157.772C132.523 158.109 133.409 159.059 133.662 160.261L134.653 165.26H142.31L143.323 160.24C143.555 159.059 144.441 158.088 145.622 157.751C147.521 157.202 149.356 156.443 151.106 155.473C152.161 154.882 153.469 154.924 154.481 155.599L158.721 158.426L164.142 153.005L161.316 148.765C160.641 147.752 160.599 146.444 161.189 145.39C162.16 143.66 162.919 141.825 163.467 139.905C163.805 138.745 164.754 137.859 165.956 137.606L170.956 136.615V128.958L165.935 127.945C164.754 127.713 163.784 126.827 163.446 125.646C162.898 123.748 162.138 121.912 161.168 120.162C160.578 119.107 160.62 117.799 161.295 116.787L164.121 112.547L158.7 107.126L154.46 109.952C153.448 110.627 152.14 110.669 151.085 110.079C149.356 109.109 147.521 108.349 145.601 107.801C144.441 107.463 143.555 106.514 143.302 105.312L142.31 100.312H134.653L133.641 105.333C133.409 106.514 132.523 107.484 131.342 107.822C129.443 108.37 127.608 109.13 125.857 110.1C124.803 110.691 123.495 110.648 122.482 109.973L118.242 107.147L112.821 112.568L115.648 116.808C116.323 117.82 116.365 119.128 115.774 120.183C114.804 121.912 114.045 123.748 113.496 125.667C113.159 126.827 112.21 127.713 111.007 127.966L106.008 128.958V136.615L111.028 137.627C112.231 137.859 113.201 138.745 113.517 139.927ZM138.45 113.327C149.187 113.327 157.899 122.039 157.899 132.776C157.899 143.512 149.187 152.224 138.45 152.224C127.713 152.224 119.002 143.512 119.002 132.776C119.002 122.06 127.713 113.348 138.45 113.327ZM76.8564 64.7062V74.4304H200.044V64.7062C200.044 62.9132 198.588 61.4578 196.796 61.4578H80.0838C78.2908 61.4578 76.8564 62.9132 76.8564 64.7062ZM109.278 64.7062H115.753V71.2031H109.278V64.7062ZM96.3049 64.7062H102.781V71.2031H96.3049V64.7062ZM83.3322 64.7062H89.808V71.2031H83.3322V64.7062Z" fill="#74B9FF"/>
<path d="M151.423 132.797C151.423 139.948 145.622 145.769 138.45 145.769C131.279 145.769 125.478 139.969 125.478 132.797C125.478 125.646 131.279 119.824 138.45 119.824C145.601 119.824 151.423 125.625 151.423 132.797ZM141.699 6.36086C141.699 4.5679 140.243 3.11243 138.45 3.11243H21.7387C19.9457 3.11243 18.4902 4.5679 18.4902 6.36086V16.0851H141.678V6.36086H141.699ZM31.4629 12.8366H24.9871V6.36086H31.4629V12.8366ZM44.4355 12.8366H37.9598V6.36086H44.4355V12.8366ZM57.4082 12.8366H50.9324V6.36086H57.4082V12.8366Z" fill="#74B9FF"/>
<path d="M70.3598 64.7062C70.3598 59.3273 74.7051 54.982 80.084 54.982H141.678V22.5609H18.4902V123.052C18.4902 124.845 19.9457 126.3 21.7387 126.3H70.3598V64.7062ZM96.3051 38.782H102.781V45.2578H96.3051V38.782ZM83.3324 38.782H89.8082V45.2578H83.3324V38.782ZM70.3598 38.782H76.8355V45.2578H70.3598V38.782ZM57.4082 116.576H31.4629V110.1H57.4082V116.576ZM57.4082 103.603H31.4629V97.1273H57.4082V103.603ZM57.4082 90.6515H31.4629V84.1758H57.4082V90.6515ZM57.4082 77.6789H31.4629V71.2031H57.4082V77.6789ZM57.4082 64.7062H31.4629V58.2304H57.4082V64.7062ZM57.4082 45.2578V38.782H63.884V45.2578H57.4082Z" fill="#74B9FF"/>
<path d="M95.7354 155.81L95.8619 152.393L98.2877 153.131L98.7518 157.392C98.7518 157.392 96.4314 157.54 95.7354 155.81Z" fill="#FCD2B1"/>
<path d="M95.9456 155.831C96.5151 156.063 97.4643 156.274 98.6456 156L98.498 155.03C98.498 155.03 99.173 155.43 99.3417 156.316C99.5105 157.181 99.5526 156.949 100.65 157.624C101.767 158.299 101.683 159.818 101.683 159.818L93.4144 159.607C93.4144 159.607 93.1823 157.941 94.68 156.169C94.9753 155.789 95.5026 155.641 95.9456 155.831Z" fill="#0E538C"/>
<path d="M82.5933 105.586C82.5933 105.586 81.5175 109.784 83.0363 112.42C84.555 115.057 87.2972 109.214 87.2972 109.214C87.2972 109.214 86.8121 103.603 82.5933 105.586Z" fill="#74B9FF"/>
<path d="M81.8346 85.6733C81.8346 85.6733 76.2658 93.246 75.3377 97.8233C74.3885 102.401 75.401 112.399 75.401 112.399H77.6791C77.6791 112.399 78.8815 99.6374 79.6408 97.8233C80.4002 95.9671 85.3362 87.403 85.3362 87.403L81.8346 85.6733Z" fill="#FFE3CA"/>
<path d="M80.8854 159.438H102.021V161.864H80.8854V159.438ZM76.3713 176.187H99.0893V178.612H76.3713V176.187ZM74.3252 192.387H97.0432V194.812H74.3252V192.387Z" fill="#003087"/>
<path d="M72.0469 208.502H69.5156L88.1625 120.794H89.5758L72.0469 208.502ZM98.4773 208.502H95.9461L110.733 118.327L111.977 118.917L98.4773 208.502Z" fill="#003087"/>
<path d="M93.3514 208.502L106.957 120.942L88.1623 120.794L69.5154 208.502H66.6045L85.5467 118.327H110.733L96.7475 208.502H92.9295" fill="#F7F7F7"/>
<path d="M84.8086 155.81L84.9352 152.393L87.3609 153.131L87.825 157.392C87.8039 157.392 85.5047 157.54 84.8086 155.81Z" fill="#FCD2B1"/>
<path d="M108.75 78.7125C108.75 78.7125 114.762 78.2695 115.479 75.4852C116.196 72.7008 116.07 65.1914 116.07 65.1914H118.158C118.158 65.1914 119.593 72.1734 119.508 75.4852C119.424 78.7969 115.395 84.45 108.75 84.0914C102.127 83.7328 108.75 78.7125 108.75 78.7125Z" fill="#FFE3CA"/>
<path d="M89.28 78.3539C89.28 78.3539 85.7995 78.7125 84.3652 80.2312C83.6691 80.9695 79.3448 86.3273 79.5136 87.4875L84.5972 90.6515L88.7527 84.8929L89.28 78.3539Z" fill="#003087"/>
<path d="M83.8378 104.152C83.8378 104.152 82.3402 108.581 83.7535 113.433C85.1667 118.284 85.1667 128.072 85.0402 130.624C84.9136 133.177 82.53 140.559 84.555 153.595H87.6769C87.6769 153.595 89.5753 139.927 90.6722 134.105C91.7058 128.641 93.0136 115.015 93.0136 115.015C93.0136 115.015 96.9371 127.945 96.2831 131.278C95.566 134.948 95.4816 153.574 95.4816 153.574H98.6245C98.6245 153.574 102.147 137.543 102.358 133.24C102.59 128.937 102.105 104.805 102.105 104.805C102.105 104.805 91.6425 97.6968 83.8378 104.152Z" fill="#0B4870"/>
<path d="M94.5543 69.9375L91.3691 79.6828L97.1277 80.8219L98.3934 70.718L94.5543 69.9375Z" fill="#FCD2B1"/>
<path d="M97.8229 77.8054C97.8229 77.8054 101.725 78.607 102.126 83.7117C102.527 88.8164 103.075 110.585 103.075 112.462C102.949 113.327 87.7822 116.217 83.2682 111.83C82.1291 110.712 85.8627 91.7695 85.3354 86.7914C84.7869 81.8344 87.7401 75.5273 97.8229 77.8054Z" fill="#003087"/>
<path d="M102.359 88.0147C102.359 88.0147 103.92 84.4499 108.75 84.0913C108.75 84.0913 109.91 80.7796 108.75 78.7124C108.75 78.7124 99.9961 76.9194 96.6633 77.5944C93.3305 78.2694 102.359 88.0147 102.359 88.0147Z" fill="#003087"/>
<path d="M118.137 67.0687C118.137 67.0687 118.791 63.5671 117.631 61.5843C116.934 60.403 116.175 59.8546 115.416 60.0655C114.909 60.2132 114.699 61.0991 114.825 61.6054C114.994 62.2593 115.542 64.0522 115.838 64.5585C115.838 64.5585 115.31 64.5585 114.762 63.3772C114.234 62.2171 113.834 63.9257 114.256 64.7272C114.888 65.8874 116.977 69.0726 118.137 67.0687Z" fill="#FFE3CA"/>
<path d="M84.9983 155.831C85.5679 156.063 86.5171 156.274 87.6983 156L87.5507 155.03C87.5507 155.03 88.2257 155.43 88.3944 156.316C88.5632 157.181 88.6054 156.949 89.7022 157.624C90.8202 158.299 90.7358 159.818 90.7358 159.818L82.4671 159.607C82.4671 159.607 82.2351 157.941 83.7327 156.169C84.0491 155.789 84.5554 155.641 84.9983 155.831Z" fill="#0E538C"/>
<path d="M102.717 68.482C102.569 67.2585 105.227 66.4359 100.144 62.8499C97.5492 61.0359 93.0351 61.8374 91.6429 64.5796C90.2507 67.3218 90.989 67.596 89.9132 67.7859C88.8375 67.9968 89.9765 76.4765 96.4734 76.371C102.991 76.2656 102.717 68.482 102.717 68.482Z" fill="#0B4870"/>
<path d="M82.9524 102.633H102.738C103.54 102.633 104.194 103.223 104.278 104.004C104.616 106.978 104.974 113.728 101.494 114.213C97.0219 114.846 95.5875 110.016 95.5875 105.523L82.5938 105.586C82.5938 105.586 82.1508 103.434 82.9524 102.633Z" fill="#4283C5"/>
<path d="M77.5314 111.218C77.5314 111.218 77.1517 115.711 78.6072 116.934C80.0627 118.179 76.0338 118.727 75.0424 116.449C74.0509 114.171 75.4009 111.218 75.4009 111.218H77.5314Z" fill="#FFE3CA"/>
<path d="M77.152 111.809C77.152 111.809 78.502 112.041 79.0083 113.496C79.3036 114.319 79.4723 115.205 79.5567 115.816C79.62 116.217 79.1559 116.491 78.8184 116.238C78.4809 115.985 78.1645 115.605 78.2067 114.952C78.3122 113.58 76.6669 113.981 76.6669 113.981C76.6669 113.981 76.1184 112.357 77.152 111.809Z" fill="#FFE3CA"/>
<path d="M99.2367 105.734H98.2031V102.675C98.2031 102.506 98.3508 102.359 98.5195 102.359H98.9414C99.1102 102.359 99.2578 102.506 99.2578 102.675V105.734H99.2367ZM100.777 105.734H99.743V103.709C99.743 103.54 99.8906 103.392 100.059 103.392H100.481C100.65 103.392 100.798 103.54 100.798 103.709V105.734H100.777ZM102.738 105.734H101.304V101.325C101.304 101.093 101.494 100.903 101.726 100.903H102.316C102.548 100.903 102.738 101.093 102.738 101.325V105.734Z" fill="#F7F7F7"/>
<path d="M95.9248 105.734H103.898V106.409H95.9248V105.734Z" fill="#161616"/>
<path d="M30.577 166.863C30.1973 165.893 29.7332 164.944 29.1426 164.079C28.784 163.552 28.7629 162.855 29.0582 162.307L30.366 159.945L27.2863 157.329L25.1769 159.016C24.6707 159.417 23.9957 159.502 23.4051 159.227C22.4559 158.805 21.4434 158.468 20.4309 158.278C19.798 158.152 19.2918 157.687 19.123 157.076L18.3848 154.502L14.3559 154.84L14.0395 157.519C13.9762 158.152 13.5332 158.7 12.9426 158.932C11.9723 159.312 11.023 159.776 10.1582 160.366C9.63086 160.725 8.93477 160.746 8.38633 160.451L6.02383 159.143L3.4082 162.223L5.0957 164.332C5.49648 164.838 5.58086 165.513 5.30664 166.104C4.88477 167.053 4.54727 168.066 4.35742 169.078C4.23086 169.711 3.76679 170.217 3.15508 170.386L0.560547 171.124L0.898048 175.153L3.57695 175.469C4.20976 175.533 4.7582 175.976 4.99023 176.566C5.36992 177.537 5.83398 178.486 6.42461 179.351C6.7832 179.878 6.80429 180.574 6.50898 181.123L5.20117 183.485L8.28086 186.101L10.3902 184.413C10.8965 184.012 11.5715 183.928 12.1621 184.202C13.1113 184.624 14.1238 184.962 15.1363 185.152C15.7691 185.278 16.2754 185.742 16.4441 186.354L17.1824 188.948L21.2113 188.611L21.5277 185.932C21.591 185.299 22.034 184.751 22.6246 184.519C23.5949 184.139 24.5441 183.675 25.409 183.084C25.9363 182.726 26.6324 182.705 27.1809 183L29.5434 184.308L32.159 181.228L30.4715 179.119C30.0707 178.612 29.9863 177.937 30.2606 177.347C30.6824 176.398 31.0199 175.385 31.2098 174.373C31.3363 173.74 31.8004 173.234 32.4121 173.065L35.0066 172.327L34.6691 168.298L31.9902 167.981C31.3574 167.897 30.809 167.454 30.577 166.863ZM18.6379 181.945C12.9848 182.409 8.02774 178.212 7.54258 172.559C7.07852 166.905 11.2762 161.948 16.9293 161.463C22.5824 160.999 27.5394 165.197 28.0246 170.85C28.4887 176.503 24.291 181.46 18.6379 181.945Z" fill="#74B9FF"/>
<path d="M10.9589 172.284C10.6425 168.509 13.448 165.197 17.2027 164.88C20.9784 164.564 24.2902 167.369 24.6066 171.124C24.923 174.9 22.1175 178.212 18.3628 178.528C14.587 178.844 11.2753 176.06 10.9589 172.284Z" fill="#74B9FF"/>
<path d="M63.4193 139.104C62.4068 138.197 61.31 137.395 60.1076 136.741C59.3693 136.341 58.9475 135.56 58.9686 134.738L59.074 131.236L53.9693 130.055L52.535 133.24C52.1975 133.999 51.4592 134.505 50.6154 134.548C49.2654 134.611 47.9154 134.843 46.6076 135.223C45.8061 135.455 44.9412 135.223 44.3717 134.611L41.9881 132.059L37.5373 134.822L38.7607 138.113C39.0561 138.893 38.8873 139.779 38.3178 140.391C37.4107 141.403 36.6092 142.5 35.9553 143.702C35.5545 144.441 34.774 144.862 33.9514 144.841L30.4498 144.736L29.2686 149.841L32.4537 151.275C33.2131 151.612 33.7193 152.351 33.7615 153.195C33.8248 154.545 34.0568 155.895 34.4154 157.202C34.6475 158.004 34.4154 158.869 33.8037 159.438L31.2514 161.822L34.0146 166.273L37.3053 165.028C38.0857 164.733 38.9506 164.902 39.5834 165.471C40.5959 166.378 41.6928 167.18 42.8951 167.834C43.6334 168.234 44.0764 169.015 44.0342 169.837L43.9287 173.339L49.0334 174.52L50.4678 171.335C50.8053 170.576 51.5435 170.07 52.3873 170.027C53.7373 169.964 55.0873 169.732 56.3951 169.373C57.1967 169.141 58.0615 169.373 58.6311 169.985L61.0146 172.538L65.4654 169.774L64.242 166.484C63.9467 165.703 64.1154 164.817 64.685 164.205C65.592 163.193 66.3936 162.096 67.0475 160.894C67.4482 160.155 68.2287 159.734 69.0514 159.755L72.5529 159.86L73.7342 154.755L70.549 153.321C69.7896 152.984 69.2834 152.245 69.2412 151.402C69.1779 150.052 68.9459 148.702 68.5873 147.394C68.3553 146.592 68.5873 145.727 69.199 145.158L71.7514 142.774L68.9881 138.323L65.6975 139.547C64.917 139.821 64.0521 139.652 63.4193 139.104ZM58.5678 163.594C52.324 167.496 44.0975 165.577 40.1951 159.333C36.2928 153.089 38.2123 144.863 44.4561 140.96C50.6998 137.058 58.9264 138.977 62.8287 145.221C66.71 151.486 64.8115 159.691 58.5678 163.594Z" fill="#003087"/>
<path d="M43.9714 156.97C41.3768 152.815 42.6425 147.33 46.819 144.736C50.9956 142.141 56.4589 143.407 59.0534 147.584C61.6479 151.739 60.3823 157.223 56.2057 159.818C52.0503 162.412 46.5659 161.147 43.9714 156.97Z" fill="#003087"/>
<path d="M211.013 40.9124C210.19 41.9671 209.515 43.1062 208.967 44.3296C208.629 45.0679 207.912 45.5742 207.089 45.6164L203.651 45.7851L202.892 50.8687L206.119 52.0289C206.878 52.3031 207.427 52.9992 207.532 53.8007C207.701 55.1296 208.017 56.4164 208.503 57.6609C208.798 58.4203 208.629 59.2851 208.081 59.8968L205.781 62.4281L208.84 66.5625L211.962 65.107C212.7 64.7695 213.565 64.8539 214.219 65.3601C215.274 66.1828 216.413 66.8578 217.636 67.4062C218.374 67.7437 218.881 68.4609 218.923 69.2835L219.092 72.7218L224.175 73.4812L225.335 70.2539C225.61 69.4945 226.306 68.946 227.107 68.8406C228.436 68.6718 229.723 68.3554 230.967 67.8703C231.727 67.575 232.592 67.7437 233.203 68.2921L235.735 70.6125L239.869 67.5539L238.413 64.432C238.076 63.6937 238.16 62.8289 238.667 62.175C239.489 61.1203 240.164 59.9812 240.713 58.7578C241.05 58.0195 241.767 57.5132 242.59 57.471L246.028 57.3023L246.788 52.2187L243.56 51.0585C242.801 50.7843 242.253 50.0882 242.147 49.2867C241.978 47.9578 241.662 46.671 241.177 45.4265C240.881 44.6671 241.05 43.8023 241.599 43.1906L243.919 40.6593L240.86 36.525L237.738 37.9804C237 38.3179 236.135 38.2335 235.481 37.7273C234.427 36.9046 233.288 36.2296 232.064 35.6812C231.326 35.3437 230.82 34.6265 230.778 33.8039L230.609 30.3656L225.525 29.6062L224.365 32.8335C224.091 33.5929 223.395 34.1414 222.593 34.2468C221.264 34.4156 219.978 34.732 218.733 35.2171C217.974 35.5124 217.109 35.3437 216.497 34.7953L213.966 32.4749L209.831 35.5335L211.287 38.6554C211.603 39.3937 211.519 40.2585 211.013 40.9124ZM235.334 43.7601C239.616 49.5609 238.392 57.7664 232.592 62.0484C226.791 66.3304 218.585 65.107 214.303 59.3062C210.021 53.5054 211.245 45.2999 217.046 41.0179C222.867 36.7359 231.052 37.9593 235.334 43.7601Z" fill="#74B9FF"/>
<path d="M229.997 58.5469C226.116 61.4156 220.674 60.593 217.805 56.7117C214.936 52.8305 215.759 47.3883 219.64 44.5195C223.521 41.6508 228.964 42.4734 231.832 46.3547C234.701 50.2148 233.878 55.6781 229.997 58.5469Z" fill="#74B9FF"/>
<path d="M158.953 23.8687C158.637 25.5773 158.531 27.307 158.595 29.0367C158.637 30.0914 158.11 31.1039 157.181 31.6312L153.321 33.846L155.452 40.1742L159.881 39.6046C160.936 39.4781 161.97 39.9421 162.56 40.807C163.552 42.2414 164.691 43.5492 165.956 44.7093C166.737 45.4265 167.053 46.5234 166.779 47.5359L165.619 51.8179L171.588 54.7921L174.331 51.2695C174.985 50.4257 176.039 50.025 177.073 50.2148C178.781 50.5312 180.511 50.6578 182.241 50.5734C183.296 50.5312 184.308 51.0585 184.835 51.9867L187.05 55.8468L193.378 53.7164L192.809 49.2867C192.682 48.232 193.146 47.1984 194.011 46.6078C195.445 45.6374 196.753 44.4773 197.913 43.2117C198.631 42.4312 199.728 42.1148 200.74 42.389L205.043 43.5492L208.017 37.5585L204.474 34.8164C203.63 34.1624 203.229 33.1078 203.419 32.0742C203.735 30.3656 203.862 28.6359 203.778 26.9062C203.735 25.8515 204.284 24.839 205.191 24.3117L209.051 22.0968L206.921 15.7687L202.491 16.3382C201.436 16.4648 200.403 16.0007 199.812 15.1359C198.842 13.7015 197.681 12.3937 196.416 11.2335C195.635 10.5164 195.319 9.41948 195.593 8.40698L196.753 4.10386L190.805 1.12964L188.063 4.6523C187.409 5.49605 186.354 5.89683 185.32 5.70698C183.612 5.39058 181.882 5.26401 180.153 5.34839C179.098 5.39058 178.085 4.86323 177.558 3.93511L175.343 0.0749512L169.015 2.20542L169.585 6.63511C169.711 7.6898 169.247 8.72339 168.382 9.31401C166.948 10.2843 165.64 11.4445 164.48 12.7101C163.763 13.4906 162.666 13.807 161.653 13.5328L157.35 12.3726L154.376 18.3632L157.899 21.1054C158.763 21.7593 159.164 22.814 158.953 23.8687ZM188.759 12.7523C197.154 16.9289 200.571 27.1171 196.416 35.5125C192.239 43.9078 182.051 47.325 173.656 43.1695C165.26 38.9929 161.843 28.8046 165.999 20.4093C170.175 12.014 180.363 8.59683 188.759 12.7523Z" fill="#003087"/>
<path d="M191.332 33.0023C188.547 38.5922 181.755 40.8914 176.165 38.107C170.575 35.3226 168.276 28.5304 171.061 22.9406C173.845 17.3508 180.637 15.0515 186.227 17.8359C191.838 20.5992 194.116 27.3914 191.332 33.0023Z" fill="#003087"/>
</svg>
