<svg width="24" height="25" viewBox="0 0 24 25" fill="none" xmlns="http://www.w3.org/2000/svg">
<path d="M12.0004 22.2885C17.3023 22.2885 21.6004 17.9904 21.6004 12.6885C21.6004 7.38657 17.3023 3.0885 12.0004 3.0885C6.69846 3.0885 2.40039 7.38657 2.40039 12.6885C2.40039 17.9904 6.69846 22.2885 12.0004 22.2885Z" fill="#FF3737"/>
<path d="M19.9196 13.1685C19.6546 13.1685 19.4396 12.9534 19.4396 12.6885C19.4396 10.4934 18.4767 8.42079 16.7982 7.00239C16.5956 6.83151 16.5702 6.52863 16.7415 6.32607C16.9124 6.12351 17.2153 6.09807 17.4178 6.26895C19.3129 7.87023 20.3996 10.2102 20.3996 12.6885C20.3996 12.9534 20.1846 13.1685 19.9196 13.1685Z" fill="#FB6E6E"/>
<path d="M19.728 14.7045C19.9931 14.7045 20.208 14.4896 20.208 14.2245C20.208 13.9594 19.9931 13.7445 19.728 13.7445C19.463 13.7445 19.248 13.9594 19.248 14.2245C19.248 14.4896 19.463 14.7045 19.728 14.7045Z" fill="#FB6E6E"/>
<g clip-path="url(#clip0_62_2669)">
<path d="M13.4713 12.7377L16.2205 9.98848C16.6143 9.59473 16.6143 8.9584 16.2205 8.56465C15.8268 8.1709 15.1904 8.1709 14.7967 8.56465L12.0492 11.3139L9.21914 8.48379C8.82539 8.09004 8.18906 8.09004 7.79531 8.48379C7.40156 8.87754 7.40156 9.51387 7.79531 9.90762L10.6254 12.7377L7.89199 15.4711C7.49824 15.8648 7.49824 16.5012 7.89199 16.8949C8.08887 17.09 8.34551 17.1885 8.60391 17.1885C8.8623 17.1885 9.11895 17.09 9.31582 16.8932L12.0492 14.1598L14.7018 16.8123C14.8986 17.0092 15.1553 17.1076 15.4137 17.1076C15.6721 17.1076 15.9287 17.0092 16.1256 16.8123C16.5193 16.4186 16.5193 15.7822 16.1256 15.3885L13.4713 12.7377Z" fill="white"/>
</g>
<defs>
<clipPath id="clip0_62_2669">
<rect width="9" height="9" fill="white" transform="translate(7.5 8.18848)"/>
</clipPath>
</defs>
</svg>
