<svg width="111" height="133" viewBox="0 0 111 133" fill="none" xmlns="http://www.w3.org/2000/svg">
<path d="M108.536 125.891C110.897 100.518 106.2 75.0799 101.488 49.5601C100.662 45.0862 99.8357 40.6098 99.0466 36.1309L99.0464 36.1299C98.5613 33.3899 96.0627 31.4668 93.2417 31.4668H80.8662V25.2705C80.8662 19.0763 78.2374 13.1593 73.5891 8.80091L73.5888 8.80064C68.9448 4.4493 62.6533 2.0165 56.1112 2.0165C49.5687 2.0165 43.2834 4.44954 38.6369 8.80037C33.988 13.1535 31.3563 19.0764 31.3563 25.2705V31.4668H17.7601C14.9391 31.4668 12.4405 33.3899 11.9553 36.1299L11.9552 36.1309C11.1659 40.611 10.3391 45.0886 9.51286 49.5636C4.80099 75.0822 0.104225 100.519 2.46305 125.891L2.46318 125.892C2.74054 128.838 5.33813 130.984 8.32492 130.984H102.677C105.663 130.984 108.262 128.838 108.536 125.891ZM108.536 125.891L107.374 125.783M108.536 125.891C108.536 125.891 108.536 125.891 108.536 125.891L107.374 125.783M107.374 125.783C107.162 128.069 105.124 129.817 102.677 129.817H8.32492C5.87767 129.817 3.84025 128.069 3.62501 125.783L93.2417 32.6337C95.5503 32.6337 97.5199 34.2019 97.8973 36.3333C98.6899 40.8322 99.5185 45.3216 100.346 49.8027C105.057 75.329 109.719 100.585 107.374 125.783ZM43.1254 31.4668V25.2705C43.1254 22.091 44.4715 19.0274 46.9017 16.7519C49.3343 14.4741 52.6462 13.1853 56.1112 13.1853C59.5761 13.1853 62.891 14.4767 65.3208 16.7519C67.7485 19.0279 69.097 22.0918 69.097 25.2705V31.4668H43.1254Z" fill="#3167D3" stroke="white" stroke-width="2.33395"/>
</svg>
