<svg width="25" height="24" viewBox="0 0 25 24" fill="none" xmlns="http://www.w3.org/2000/svg">
<path d="M1.98112 3.77344H5.84127C5.61627 3.60234 5.38893 3.42891 5.16393 3.25781C5.27643 3.6 5.38893 3.94219 5.50143 4.28672C5.77331 5.10937 6.04284 5.93203 6.31471 6.75469C6.64049 7.74375 6.96862 8.73516 7.2944 9.72656C7.57799 10.5867 7.86159 11.4469 8.14284 12.307C8.28112 12.7242 8.41237 13.1437 8.55534 13.5586C8.55768 13.5656 8.56002 13.5703 8.56237 13.5773C8.67721 13.9266 9.05456 14.1891 9.42721 14.0695C9.77409 13.957 10.0413 13.5797 9.9194 13.2047C9.8069 12.8625 9.6944 12.5203 9.5819 12.1758C9.31002 11.3531 9.04049 10.5305 8.76862 9.70781C8.44284 8.71641 8.11706 7.725 7.78893 6.73359C7.50534 5.87344 7.22174 5.01328 6.94049 4.15312C6.80221 3.73594 6.67331 3.31641 6.52799 2.90156C6.52565 2.89453 6.52331 2.88984 6.52096 2.88281C6.42252 2.5875 6.16237 2.36719 5.84362 2.36719H1.98346C1.61549 2.36719 1.26393 2.69062 1.28034 3.07031C1.2944 3.45234 1.58737 3.77344 1.98112 3.77344Z" fill="#004080"/>
<path d="M8.63267 13.0335C8.25298 13.7108 7.87095 14.3858 7.49126 15.0632C7.43736 15.1616 7.38111 15.2577 7.3272 15.3562C7.06705 15.8179 7.39517 16.4132 7.93423 16.4132H18.6686C19.1631 16.4132 19.66 16.4226 20.1569 16.4132H20.178C20.546 16.4132 20.8975 16.0898 20.8811 15.7101C20.8647 15.328 20.5717 15.0069 20.178 15.0069H9.44361C8.94908 15.0069 8.44986 14.9929 7.95533 15.0069H7.93423C8.1358 15.3585 8.3397 15.7124 8.54127 16.064C8.92095 15.3866 9.30298 14.7116 9.68267 14.0343C9.73658 13.9358 9.79283 13.8398 9.84673 13.7413C10.0272 13.4202 9.93345 12.9585 9.59361 12.7804C9.2608 12.6069 8.82486 12.6913 8.63267 13.0335Z" fill="#004080"/>
<path d="M17.996 20.9295C18.8775 20.9295 19.5921 20.2149 19.5921 19.3334C19.5921 18.4519 18.8775 17.7373 17.996 17.7373C17.1145 17.7373 16.3999 18.4519 16.3999 19.3334C16.3999 20.2149 17.1145 20.9295 17.996 20.9295Z" fill="#004080"/>
<path d="M15.9312 19.3337C15.9405 20.2126 16.4913 20.9719 17.3093 21.279C18.0827 21.5696 19.0343 21.3165 19.5616 20.679C20.1218 19.9993 20.2343 19.0313 19.7679 18.2673C19.3085 17.5126 18.4273 17.1446 17.5671 17.3133C16.6179 17.4985 15.9405 18.3821 15.9312 19.3337C15.9288 19.5798 16.1491 19.8141 16.3999 19.8024C16.6554 19.7907 16.8663 19.5962 16.8687 19.3337C16.8687 19.2962 16.871 19.2563 16.8734 19.2188C16.8734 19.2024 16.8757 19.186 16.878 19.1696C16.8851 19.0758 16.8757 19.2001 16.8734 19.1977C16.857 19.1883 16.9226 18.9868 16.9296 18.968C16.9366 18.9493 16.9507 18.8696 16.9671 18.8649C16.9718 18.8626 16.9249 18.9516 16.9507 18.9048C16.9601 18.886 16.9695 18.8673 16.9765 18.8485C17.0116 18.7782 17.0538 18.7149 17.096 18.6493C17.1405 18.5813 17.0327 18.7219 17.1077 18.6352C17.1312 18.6094 17.1546 18.5813 17.1804 18.5555C17.2062 18.5298 17.232 18.504 17.2577 18.4805C17.2695 18.4712 17.2812 18.4594 17.2929 18.4501C17.3093 18.436 17.3773 18.4032 17.3163 18.429C17.2648 18.4501 17.3023 18.4407 17.3187 18.429C17.3351 18.4173 17.3515 18.4055 17.3702 18.3938C17.396 18.3774 17.4218 18.361 17.4499 18.3469C17.4851 18.3258 17.5226 18.3094 17.5601 18.2907C17.5718 18.2837 17.621 18.2602 17.5601 18.2883C17.4898 18.3212 17.5835 18.2813 17.5905 18.279C17.6538 18.2555 17.7218 18.2368 17.7874 18.2227C17.8085 18.218 17.8296 18.2157 17.8507 18.211C17.9023 18.1993 17.8062 18.2157 17.8062 18.2157C17.8484 18.2157 17.8929 18.2063 17.9351 18.2063C18.0124 18.204 18.0874 18.2063 18.1648 18.2133C18.2515 18.2204 18.0757 18.1969 18.1835 18.218C18.2257 18.2251 18.2655 18.2368 18.3077 18.2462C18.3429 18.2555 18.378 18.2673 18.4132 18.279C18.4226 18.2813 18.4695 18.2977 18.4718 18.3001C18.4741 18.3071 18.3851 18.2555 18.432 18.2837C18.4976 18.3235 18.5702 18.354 18.6359 18.3962C18.6523 18.4079 18.6687 18.4196 18.6874 18.4313C18.7038 18.443 18.739 18.4524 18.6898 18.4313C18.6429 18.4126 18.6734 18.4173 18.6898 18.4337C18.7062 18.4477 18.7202 18.4594 18.7366 18.4735C18.7952 18.5251 18.8445 18.5813 18.896 18.6376C18.9663 18.7149 18.8632 18.5837 18.9077 18.6516C18.9265 18.6821 18.9476 18.7102 18.9663 18.7407C18.9851 18.7712 19.0038 18.804 19.0202 18.8344L19.0413 18.8766C19.0859 18.961 19.0507 18.8696 19.039 18.8649C19.0671 18.8743 19.0976 19.043 19.107 19.0735C19.114 19.104 19.121 19.1368 19.128 19.1673C19.1468 19.2563 19.1257 19.1391 19.1257 19.1368C19.1374 19.1485 19.1327 19.2024 19.1327 19.2165C19.1374 19.2868 19.1374 19.3594 19.1327 19.4298C19.1304 19.4508 19.128 19.4719 19.128 19.4954C19.1257 19.5423 19.0999 19.5352 19.1327 19.4673C19.1163 19.5024 19.1163 19.554 19.107 19.5915C19.0905 19.6571 19.0648 19.7204 19.046 19.786C19.0273 19.8446 19.0882 19.7063 19.0577 19.7602C19.0507 19.7719 19.0437 19.7883 19.039 19.8024C19.0202 19.8399 19.0015 19.8751 18.9804 19.9102C18.9616 19.9407 18.9429 19.9712 18.9218 20.0016C18.8585 20.0977 18.9663 19.9548 18.9124 20.018C18.8609 20.0766 18.8116 20.1329 18.753 20.1844C18.7437 20.1938 18.6874 20.2548 18.671 20.2548C18.671 20.2548 18.7671 20.1891 18.6921 20.236C18.678 20.2454 18.6663 20.2524 18.6546 20.2618C18.589 20.304 18.521 20.3391 18.453 20.3743C18.3804 20.4118 18.5374 20.3462 18.4366 20.3813C18.4015 20.393 18.3687 20.4048 18.3335 20.4165C18.2984 20.4258 18.2632 20.4352 18.2257 20.4446C18.2093 20.4469 18.1952 20.4516 18.1788 20.454C18.0757 20.4774 18.2538 20.4493 18.1929 20.454C18.1155 20.461 18.0405 20.4657 17.9632 20.4633C17.9257 20.4633 17.8882 20.4587 17.8484 20.4563C17.8343 20.4563 17.778 20.4493 17.846 20.4563C17.9234 20.4633 17.8296 20.4516 17.8132 20.4493C17.7312 20.4329 17.6515 20.4071 17.5718 20.379C17.5577 20.3743 17.5109 20.3508 17.5695 20.379C17.6374 20.4118 17.5554 20.3719 17.5413 20.3649C17.5038 20.3462 17.4687 20.3274 17.4335 20.3063C17.3984 20.2852 17.3655 20.2618 17.3304 20.2383C17.2741 20.2032 17.3374 20.2571 17.3515 20.2571C17.3421 20.2571 17.3116 20.2243 17.3046 20.2173C17.2437 20.1633 17.1851 20.1071 17.1312 20.0438C17.1312 20.0438 17.0913 20.004 17.0913 19.9969C17.0913 20.0063 17.1476 20.0766 17.1101 20.018C17.0866 19.9829 17.0632 19.9501 17.0421 19.9149C17.0187 19.8751 16.9976 19.8329 16.9765 19.793C16.9273 19.6969 16.9999 19.868 16.9624 19.7626C16.9343 19.6829 16.9109 19.6032 16.8945 19.5188C16.8921 19.5048 16.8921 19.4837 16.8851 19.4719C16.9202 19.5493 16.8921 19.5376 16.8874 19.4837C16.8827 19.4344 16.8804 19.3852 16.8804 19.336C16.878 19.0899 16.6671 18.8555 16.4116 18.8673C16.1491 18.8743 15.9288 19.0712 15.9312 19.3337Z" fill="#004080"/>
<path d="M9.91738 20.9295C10.7989 20.9295 11.5135 20.2149 11.5135 19.3334C11.5135 18.4519 10.7989 17.7373 9.91738 17.7373C9.03588 17.7373 8.32129 18.4519 8.32129 19.3334C8.32129 20.2149 9.03588 20.9295 9.91738 20.9295Z" fill="#004080"/>
<path d="M7.85254 19.3336C7.86191 20.2125 8.41269 20.9719 9.23066 21.2789C10.0041 21.5695 10.9557 21.3164 11.483 20.6789C12.0432 19.9992 12.1557 19.0313 11.6893 18.2672C11.2299 17.5125 10.3486 17.1445 9.48848 17.3133C8.53691 17.4984 7.86191 18.382 7.85254 19.3336C7.8502 19.5797 8.07051 19.8141 8.32129 19.8023C8.57676 19.7906 8.7877 19.5961 8.79004 19.3336C8.79004 19.2961 8.79238 19.2563 8.79473 19.2188C8.79473 19.2023 8.79707 19.1859 8.79941 19.1695C8.80645 19.0758 8.79707 19.2 8.79473 19.1977C8.77832 19.1883 8.84394 18.9867 8.85098 18.968C8.85801 18.9492 8.87207 18.8695 8.88848 18.8648C8.89316 18.8625 8.84629 18.9516 8.87207 18.9047C8.88145 18.8859 8.89082 18.8672 8.89785 18.8484C8.93301 18.7781 8.97519 18.7148 9.01738 18.6492C9.06191 18.5813 8.9541 18.7219 9.0291 18.6352C9.05254 18.6094 9.07598 18.5813 9.10176 18.5555C9.12754 18.5297 9.15332 18.5039 9.1791 18.4805C9.19082 18.4711 9.20254 18.4594 9.21426 18.45C9.23066 18.4359 9.29863 18.4031 9.23769 18.4289C9.18613 18.45 9.22363 18.4406 9.24004 18.4289C9.25644 18.4172 9.27285 18.4055 9.2916 18.3937C9.31738 18.3773 9.34316 18.3609 9.37129 18.3469C9.40644 18.3258 9.44395 18.3094 9.48145 18.2906C9.49316 18.2836 9.54238 18.2602 9.48145 18.2883C9.41113 18.3211 9.50488 18.2813 9.51191 18.2789C9.57519 18.2555 9.64316 18.2367 9.70879 18.2227C9.72988 18.218 9.75098 18.2156 9.77207 18.2109C9.82363 18.1992 9.72754 18.2156 9.72754 18.2156C9.76973 18.2156 9.81426 18.2062 9.85645 18.2062C9.93379 18.2039 10.0088 18.2062 10.0861 18.2133C10.1729 18.2203 9.99707 18.1969 10.1049 18.218C10.1471 18.225 10.1869 18.2367 10.2291 18.2461C10.2643 18.2555 10.2994 18.2672 10.3346 18.2789C10.3439 18.2813 10.3908 18.2977 10.3932 18.3C10.3955 18.307 10.3064 18.2555 10.3533 18.2836C10.4189 18.3234 10.4916 18.3539 10.5572 18.3961C10.5736 18.4078 10.59 18.4195 10.6088 18.4313C10.6252 18.443 10.6604 18.4523 10.6111 18.4313C10.5643 18.4125 10.5947 18.4172 10.6111 18.4336C10.6275 18.4477 10.6416 18.4594 10.658 18.4734C10.7166 18.525 10.7658 18.5813 10.8174 18.6375C10.8877 18.7148 10.7846 18.5836 10.8291 18.6516C10.8479 18.682 10.8689 18.7102 10.8877 18.7406C10.9064 18.7711 10.9252 18.8039 10.9416 18.8344L10.9627 18.8766C11.0072 18.9609 10.9721 18.8695 10.9604 18.8648C10.9885 18.8742 11.0189 19.043 11.0283 19.0734C11.0354 19.1039 11.0424 19.1367 11.0494 19.1672C11.0682 19.2562 11.0471 19.1391 11.0471 19.1367C11.0588 19.1484 11.0541 19.2023 11.0541 19.2164C11.0588 19.2867 11.0588 19.3594 11.0541 19.4297C11.0518 19.4508 11.0494 19.4719 11.0494 19.4953C11.0471 19.5422 11.0213 19.5352 11.0541 19.4672C11.0377 19.5023 11.0377 19.5539 11.0283 19.5914C11.0119 19.657 10.9861 19.7203 10.9674 19.7859C10.9486 19.8445 11.0096 19.7062 10.9791 19.7602C10.9721 19.7719 10.965 19.7883 10.9604 19.8023C10.9416 19.8398 10.9229 19.875 10.9018 19.9102C10.883 19.9406 10.8643 19.9711 10.8432 20.0016C10.7799 20.0977 10.8877 19.9547 10.8338 20.018C10.7822 20.0766 10.733 20.1328 10.6744 20.1844C10.665 20.1938 10.6088 20.2547 10.5924 20.2547C10.5924 20.2547 10.6885 20.1891 10.6135 20.2359C10.5994 20.2453 10.5877 20.2523 10.576 20.2617C10.5104 20.3039 10.4424 20.3391 10.3744 20.3742C10.3018 20.4117 10.4588 20.3461 10.358 20.3812C10.3229 20.393 10.29 20.4047 10.2549 20.4164C10.2197 20.4258 10.1846 20.4352 10.1471 20.4445C10.1307 20.4469 10.1166 20.4516 10.1002 20.4539C9.99707 20.4773 10.1752 20.4492 10.1143 20.4539C10.0369 20.4609 9.96191 20.4656 9.88457 20.4633C9.84707 20.4633 9.80957 20.4586 9.76973 20.4562C9.75566 20.4562 9.69941 20.4492 9.76738 20.4562C9.84473 20.4633 9.75098 20.4516 9.73457 20.4492C9.65254 20.4328 9.57285 20.407 9.49316 20.3789C9.4791 20.3742 9.43223 20.3508 9.49082 20.3789C9.55879 20.4117 9.47676 20.3719 9.46269 20.3648C9.42519 20.3461 9.39004 20.3273 9.35488 20.3063C9.31973 20.2852 9.28691 20.2617 9.25176 20.2383C9.19551 20.2031 9.25879 20.257 9.27285 20.257C9.26348 20.257 9.23301 20.2242 9.22598 20.2172C9.16504 20.1633 9.10644 20.107 9.05254 20.0438C9.05254 20.0438 9.0127 20.0039 9.0127 19.9969C9.0127 20.0063 9.06894 20.0766 9.03144 20.018C9.00801 19.9828 8.98457 19.95 8.96348 19.9148C8.94004 19.875 8.91894 19.8328 8.89785 19.793C8.84863 19.6969 8.92129 19.868 8.88379 19.7625C8.85566 19.6828 8.83223 19.6031 8.81582 19.5187C8.81348 19.5047 8.81348 19.4836 8.80644 19.4719C8.8416 19.5492 8.81348 19.5375 8.80879 19.4836C8.8041 19.4344 8.80176 19.3852 8.80176 19.3359C8.79941 19.0898 8.58848 18.8555 8.33301 18.8672C8.06816 18.8742 7.84785 19.0711 7.85254 19.3336ZM23.0189 6.04688L20.1736 13.3828H9.24004L6.82129 6.04688H23.0189Z" fill="#004080"/>
<path d="M22.5664 5.91781C22.2453 6.74515 21.9265 7.57249 21.6054 8.39984C21.0945 9.71937 20.5836 11.0366 20.075 12.3561C19.9578 12.6584 19.8406 12.9631 19.7234 13.2655C19.8734 13.1506 20.0258 13.0358 20.1758 12.9209H10.5875C10.1469 12.9209 9.70154 12.9022 9.25857 12.9209H9.23982C9.38982 13.0358 9.54217 13.1506 9.69217 13.2655C9.41795 12.4334 9.14607 11.6037 8.87185 10.7717C8.43826 9.45687 8.00467 8.14203 7.57342 6.82484C7.47264 6.52249 7.3742 6.22015 7.27342 5.91546C7.12342 6.11234 6.97107 6.31156 6.82107 6.50843H22.3625C22.5734 6.50843 22.7844 6.51312 22.9929 6.50843H23.0211C23.2672 6.50843 23.5015 6.29281 23.4898 6.03968C23.4781 5.78656 23.2836 5.57093 23.0211 5.57093H7.47967C7.26873 5.57093 7.05779 5.56624 6.8492 5.57093H6.82107C6.5281 5.57093 6.27264 5.87327 6.36873 6.1639C6.64295 6.99593 6.91482 7.82562 7.18904 8.65765C7.62264 9.97249 8.05623 11.2873 8.48748 12.6045C8.58826 12.9069 8.6867 13.2092 8.78748 13.5139C8.8531 13.7108 9.02654 13.8584 9.23982 13.8584H18.8281C19.2687 13.8584 19.714 13.8748 20.157 13.8584H20.1758C20.3984 13.8584 20.5531 13.7084 20.6281 13.5139C20.9492 12.6866 21.2679 11.8592 21.589 11.0319C22.1 9.71234 22.6109 8.39515 23.1195 7.07562C23.2367 6.77327 23.3539 6.46859 23.4711 6.16624C23.5601 5.93656 23.3726 5.64124 23.1429 5.58968C22.8734 5.52874 22.6601 5.67171 22.5664 5.91781Z" fill="#004080"/>
</svg>
