<svg width="24" height="25" viewBox="0 0 24 25" fill="none" xmlns="http://www.w3.org/2000/svg">
<path d="M12.0004 22.2885C17.3023 22.2885 21.6004 17.9904 21.6004 12.6885C21.6004 7.38657 17.3023 3.0885 12.0004 3.0885C6.69846 3.0885 2.40039 7.38657 2.40039 12.6885C2.40039 17.9904 6.69846 22.2885 12.0004 22.2885Z" fill="#21D297"/>
<path d="M10.7283 17.4078C10.4825 17.4078 10.2368 17.3142 10.0496 17.1266L6.41788 13.4949C6.043 13.12 6.043 12.5123 6.41788 12.1374C6.79276 11.7626 7.40044 11.7626 7.77532 12.1374L10.7283 15.0904L16.2243 9.59488C16.5992 9.22 17.2068 9.22 17.5817 9.59488C17.9566 9.96976 17.9566 10.5774 17.5817 10.9523L11.407 17.1266C11.2198 17.3142 10.974 17.4078 10.7283 17.4078Z" fill="white"/>
<path d="M19.9196 13.1685C19.6546 13.1685 19.4396 12.9534 19.4396 12.6885C19.4396 10.4934 18.4767 8.42079 16.7982 7.00239C16.5956 6.83151 16.5702 6.52863 16.7415 6.32607C16.9124 6.12351 17.2153 6.09807 17.4178 6.26895C19.3129 7.87023 20.3996 10.2102 20.3996 12.6885C20.3996 12.9534 20.1846 13.1685 19.9196 13.1685Z" fill="#3EEDAE"/>
<path d="M19.728 14.7045C19.9931 14.7045 20.208 14.4896 20.208 14.2245C20.208 13.9594 19.9931 13.7445 19.728 13.7445C19.463 13.7445 19.248 13.9594 19.248 14.2245C19.248 14.4896 19.463 14.7045 19.728 14.7045Z" fill="#3EEDAE"/>
</svg>
