<svg width="24" height="24" viewBox="0 0 24 24" fill="none" xmlns="http://www.w3.org/2000/svg">
<path d="M23.9908 11.7608C23.975 11.2436 23.5577 10.8387 23.0405 10.8387C22.7045 10.8387 22.3987 11.0152 22.223 11.3102C20.7524 13.7741 17.9583 15.0735 15.1027 14.6179C11.7028 14.0772 9.26721 11.1422 9.31173 7.63935C9.34618 4.91342 10.7165 2.7031 13.0704 1.57471C13.3596 1.43613 13.5392 1.15432 13.5392 0.839226C13.5392 0.408774 13.2005 0.0507097 12.7681 0.024C12.5161 0.00851613 12.2684 0 12.021 0C8.71057 0 5.51276 1.38697 3.24669 3.80516C0.954694 6.25161 -0.186855 9.44671 0.0318551 12.8021C0.424758 18.8179 5.25534 23.6226 11.2689 23.9783C11.5159 23.993 11.7617 24 12.0071 24C15.0802 24 17.975 22.8554 20.2244 20.7352C22.6553 18.4436 23.9947 15.3414 23.9947 12C23.9947 11.9203 23.9931 11.8401 23.9908 11.7608ZM19.6929 20.172C17.421 22.3134 14.4442 23.3892 11.3146 23.2053C5.69005 22.8724 1.17186 18.3782 0.8045 12.7517C0.599726 9.61239 1.66734 6.62284 3.81147 4.33432C5.9316 2.07213 8.92386 0.774194 12.021 0.774194C12.2525 0.774194 12.4844 0.782323 12.7201 0.797032C12.7457 0.798581 12.765 0.816774 12.765 0.839226C12.765 0.856645 12.7499 0.870194 12.736 0.876774C10.1451 2.11858 8.57586 4.64284 8.53792 7.62968C8.48876 11.52 11.1984 14.7809 14.9815 15.3828C18.1507 15.8872 21.254 14.4441 22.8884 11.7066V11.7062C22.9778 11.5564 23.2128 11.6292 23.2174 11.7836C23.2193 11.8556 23.2209 11.9276 23.2209 11.9996C23.2205 15.1258 21.9675 18.0283 19.6929 20.172Z" fill="black"/>
<path d="M17.0232 0H16.249V1.16129H17.0232V0Z" fill="black"/>
<path d="M18.1842 1.16125H17.0229V1.93545H18.1842V1.16125Z" fill="black"/>
<path d="M17.0232 1.93542H16.249V3.09672H17.0232V1.93542Z" fill="black"/>
<path d="M16.2487 1.16125H15.0874V1.93545H16.2487V1.16125Z" fill="black"/>
<path d="M20.1199 5.41931H19.3457V6.5806H20.1199V5.41931Z" fill="black"/>
<path d="M21.2809 6.58069H20.1196V7.35488H21.2809V6.58069Z" fill="black"/>
<path d="M20.1199 7.35486H19.3457V8.51615H20.1199V7.35486Z" fill="black"/>
<path d="M19.3459 6.58069H18.1846V7.35488H19.3459V6.58069Z" fill="black"/>
<path d="M14.7005 5.03223H13.9263V5.80642H14.7005V5.03223Z" fill="black"/>
<path d="M15.4749 5.8064H14.7007V6.58059H15.4749V5.8064Z" fill="black"/>
<path d="M14.7005 6.58069H13.9263V7.35488H14.7005V6.58069Z" fill="black"/>
<path d="M13.9265 5.8064H13.1523V6.58059H13.9265V5.8064Z" fill="black"/>
</svg>
