<svg width="74" height="48" viewBox="0 0 74 48" fill="none" xmlns="http://www.w3.org/2000/svg">
<rect x="0.5" y="0.5" width="73" height="47" rx="9.5" stroke="#262626"/>
<path d="M20.2192 9.36322C19.9166 10.1501 18.6909 13.9633 18.6909 14.0995C18.6909 14.1903 19.614 14.2356 21.1574 14.2054L23.6239 14.16L24.4107 11.7086C24.8495 10.3619 25.1976 9.21191 25.1976 9.13625C25.1976 9.07572 24.1081 9.03032 22.7765 9.03032C20.4008 9.03032 20.3403 9.03032 20.2192 9.36322Z" fill="#512771"/>
<path d="M26.4083 9.12107C26.4083 9.1816 27.6189 11.3303 29.0866 13.9027L31.765 18.5935L31.2353 19.0475C30.9478 19.2896 30.282 19.8797 29.7524 20.3488C28.7083 21.2719 28.7386 21.2567 27.3162 22.4975C26.7866 22.9515 26.2873 23.3903 26.1965 23.4811C25.6366 23.9805 24.532 24.9489 23.6846 25.6752C23.155 26.1292 22.353 26.8404 21.8991 27.264C21.4451 27.6726 21.0214 28.0358 20.9458 28.066C20.8701 28.0963 20.8096 28.1871 20.8096 28.2627C20.8096 28.3384 21.8991 28.3989 23.3063 28.3989H25.8182L27.2103 27.143C27.982 26.4621 29.1169 25.4634 29.7373 24.9186C30.3577 24.3739 31.0992 23.7232 31.3867 23.4811C31.6742 23.2239 32.2946 22.6791 32.7637 22.2706C33.2327 21.8469 33.8531 21.3021 34.1406 21.06C36.1229 19.3199 36.8492 18.6541 36.8492 18.5482C36.8492 18.4876 35.8051 16.6113 34.5189 14.3718C33.2479 12.1474 32.0676 10.0744 31.9163 9.78687C31.7498 9.49936 31.5682 9.21186 31.4775 9.15133C31.2959 9.01515 26.4083 8.98488 26.4083 9.12107Z" fill="#F38273"/>
<path d="M33.8229 9.1816C33.8229 9.31778 35.1242 11.6632 36.1683 13.4185C36.4407 13.8724 37.1973 15.1738 37.8328 16.2935C38.4683 17.4133 39.0282 18.3817 39.0585 18.4422C39.1039 18.5028 38.9071 18.7449 38.6348 18.987C37.8025 19.7284 33.6716 23.3903 32.5367 24.3739C31.9617 24.8732 31.1446 25.5996 30.7209 25.9778C30.2972 26.3561 29.5557 26.9917 29.0866 27.4154C28.6175 27.8239 28.2241 28.2173 28.2241 28.2779C28.2241 28.3384 29.3741 28.3989 30.7814 28.3989C32.9452 28.3989 33.3689 28.3687 33.5354 28.1568C33.6413 28.0206 34.4584 27.2943 35.336 26.5377C36.9703 25.1153 37.394 24.737 38.7256 23.5265C39.1492 23.1482 39.5124 22.8456 39.5275 22.8607C39.5578 22.891 38.0446 27.5818 37.8328 28.1266C37.7269 28.3838 37.9084 28.3989 40.2236 28.3989H42.7355L43.5072 25.9778L44.294 23.5568H49C54.4777 23.5568 55.1435 23.466 57.2014 22.437C60.1673 20.9541 62.089 18.5935 62.8002 15.5672C63.5114 12.6316 62.3008 10.3619 59.5771 9.45397C58.6238 9.1362 58.2607 9.12107 52.9948 9.06054L47.4263 9.00002L44.9598 11.5573L42.4782 14.0994L49.6204 14.1751C54.9922 14.2356 56.8231 14.2961 57.0804 14.4474C58.4422 15.2192 57.5646 17.5797 55.6429 18.3212C55.0981 18.533 54.2659 18.5633 49.6658 18.5633H44.3394L41.6157 13.7968L38.892 9.03028H36.365C34.8518 9.03028 33.8229 9.09081 33.8229 9.1816Z" fill="#7E569D"/>
<path d="M16.4967 20.6363C15.6948 23.1179 14.802 25.8114 14.5145 26.6285C14.227 27.4608 14 28.1871 14 28.2627C14 28.3384 15.1046 28.3989 16.4665 28.3989H18.933L20.8698 22.4521C21.9442 19.1988 22.8521 16.4297 22.8975 16.3238C22.9429 16.1876 22.3981 16.1422 20.4613 16.1422H17.9494L16.4967 20.6363Z" fill="#512771"/>
<path d="M16.0428 33.2714C16.0125 33.3773 15.5434 34.8451 14.9987 36.5398C14.454 38.2194 14 39.6721 14 39.7477C14 39.8234 14.3934 39.8688 14.8625 39.8537L15.725 39.8234L16.754 36.6457C17.3139 34.8905 17.7829 33.3773 17.7829 33.2714C17.7829 33.1503 17.5106 33.0898 16.9507 33.0898C16.4059 33.0898 16.0882 33.1503 16.0428 33.2714Z" fill="#522872"/>
<path d="M18.8871 33.2715C18.7055 33.3623 18.4483 33.7103 18.3121 34.0583C17.7219 35.6471 16.466 39.6873 16.5265 39.7781C16.5568 39.8538 16.9502 39.8992 17.389 39.8992H18.191L18.766 38.0834L19.3562 36.2827L20.491 38.0228C21.6865 39.8689 22.0194 40.1261 22.6852 39.7025C22.9575 39.5209 23.245 38.8097 24.047 36.3735C24.5918 34.6636 25.0457 33.2261 25.0457 33.1655C25.0457 33.1201 24.6523 33.0899 24.1832 33.1201L23.3056 33.1655L22.8365 34.6031C22.5641 35.3899 22.322 36.1768 22.2615 36.3432C22.2009 36.5853 21.9588 36.3129 21.0509 34.9662C19.7799 33.0747 19.5983 32.9234 18.8871 33.2715Z" fill="#522872"/>
<path d="M26.5141 33.3017C25.5457 33.6497 24.9404 34.2247 24.6681 35.0569C24.4562 35.7076 24.4411 35.9043 24.5924 36.2826C24.9102 37.0241 25.4095 37.1754 27.4523 37.1754C29.2832 37.1754 29.6313 37.2813 29.2832 37.705C29.1319 37.8866 28.6477 37.932 26.953 37.932H24.8042L23.9115 38.8399C23.2003 39.5662 23.0792 39.7478 23.2759 39.8386C23.7602 40.0202 28.7234 39.8234 29.2076 39.5965C30.8418 38.8247 31.7649 36.9787 30.978 36.0254C30.5241 35.4655 30.1155 35.3596 28.2997 35.3596C26.953 35.3596 26.5444 35.3142 26.5898 35.1629C26.6352 35.0418 27.2405 34.9661 28.7234 34.9359L30.7964 34.8905L31.5076 34.1339C31.9162 33.7102 32.2642 33.3017 32.2793 33.226C32.3701 32.999 27.1799 33.0747 26.5141 33.3017Z" fill="#522872"/>
<path d="M31.9011 33.9524C31.4623 34.4215 31.0991 34.83 31.0991 34.8452C31.0991 34.8754 31.5682 34.9057 32.1281 34.936L33.1722 34.9813L32.4458 37.1755C32.0373 38.386 31.7195 39.4906 31.7044 39.6268C31.7044 39.8538 31.8406 39.8992 32.5215 39.8992H33.3386L34.1557 37.4327L34.988 34.9813L35.8051 34.936C36.5617 34.8906 36.6827 34.83 37.4242 34.1037C37.8479 33.68 38.211 33.2715 38.211 33.2109C38.211 33.1504 36.9702 33.0899 35.4571 33.0899H32.688L31.9011 33.9524Z" fill="#522872"/>
<path d="M39.6636 33.3169C39.4215 33.453 39.1188 33.68 38.9826 33.8313C38.3622 34.5425 35.7596 37.3722 34.776 38.4011C34.1707 39.0215 33.6714 39.6268 33.6714 39.7176C33.6714 39.8386 34.0194 39.8992 34.7155 39.8992C35.6083 39.8992 35.805 39.8538 35.9865 39.5814C36.1076 39.415 36.6069 38.8551 37.0912 38.3406C37.5905 37.8261 38.3168 37.0393 38.7103 36.6156C39.1037 36.1768 39.4517 35.9044 39.482 36.0103C40.057 38.0077 40.0721 37.932 38.8313 37.932H37.8024L37.0609 38.7794C36.6523 39.2485 36.2892 39.7025 36.2589 39.7781C36.2287 39.8689 37.4997 39.8992 39.5728 39.8689L42.9472 39.8235L43.1893 38.9913L43.4465 38.159L45.4893 38.0834C47.1387 38.0228 47.6229 37.9472 47.9709 37.7202C49.3176 36.8728 49.938 35.859 49.817 34.6938C49.6959 33.4076 48.9847 33.0899 46.261 33.0899H44.536L43.7189 33.9221C43.2649 34.3761 42.9018 34.7846 42.9018 34.83C42.9018 34.8754 43.9459 34.9057 45.232 34.9057C46.5182 34.9057 47.6683 34.9511 47.8044 34.9965C48.1373 35.1175 48.1071 35.5564 47.7591 35.98C47.4715 36.3281 47.3808 36.3432 44.8538 36.4189L42.236 36.4945L42.1452 36.8728C42.0241 37.3873 41.9485 37.1906 41.5248 35.3142C41.0406 33.1504 40.6925 32.7872 39.6636 33.3169Z" fill="#522872"/>
<path d="M52.8134 33.3017C52.5713 33.4076 51.4062 34.5425 50.2259 35.8287C49.0456 37.1149 47.7745 38.507 47.3963 38.9156C47.0028 39.3393 46.6851 39.7024 46.6851 39.7478C46.6851 39.7932 47.1693 39.8235 47.7594 39.8235C48.6976 39.8084 48.8792 39.763 49.1213 39.4603C49.2726 39.2787 50.0897 38.3708 50.9522 37.4629L52.4957 35.8136L52.768 36.7517C52.9042 37.2814 53.0253 37.7504 53.0404 37.811C53.0404 37.8866 52.5713 37.932 52.0114 37.932H50.9825L50.1956 38.734C49.7568 39.1728 49.4088 39.5965 49.4088 39.6722C49.4088 39.763 50.6042 39.8235 52.5108 39.8235C54.7049 39.8235 55.6128 39.7781 55.6128 39.657C55.6128 39.309 54.1148 33.4984 53.9937 33.3925C53.7365 33.1504 53.2522 33.1201 52.8134 33.3017Z" fill="#522872"/>
<path d="M54.901 33.3471C54.9464 33.4984 55.3549 34.5122 55.824 35.6017L56.6714 37.584L56.2931 38.6735C56.0964 39.2636 55.9451 39.7478 55.9602 39.763C55.9753 39.763 56.3687 39.7781 56.853 39.7932L57.7003 39.8235L58.0484 38.7189C58.3964 37.6294 58.3964 37.6142 60.6964 35.4504C61.9675 34.2399 62.9662 33.226 62.9057 33.1806C62.8603 33.1353 62.3912 33.0899 61.8464 33.0899H60.8629L59.5313 34.4063C58.7898 35.1175 58.1694 35.6925 58.1392 35.6471C58.0635 35.5412 57.7457 34.8603 57.3674 33.9524L56.9891 33.0899H55.8997C54.9464 33.0899 54.8253 33.1201 54.901 33.3471Z" fill="#522872"/>
<path d="M33.7843 9.11863C33.7843 9.17916 34.9948 11.3279 36.4626 13.9003L39.1409 18.5911L38.6113 19.0451C38.3238 19.2872 37.658 19.8773 37.1284 20.3464C36.0843 21.2694 36.1146 21.2543 34.6922 22.4951C34.1626 22.9491 33.6632 23.3879 33.5725 23.4787C33.0126 23.978 31.908 24.9464 31.0606 25.6728C30.531 26.1267 29.729 26.8379 29.275 27.2616C28.8211 27.6702 28.3974 28.0333 28.3217 28.0636C28.2461 28.0938 28.1855 28.1846 28.1855 28.2603C28.1855 28.336 29.275 28.3965 30.6823 28.3965H33.1942L34.5863 27.1405C35.358 26.4596 36.4929 25.4609 37.1133 24.9162C37.7337 24.3714 38.4751 23.7208 38.7626 23.4787C39.0501 23.2214 39.6705 22.6767 40.1396 22.2681C40.6087 21.8444 41.2291 21.2997 41.5166 21.0576C43.4989 19.3174 44.2252 18.6516 44.2252 18.5457C44.2252 18.4852 43.1811 16.6088 41.8949 14.3693C40.6238 12.145 39.4436 10.0719 39.2923 9.78443C39.1258 9.49692 38.9442 9.20942 38.8534 9.14889C38.6719 9.01271 33.7843 8.98244 33.7843 9.11863Z" fill="#EF691D"/>
</svg>
