<svg width="24" height="25" viewBox="0 0 24 25" fill="none" xmlns="http://www.w3.org/2000/svg">
<path d="M17.3332 22.4125C16.2016 22.4125 15.1164 21.963 14.3162 21.1628C13.5161 20.3627 13.0666 19.2774 13.0666 18.1459V5.34586C13.0666 4.78006 13.2913 4.23744 13.6914 3.83736C14.0915 3.43729 14.6341 3.21252 15.1999 3.21252H19.4666C20.0324 3.21252 20.575 3.43729 20.9751 3.83736C21.3751 4.23744 21.5999 4.78006 21.5999 5.34586V18.1459C21.5999 19.2774 21.1504 20.3627 20.3502 21.1628C19.5501 21.963 18.4648 22.4125 17.3332 22.4125ZM17.3332 22.4125H4.53324C3.96744 22.4125 3.42482 22.1878 3.02474 21.7877C2.62466 21.3876 2.3999 20.845 2.3999 20.2792V16.0125C2.3999 15.4467 2.62466 14.9041 3.02474 14.504C3.42482 14.104 3.96744 13.8792 4.53324 13.8792H6.98657M13.0666 7.85252L10.9332 5.71919C10.5332 5.31925 9.99065 5.09458 9.42497 5.09458C8.85928 5.09458 8.31676 5.31925 7.9167 5.71919L4.90017 8.73572C4.50023 9.13578 4.27556 9.67831 4.27556 10.244C4.27556 10.8097 4.50023 11.3522 4.90017 11.7523L14.5002 21.3523M17.3332 18.1459V18.1565" stroke="black" stroke-linecap="round" stroke-linejoin="round"/>
</svg>
