<svg width="24" height="25" viewBox="0 0 24 25" fill="none" xmlns="http://www.w3.org/2000/svg">
<path fill-rule="evenodd" clip-rule="evenodd" d="M9.00016 3.0625C9.41437 3.0625 9.75016 3.39829 9.75016 3.8125V5.31815C10.6345 5.3315 11.5133 5.3684 12.3858 5.42826C13.2952 5.49066 14.1978 5.578 15.093 5.68963C15.504 5.74088 15.7956 6.11564 15.7444 6.52667C15.6931 6.9377 15.3184 7.22935 14.9074 7.1781C14.2478 7.09586 13.5841 7.02721 12.9163 6.97243C12.3256 9.28221 11.3062 11.4199 9.94809 13.2959C10.2649 13.6791 10.598 14.0485 10.9464 14.403C11.2367 14.6984 11.2326 15.1732 10.9371 15.4636C10.6417 15.7539 10.1669 15.7498 9.87652 15.4544C9.57364 15.1462 9.28132 14.8275 9.00015 14.4991C7.42902 16.3345 5.50956 17.8626 3.34438 18.9811C2.97638 19.1712 2.52393 19.027 2.33382 18.659C2.14371 18.291 2.28792 17.8385 2.65593 17.6484C4.73772 16.573 6.57228 15.0862 8.05223 13.2959C7.18614 12.0995 6.45772 10.7965 5.89036 9.41024C5.73347 9.02689 5.91705 8.58893 6.3004 8.43204C6.68375 8.27515 7.1217 8.45872 7.2786 8.84207C7.74091 9.97169 8.31972 11.0415 9.00015 12.0367C10.065 10.4792 10.8812 8.73854 11.3914 6.87194C10.5993 6.83247 9.80211 6.8125 9.00016 6.8125C6.99929 6.8125 5.02782 6.93683 3.09296 7.1781C2.68193 7.22935 2.30718 6.9377 2.25592 6.52667C2.20467 6.11564 2.49632 5.74088 2.90735 5.68963C4.6613 5.47091 6.44395 5.3454 8.25016 5.31815V3.8125C8.25016 3.39829 8.58594 3.0625 9.00016 3.0625ZM15.7502 9.8125C16.0416 9.8125 16.3066 9.98128 16.4298 10.2453L21.6798 21.4953C21.855 21.8707 21.6927 22.317 21.3173 22.4921C20.942 22.6673 20.4957 22.505 20.3205 22.1297L19.1225 19.5625H12.3778L11.1798 22.1297C11.0046 22.505 10.5583 22.6673 10.183 22.4921C9.80764 22.317 9.64536 21.8707 9.82052 21.4953L15.0705 10.2453C15.1937 9.98128 15.4588 9.8125 15.7502 9.8125ZM13.0778 18.0625H18.4225L15.7502 12.336L13.0778 18.0625Z" fill="black"/>
</svg>
