<svg width="237" height="182" viewBox="0 0 237 182" fill="none" xmlns="http://www.w3.org/2000/svg">
<path d="M14.1759 0.0740967C6.61943 0.0740967 0.44873 6.24261 0.44873 13.8012V178.526C0.44873 180.041 1.67906 181.272 3.19465 181.272H233.806C235.323 181.272 236.551 180.041 236.551 178.526V13.8012C236.551 6.24479 230.383 0.0740967 222.824 0.0740967H14.1759ZM14.1759 5.56581H222.821C227.431 5.56581 231.056 9.1908 231.056 13.8012V38.5102H5.93828V13.8012C5.93828 9.19069 9.56326 5.56581 14.1737 5.56581H14.1759ZM25.1571 19.2929C23.6416 19.2929 22.4112 20.5211 22.4112 22.0389C22.4112 23.5544 23.6394 24.7848 25.1571 24.7848H74.575C76.0905 24.7848 77.3209 23.5566 77.3209 22.0389C77.3209 20.5233 76.0927 19.2929 74.575 19.2929H25.1571ZM5.93991 44.0019H231.058V175.78H5.93991V44.0019ZM118.499 65.965C104.859 65.965 93.79 77.0318 93.79 90.6739V104.401H85.0391C83.7811 104.639 82.7871 105.865 82.8083 107.147V151.073C82.8083 152.509 84.1174 153.818 85.5542 153.818H151.441C152.878 153.818 154.187 152.512 154.187 151.073V107.147C154.187 105.71 152.88 104.401 151.441 104.401H143.205V90.6739C143.205 77.034 132.139 65.965 118.496 65.965H118.499ZM118.499 71.4567C129.193 71.4567 137.716 79.9798 137.716 90.6739V104.401H99.2801V90.6739C99.2801 79.9798 107.803 71.4567 118.497 71.4567H118.499ZM88.3005 109.893H148.7V148.329H88.3005V109.893Z" fill="black"/>
</svg>
