<svg width="24" height="25" viewBox="0 0 24 25" fill="none" xmlns="http://www.w3.org/2000/svg">
<path d="M14.6471 8.61248V6.51248C14.6471 5.95552 14.424 5.42138 14.0268 5.02755C13.6297 4.63372 13.091 4.41248 12.5294 4.41248H5.11765C4.55601 4.41248 4.01738 4.63372 3.62024 5.02755C3.22311 5.42138 3 5.95552 3 6.51248V19.1125C3 19.6694 3.22311 20.2036 3.62024 20.5974C4.01738 20.9912 4.55601 21.2125 5.11765 21.2125H12.5294C13.091 21.2125 13.6297 20.9912 14.0268 20.5974C14.424 20.2036 14.6471 19.6694 14.6471 19.1125V17.0125M8.29412 12.8125H21M21 12.8125L17.8235 9.66248M21 12.8125L17.8235 15.9625" stroke="black" stroke-linecap="round" stroke-linejoin="round"/>
</svg>
