<svg width="329" height="329" viewBox="0 0 329 329" fill="none" xmlns="http://www.w3.org/2000/svg">
<path opacity="0.7" d="M44.6981 109.945C44.6981 109.945 26.3531 157.321 52.1335 205.026C77.9139 252.731 131.015 277.933 173.515 299.482C216.015 321.032 260.147 310.536 281.118 275.241C302.088 239.946 273.327 214.751 273.287 164.421C273.248 114.091 280.821 100.766 253.547 58.2461C226.273 15.7262 159.414 6.3102 108.853 37.8481C58.2924 69.3861 44.6981 109.945 44.6981 109.945Z" fill="white"/>
<path d="M154.709 23.5038C236.301 16.2658 236.466 62.2797 273.241 105.181C310.017 148.083 317.88 167.527 303.996 216.982C290.112 266.437 243.46 305.2 185.648 283.236C127.836 261.272 94.7522 282.361 58.3056 262.838C21.8589 243.315 8.29756 205.651 34.9992 161.236C61.7008 116.821 54.0746 32.4657 154.709 23.5038Z" fill="#407BFF"/>
<path opacity="0.7" d="M154.709 23.5038C236.301 16.2658 236.466 62.2797 273.241 105.181C310.017 148.083 317.88 167.527 303.996 216.982C290.112 266.437 243.46 305.2 185.648 283.236C127.836 261.272 94.7522 282.361 58.3056 262.838C21.8589 243.315 8.29756 205.651 34.9992 161.236C61.7008 116.821 54.0746 32.4657 154.709 23.5038Z" fill="white"/>
<path d="M209.043 43.1948L80.7939 57.4669L100.634 235.75L228.883 221.478L209.043 43.1948Z" fill="white" stroke="#263238" stroke-linecap="round" stroke-linejoin="round"/>
<path d="M209.043 43.1956L80.7939 57.4677L83.5391 82.1351L211.788 67.8631L209.043 43.1956Z" fill="#BFBFBF" stroke="#263238" stroke-linecap="round" stroke-linejoin="round"/>
<path d="M173.41 54.5614L118.046 60.7203C117.789 60.7331 117.537 60.7983 117.305 60.9117C117.074 61.0252 116.868 61.1846 116.701 61.3803C116.533 61.5759 116.407 61.8037 116.331 62.0496C116.254 62.2955 116.229 62.5545 116.255 62.8107C116.282 63.0669 116.361 63.3149 116.487 63.5396C116.613 63.7643 116.783 63.9609 116.988 64.1175C117.192 64.2741 117.427 64.3874 117.677 64.4504C117.926 64.5135 118.186 64.5249 118.441 64.4841L173.805 58.3252C174.289 58.2519 174.726 57.9939 175.025 57.6053C175.323 57.2166 175.459 56.7276 175.405 56.2407C175.35 55.7539 175.109 55.307 174.732 54.9939C174.356 54.6808 173.872 54.5258 173.384 54.5614H173.41Z" fill="white"/>
<path d="M160.428 63.826L132.752 66.9054C132.629 66.9177 132.509 66.9545 132.4 67.0136C132.29 67.0727 132.194 67.1531 132.116 67.2499C132.038 67.3467 131.981 67.458 131.946 67.5774C131.912 67.6967 131.902 67.8217 131.917 67.9451C131.943 68.1945 132.068 68.4232 132.262 68.5811C132.457 68.7389 132.707 68.8131 132.956 68.7873L160.638 65.7079C160.881 65.6712 161.099 65.5422 161.248 65.3479C161.397 65.1536 161.466 64.9091 161.438 64.6656C161.411 64.4222 161.291 64.1988 161.102 64.0422C160.914 63.8857 160.672 63.8082 160.428 63.826Z" fill="white"/>
<path opacity="0.3" d="M181.115 85.1584L108.571 93.2254C108.385 93.2464 108.215 93.3403 108.098 93.4865C107.982 93.6328 107.928 93.8193 107.949 94.0052C107.97 94.191 108.064 94.361 108.21 94.4776C108.356 94.5942 108.543 94.6479 108.729 94.627L181.253 86.5599C181.439 86.539 181.609 86.4451 181.726 86.2988C181.842 86.1526 181.896 85.966 181.875 85.7802C181.854 85.5943 181.76 85.4244 181.614 85.3078C181.468 85.1912 181.281 85.1374 181.095 85.1584H181.115Z" fill="black"/>
<path opacity="0.3" d="M181.674 90.1921L98.2659 99.4699C98.08 99.4908 97.9101 99.5847 97.7935 99.731C97.6769 99.8772 97.6231 100.064 97.6441 100.25C97.665 100.435 97.7589 100.605 97.9052 100.722C98.0514 100.839 98.238 100.892 98.4238 100.871L181.832 91.5936C181.927 91.5879 182.02 91.563 182.105 91.5205C182.19 91.4779 182.265 91.4186 182.327 91.346C182.388 91.2734 182.434 91.1892 182.462 91.0983C182.491 91.0074 182.5 90.9118 182.49 90.8172C182.479 90.7217 182.45 90.6293 182.403 90.5455C182.356 90.4618 182.292 90.3885 182.216 90.3301C182.139 90.2717 182.052 90.2293 181.959 90.2056C181.866 90.1819 181.769 90.1773 181.674 90.1921Z" fill="black"/>
<path opacity="0.3" d="M160.467 97.6473L98.8255 104.504C98.6396 104.525 98.4697 104.618 98.3531 104.765C98.2365 104.911 98.1827 105.098 98.2037 105.283C98.2246 105.469 98.3185 105.639 98.4647 105.756C98.611 105.872 98.7975 105.926 98.9834 105.905L160.618 99.0488C160.713 99.0431 160.806 99.0182 160.891 98.9757C160.976 98.9331 161.052 98.8738 161.113 98.8012C161.175 98.7286 161.221 98.6444 161.249 98.5535C161.277 98.4626 161.286 98.367 161.276 98.2724C161.266 98.1775 161.236 98.0857 161.19 98.0025C161.143 97.9193 161.08 97.8463 161.004 97.788C160.929 97.7297 160.842 97.6871 160.75 97.663C160.658 97.6388 160.561 97.6334 160.467 97.6473Z" fill="black"/>
<path opacity="0.3" d="M199.508 82.4848L192.151 83.3035C191.162 83.4137 190.449 84.3052 190.559 85.2948L191.378 92.6519C191.488 93.6415 192.379 94.3545 193.369 94.2443L200.726 93.4256C201.715 93.3155 202.428 92.4239 202.318 91.4343L201.5 84.0772C201.389 83.0876 200.498 82.3747 199.508 82.4848Z" stroke="#263238" stroke-linecap="round" stroke-linejoin="round"/>
<path d="M193.459 88.1392L195.88 90.4224L199.065 85.5466" stroke="#407BFF" stroke-width="3" stroke-linecap="round" stroke-linejoin="round"/>
<path opacity="0.3" d="M183.766 109.004L111.241 117.071C111.056 117.092 110.886 117.186 110.769 117.332C110.652 117.479 110.599 117.665 110.62 117.851C110.641 118.037 110.735 118.207 110.881 118.324C111.027 118.44 111.214 118.494 111.399 118.473L183.924 110.406C184.016 110.395 184.105 110.367 184.186 110.322C184.267 110.277 184.339 110.217 184.397 110.145C184.454 110.072 184.497 109.989 184.523 109.9C184.548 109.811 184.556 109.718 184.546 109.626C184.536 109.534 184.507 109.445 184.462 109.364C184.418 109.283 184.357 109.211 184.285 109.154C184.212 109.096 184.129 109.053 184.04 109.027C183.951 109.002 183.858 108.994 183.766 109.004Z" fill="black"/>
<path opacity="0.3" d="M184.326 114.038L100.918 123.316C100.826 123.326 100.737 123.355 100.656 123.399C100.575 123.444 100.504 123.504 100.446 123.577C100.388 123.649 100.345 123.732 100.32 123.821C100.294 123.91 100.286 124.004 100.296 124.096C100.307 124.188 100.335 124.277 100.38 124.358C100.425 124.439 100.485 124.51 100.558 124.568C100.63 124.626 100.713 124.669 100.802 124.694C100.891 124.72 100.984 124.728 101.076 124.717L184.484 115.44C184.67 115.419 184.84 115.325 184.957 115.178C185.073 115.032 185.127 114.846 185.106 114.66C185.085 114.474 184.991 114.304 184.845 114.187C184.699 114.071 184.512 114.017 184.326 114.038Z" fill="black"/>
<path opacity="0.3" d="M163.118 121.493L101.477 128.349C101.291 128.37 101.121 128.464 101.004 128.611C100.888 128.757 100.834 128.943 100.855 129.129C100.876 129.315 100.97 129.485 101.116 129.602C101.262 129.718 101.449 129.772 101.635 129.751L163.27 122.895C163.365 122.889 163.457 122.864 163.542 122.821C163.627 122.779 163.703 122.72 163.765 122.647C163.826 122.574 163.872 122.49 163.9 122.399C163.928 122.308 163.938 122.213 163.928 122.118C163.917 122.023 163.888 121.932 163.841 121.848C163.794 121.765 163.731 121.692 163.656 121.634C163.58 121.575 163.494 121.533 163.401 121.509C163.309 121.485 163.213 121.479 163.118 121.493Z" fill="black"/>
<path opacity="0.3" d="M202.163 106.325L194.806 107.144C193.816 107.254 193.103 108.146 193.213 109.135L194.032 116.492C194.142 117.482 195.033 118.195 196.023 118.085L203.38 117.266C204.37 117.156 205.083 116.265 204.973 115.275L204.154 107.918C204.044 106.928 203.152 106.215 202.163 106.325Z" stroke="#263238" stroke-linecap="round" stroke-linejoin="round"/>
<path d="M196.117 111.985L198.532 114.268L201.717 109.393" stroke="#407BFF" stroke-width="3" stroke-linecap="round" stroke-linejoin="round"/>
<path opacity="0.3" d="M186.419 132.85L113.894 140.917C113.72 140.951 113.565 141.049 113.46 141.192C113.355 141.335 113.308 141.512 113.328 141.688C113.348 141.864 113.433 142.026 113.568 142.142C113.702 142.258 113.875 142.318 114.052 142.312L186.577 134.232C186.669 134.222 186.758 134.193 186.839 134.148C186.92 134.104 186.991 134.043 187.049 133.971C187.107 133.899 187.15 133.815 187.175 133.726C187.201 133.637 187.209 133.544 187.199 133.452C187.188 133.36 187.16 133.271 187.115 133.19C187.07 133.109 187.01 133.038 186.937 132.98C186.865 132.922 186.782 132.879 186.693 132.854C186.604 132.828 186.511 132.82 186.419 132.83V132.85Z" fill="black"/>
<path opacity="0.3" d="M186.984 137.884L103.57 147.162C103.477 147.171 103.388 147.198 103.307 147.242C103.225 147.286 103.154 147.347 103.096 147.419C103.038 147.491 102.996 147.575 102.971 147.664C102.946 147.753 102.939 147.846 102.951 147.938C102.961 148.03 102.989 148.119 103.033 148.201C103.078 148.282 103.137 148.354 103.21 148.412C103.282 148.47 103.365 148.513 103.453 148.539C103.542 148.565 103.635 148.573 103.727 148.563L187.136 139.285C187.231 139.279 187.324 139.253 187.409 139.21C187.494 139.167 187.569 139.107 187.631 139.034C187.692 138.961 187.738 138.876 187.766 138.785C187.794 138.693 187.803 138.597 187.794 138.502C187.783 138.408 187.754 138.316 187.707 138.233C187.66 138.15 187.597 138.078 187.521 138.02C187.446 137.962 187.359 137.92 187.267 137.897C187.174 137.874 187.078 137.869 186.984 137.884Z" fill="black"/>
<path opacity="0.3" d="M165.771 145.339L104.129 152.195C103.943 152.216 103.773 152.31 103.657 152.456C103.54 152.603 103.486 152.789 103.507 152.975C103.528 153.161 103.622 153.331 103.768 153.448C103.915 153.564 104.101 153.618 104.287 153.597L165.922 146.734C166.108 146.714 166.278 146.621 166.395 146.475C166.513 146.33 166.567 146.143 166.547 145.958C166.527 145.772 166.434 145.601 166.288 145.484C166.143 145.367 165.956 145.312 165.771 145.332V145.339Z" fill="black"/>
<path opacity="0.3" d="M204.815 130.166L197.458 130.985C196.468 131.095 195.755 131.986 195.865 132.976L196.684 140.333C196.794 141.323 197.686 142.036 198.675 141.926L206.032 141.107C207.022 140.997 207.735 140.105 207.625 139.116L206.806 131.759C206.696 130.769 205.805 130.056 204.815 130.166Z" stroke="#263238" stroke-linecap="round" stroke-linejoin="round"/>
<path d="M198.77 135.831L201.184 138.114L204.376 133.232" stroke="#407BFF" stroke-width="3" stroke-linecap="round" stroke-linejoin="round"/>
<path opacity="0.3" d="M189.07 156.696L116.545 164.763C116.371 164.797 116.216 164.895 116.111 165.038C116.006 165.18 115.959 165.358 115.979 165.534C115.999 165.71 116.085 165.872 116.219 165.988C116.353 166.104 116.526 166.164 116.703 166.158L189.228 158.091C189.325 158.088 189.42 158.064 189.508 158.022C189.595 157.98 189.673 157.921 189.737 157.847C189.8 157.774 189.848 157.688 189.876 157.595C189.905 157.502 189.914 157.405 189.903 157.308C189.892 157.212 189.861 157.119 189.813 157.035C189.764 156.951 189.699 156.878 189.62 156.82C189.542 156.763 189.453 156.722 189.358 156.701C189.264 156.679 189.165 156.678 189.07 156.696Z" fill="black"/>
<path opacity="0.3" d="M189.636 161.73L106.221 171.008C106.129 171.017 106.039 171.044 105.958 171.088C105.877 171.132 105.805 171.192 105.747 171.265C105.689 171.337 105.647 171.421 105.622 171.51C105.597 171.599 105.591 171.692 105.602 171.784C105.612 171.876 105.64 171.965 105.685 172.047C105.729 172.128 105.789 172.2 105.861 172.258C105.933 172.316 106.016 172.359 106.105 172.385C106.194 172.411 106.287 172.419 106.379 172.409L189.787 163.131C189.973 163.11 190.144 163.015 190.261 162.869C190.378 162.722 190.432 162.535 190.412 162.348C190.391 162.164 190.297 161.995 190.151 161.879C190.006 161.763 189.82 161.709 189.636 161.73Z" fill="black"/>
<path opacity="0.3" d="M168.448 169.185L106.807 176.041C106.715 176.05 106.625 176.078 106.544 176.122C106.462 176.166 106.391 176.226 106.333 176.299C106.275 176.371 106.233 176.454 106.208 176.544C106.183 176.633 106.176 176.726 106.188 176.818C106.198 176.91 106.226 176.999 106.27 177.08C106.315 177.162 106.375 177.233 106.447 177.291C106.519 177.35 106.602 177.393 106.691 177.419C106.78 177.445 106.873 177.453 106.965 177.443L168.6 170.587C168.692 170.577 168.781 170.549 168.862 170.504C168.943 170.46 169.015 170.4 169.073 170.328C169.131 170.256 169.175 170.173 169.201 170.084C169.227 169.995 169.235 169.902 169.225 169.81C169.216 169.718 169.188 169.628 169.144 169.546C169.1 169.465 169.04 169.393 168.968 169.334C168.896 169.276 168.812 169.233 168.723 169.207C168.634 169.182 168.54 169.174 168.448 169.185Z" fill="black"/>
<path opacity="0.3" d="M207.469 154.013L200.112 154.832C199.123 154.942 198.41 155.834 198.52 156.823L199.338 164.18C199.449 165.17 200.34 165.883 201.33 165.773L208.687 164.954C209.676 164.844 210.389 163.952 210.279 162.963L209.461 155.606C209.35 154.616 208.459 153.903 207.469 154.013Z" stroke="#263238" stroke-linecap="round" stroke-linejoin="round"/>
<path d="M201.421 159.67L203.836 161.954L207.027 157.078" stroke="#407BFF" stroke-width="3" stroke-linecap="round" stroke-linejoin="round"/>
<path opacity="0.3" d="M191.728 180.535L119.203 188.603C119.111 188.613 119.022 188.64 118.941 188.685C118.86 188.729 118.788 188.789 118.73 188.861C118.672 188.933 118.629 189.016 118.603 189.105C118.577 189.194 118.568 189.287 118.578 189.379C118.588 189.471 118.616 189.56 118.661 189.641C118.705 189.723 118.765 189.794 118.837 189.852C118.909 189.91 118.992 189.954 119.081 189.98C119.17 190.006 119.263 190.014 119.355 190.004L191.879 181.937C191.972 181.927 192.061 181.899 192.142 181.855C192.223 181.811 192.295 181.751 192.353 181.678C192.411 181.606 192.454 181.523 192.48 181.435C192.506 181.346 192.515 181.253 192.505 181.161C192.483 180.975 192.39 180.806 192.244 180.689C192.099 180.572 191.914 180.517 191.728 180.535Z" fill="black"/>
<path opacity="0.3" d="M192.287 185.556L108.873 194.834C108.776 194.837 108.681 194.861 108.593 194.903C108.505 194.945 108.428 195.004 108.364 195.078C108.301 195.151 108.253 195.237 108.225 195.33C108.196 195.423 108.187 195.52 108.198 195.617C108.209 195.713 108.239 195.806 108.288 195.89C108.337 195.974 108.402 196.047 108.48 196.105C108.559 196.162 108.648 196.203 108.743 196.224C108.837 196.246 108.935 196.247 109.031 196.229L192.439 186.951C192.536 186.949 192.632 186.926 192.72 186.885C192.809 186.844 192.887 186.784 192.951 186.711C193.016 186.638 193.064 186.552 193.093 186.459C193.123 186.366 193.132 186.268 193.122 186.171C193.111 186.074 193.081 185.981 193.032 185.896C192.984 185.812 192.918 185.738 192.84 185.68C192.761 185.623 192.672 185.582 192.577 185.56C192.482 185.539 192.383 185.537 192.287 185.556Z" fill="black"/>
<path opacity="0.3" d="M171.08 193.031L109.439 199.887C109.253 199.908 109.083 200.002 108.966 200.148C108.85 200.295 108.796 200.481 108.817 200.667C108.838 200.853 108.932 201.023 109.078 201.139C109.224 201.256 109.411 201.31 109.597 201.289L171.238 194.432C171.423 194.409 171.592 194.314 171.708 194.168C171.824 194.021 171.877 193.835 171.857 193.649C171.847 193.558 171.819 193.469 171.774 193.388C171.73 193.307 171.67 193.235 171.598 193.178C171.525 193.12 171.442 193.078 171.354 193.053C171.265 193.027 171.172 193.02 171.08 193.031Z" fill="black"/>
<path opacity="0.3" d="M210.124 177.86L202.766 178.679C201.777 178.789 201.064 179.681 201.174 180.67L201.993 188.027C202.103 189.017 202.994 189.73 203.984 189.62L211.341 188.801C212.331 188.691 213.044 187.8 212.934 186.81L212.115 179.453C212.005 178.463 211.113 177.75 210.124 177.86Z" stroke="#263238" stroke-linecap="round" stroke-linejoin="round"/>
<path opacity="0.3" d="M193.749 198.716L121.224 206.796C121.038 206.817 120.868 206.911 120.752 207.057C120.635 207.204 120.581 207.39 120.602 207.576C120.623 207.762 120.717 207.932 120.863 208.048C121.009 208.165 121.196 208.219 121.382 208.198L193.907 200.131C193.999 200.122 194.088 200.094 194.17 200.05C194.251 200.006 194.323 199.946 194.38 199.874C194.438 199.801 194.481 199.718 194.505 199.629C194.53 199.539 194.537 199.446 194.525 199.354C194.517 199.261 194.49 199.17 194.447 199.088C194.403 199.005 194.343 198.932 194.271 198.872C194.199 198.813 194.115 198.768 194.025 198.742C193.936 198.715 193.842 198.706 193.749 198.716Z" fill="black"/>
<path opacity="0.3" d="M194.308 203.769L110.9 213.047C110.803 213.05 110.707 213.072 110.619 213.113C110.53 213.155 110.452 213.214 110.387 213.287C110.323 213.361 110.275 213.446 110.246 213.539C110.216 213.632 110.206 213.73 110.217 213.827C110.228 213.924 110.258 214.018 110.307 214.102C110.355 214.187 110.421 214.26 110.499 214.318C110.578 214.376 110.667 214.417 110.762 214.438C110.857 214.459 110.956 214.461 111.051 214.442L194.466 205.164C194.64 205.131 194.795 205.033 194.9 204.89C195.005 204.747 195.052 204.57 195.032 204.394C195.012 204.218 194.927 204.056 194.793 203.94C194.658 203.824 194.485 203.763 194.308 203.769Z" fill="black"/>
<path opacity="0.3" d="M173.094 211.218L111.459 218.074C111.367 218.084 111.278 218.112 111.197 218.157C111.116 218.201 111.044 218.261 110.986 218.333C110.928 218.405 110.884 218.488 110.858 218.577C110.832 218.666 110.824 218.759 110.834 218.851C110.856 219.037 110.95 219.208 111.097 219.325C111.244 219.442 111.431 219.496 111.617 219.476L173.252 212.62C173.344 212.609 173.433 212.581 173.514 212.536C173.595 212.491 173.667 212.431 173.724 212.359C173.782 212.286 173.825 212.203 173.851 212.114C173.876 212.025 173.884 211.932 173.874 211.84C173.864 211.748 173.835 211.659 173.79 211.578C173.746 211.497 173.685 211.425 173.613 211.367C173.54 211.31 173.457 211.267 173.368 211.241C173.279 211.216 173.186 211.208 173.094 211.218Z" fill="black"/>
<path opacity="0.3" d="M212.15 196.047L204.793 196.866C203.803 196.976 203.09 197.868 203.2 198.857L204.019 206.214C204.129 207.204 205.021 207.917 206.01 207.807L213.367 206.988C214.357 206.878 215.07 205.986 214.96 204.997L214.141 197.64C214.031 196.65 213.14 195.937 212.15 196.047Z" stroke="#263238" stroke-linecap="round" stroke-linejoin="round"/>
<path d="M133.449 152.176C133.512 151.419 133.325 150.663 132.916 150.024L132.106 148.59L130.501 149.498L131.376 151.037C131.81 151.807 131.633 152.281 131.093 152.584C130.554 152.886 130.054 152.807 129.619 152.038L127.744 148.708L125.73 149.103L127.876 152.886C128.856 154.617 130.277 155.11 131.942 154.202C132.207 154.05 132.452 153.867 132.672 153.656C132.579 153.439 132.562 153.197 132.626 152.969C132.689 152.742 132.829 152.543 133.021 152.406C133.15 152.306 133.295 152.229 133.449 152.176Z" fill="#407BFF"/>
<path d="M124.697 147.28L125.079 147.938H127.296L126.329 146.227C125.895 145.458 126.066 144.971 126.605 144.668C127.145 144.365 127.652 144.457 128.086 145.234L128.744 146.385L130.343 145.477L129.751 144.431C128.77 142.707 127.349 142.207 125.684 143.155C125.302 143.361 124.963 143.638 124.684 143.97C125.062 144.092 125.458 144.148 125.855 144.135L124.276 144.727C124.16 145.158 124.138 145.609 124.211 146.049C124.283 146.49 124.449 146.909 124.697 147.28Z" fill="#407BFF"/>
<path d="M136.995 140.266C137.206 140.16 137.426 140.074 137.653 140.009C138.502 139.628 138.693 138.404 138.62 137.542L137.745 136.456L135.39 137.772L136.864 140.365C136.902 140.325 136.946 140.292 136.995 140.266Z" fill="#407BFF"/>
<path d="M147.03 145.418L148.629 144.51L142.516 133.732L140.996 134.587C141.483 134.706 141.832 134.936 141.845 135.291C141.371 135.357 140.792 135.291 140.279 135.384L143.359 143.365L139.463 138.509C139.474 138.617 139.458 138.725 139.416 138.825C139.375 138.925 139.31 139.013 139.226 139.081C139.049 139.206 138.792 139.206 138.654 139.371C138.516 139.535 138.535 139.733 138.417 139.878C138.299 140.022 138.114 140.062 137.97 140.167C137.825 140.272 137.667 140.542 137.502 140.72C137.423 140.803 137.323 140.865 137.213 140.898L141.543 148.53L143.016 147.688L138.693 140.068L144.247 146.991L145.852 146.083L142.608 137.706L147.03 145.418Z" fill="#407BFF"/>
<path d="M151.076 136.035C151.193 136.093 151.297 136.175 151.382 136.274C151.467 136.374 151.531 136.489 151.57 136.614C151.708 135.801 151.532 134.966 151.076 134.278L150.28 132.87C149.3 131.146 147.938 130.679 146.24 131.64L143.746 133.054L149.865 143.839L151.451 142.937C150.938 142.615 150.366 142.339 149.879 141.99C149.65 141.844 149.462 141.642 149.333 141.404C149.271 141.284 149.246 141.149 149.26 141.014C149.274 140.88 149.326 140.753 149.411 140.648C149.523 140.554 149.659 140.493 149.803 140.473C149.948 140.454 150.095 140.475 150.227 140.536L149.26 138.825L150.063 138.371C150.504 138.132 150.888 137.799 151.188 137.397C150.852 136.864 150.267 135.732 151.076 136.035ZM149.188 136.864L148.385 137.318L146.312 133.666L147.115 133.212C147.655 132.909 148.089 132.988 148.523 133.758L149.444 135.377C149.879 136.114 149.727 136.528 149.188 136.864Z" fill="#407BFF"/>
<path d="M160.15 138.002L159.282 136.463L156.492 138.042L152.412 130.85L152.228 130.995C152.109 131.105 151.964 131.184 151.807 131.225C151.728 131.243 151.645 131.231 151.573 131.193C151.502 131.154 151.447 131.091 151.419 131.014C151.396 130.913 151.396 130.807 151.419 130.705C151.42 130.093 151.226 129.496 150.866 129.001L149.55 129.764L155.663 140.542L160.15 138.002Z" fill="#407BFF"/>
<path d="M159.387 134.232C159.571 133.752 160.144 133.574 160.466 133.14C160.495 133.095 160.521 133.049 160.545 133.002L159.887 131.896L161.552 130.955C161.521 130.85 161.467 130.753 161.394 130.672C161.155 130.556 160.9 130.476 160.637 130.435C160.597 130.354 160.576 130.263 160.578 130.172C160.579 130.081 160.602 129.991 160.646 129.91C160.689 129.83 160.751 129.761 160.826 129.709C160.901 129.657 160.988 129.624 161.078 129.613C161.19 129.613 161.322 129.613 161.407 129.56C161.467 129.489 161.498 129.397 161.493 129.304L161.341 129.04L159.012 130.356L157.315 127.356L160.236 125.691L159.361 124.151L154.755 126.783L159.282 134.765C159.29 134.583 159.325 134.403 159.387 134.232Z" fill="#407BFF"/>
<path d="M165.513 134.962L164.638 133.423L161.71 135.081L160.835 133.574L159.756 134.587L159.381 134.949L160.894 137.614L165.513 134.962Z" fill="#407BFF"/>
<path d="M163.335 122.441C163.335 122.671 163.171 122.928 162.947 122.947C162.833 122.946 162.72 122.928 162.611 122.895C162.408 122.898 162.205 122.879 162.006 122.836C161.963 122.818 161.923 122.793 161.888 122.763L159.953 123.862L160.828 125.408L162.598 124.402L167.862 133.614L169.553 132.653L164.289 123.441L166.066 122.434L165.191 120.894L163.375 121.921C163.342 122.092 163.355 122.27 163.335 122.441Z" fill="#407BFF"/>
<path d="M170.724 128.968L172.04 131.291L173.817 130.284C173.859 130.167 173.912 130.055 173.975 129.948C174.366 129.377 174.893 128.911 175.508 128.593L176.324 128.086L175.784 127.126L172.856 128.79L171.066 125.632L173.396 124.316L172.52 122.776L170.191 124.092L168.493 121.072L171.422 119.414L170.546 117.874L165.94 120.506L169.263 126.369C170.066 125.941 170.467 127.481 170.724 128.968Z" fill="#407BFF"/>
<path d="M136.646 150.261C136.923 150.307 137.087 150.583 137.304 150.768C137.383 150.84 137.475 150.898 137.574 150.939C137.7 150.889 137.823 150.831 137.943 150.768C139.601 149.827 139.95 148.326 138.976 146.596L138.877 146.425L136.6 146.366L137.344 147.682C137.778 148.451 137.607 148.938 137.067 149.241C136.528 149.544 136.021 149.445 135.587 148.675L132.297 142.852C131.856 142.082 132.034 141.602 132.573 141.292C133.113 140.983 133.613 141.088 134.054 141.858L136.284 145.806C136.969 145.637 137.671 145.548 138.377 145.543L135.804 141.009C134.83 139.285 133.363 138.818 131.698 139.759C130.033 140.7 129.685 142.207 130.665 143.931L133.843 149.537C134.044 149.969 134.344 150.348 134.719 150.642C135.095 150.936 135.534 151.137 136.002 151.228C135.998 151.189 135.998 151.149 136.002 151.11C135.923 150.682 136.238 150.182 136.646 150.261Z" fill="#407BFF"/>
<path d="M159.368 119.315L164.533 116.387C163.052 116.795 161.749 118.032 160.223 117.861C159.947 117.789 159.657 117.789 159.381 117.861C159.208 117.972 159.084 118.144 159.033 118.343C158.981 118.542 159.007 118.753 159.104 118.934C159.171 119.074 159.26 119.203 159.368 119.315Z" fill="#407BFF"/>
<path d="M146.411 126.665C146.399 126.551 146.422 126.437 146.477 126.336C146.604 126.38 146.737 126.402 146.871 126.402L148.655 125.395C148.934 125.079 149.252 124.801 149.602 124.566C149.94 124.385 150.298 124.244 150.668 124.145L151.063 124.026L154.353 122.171C154.388 122.104 154.434 122.043 154.491 121.993C154.542 121.959 154.597 121.933 154.656 121.914L151.26 120.888L150.346 121.401L150.247 122.125L146.332 124.217C145.944 124.459 145.513 124.623 145.062 124.698C144.894 124.717 144.724 124.717 144.555 124.698L138.975 127.863C139.02 128.127 139.095 128.385 139.199 128.632C138.872 128.572 138.561 128.444 138.285 128.257L137.14 128.915C137.956 129.455 138.758 130.008 139.541 130.593L146.411 126.665Z" fill="#407BFF"/>
<path d="M170.297 113.123L167.599 111.61L166.322 112.334C167.074 113.107 168.046 113.631 169.106 113.834L170.297 113.123Z" fill="#407BFF"/>
<path d="M184.805 129.054L174.619 111.097C174.223 110.402 173.568 109.893 172.798 109.68C172.027 109.466 171.204 109.567 170.507 109.958L169.283 110.656L169.75 111.11C170.237 111.597 170.737 112.09 171.191 112.61L171.81 112.261C171.895 112.214 171.997 112.201 172.091 112.227C172.186 112.253 172.267 112.315 172.316 112.4L182.509 130.363C182.556 130.45 182.568 130.551 182.54 130.646C182.513 130.741 182.45 130.821 182.364 130.87L168.5 138.766C169.698 138.838 170.908 138.667 172.106 138.805C172.537 138.86 172.966 138.936 173.389 139.035L183.667 133.206C184.016 133.009 184.323 132.746 184.569 132.43C184.816 132.115 184.997 131.753 185.103 131.367C185.209 130.981 185.237 130.578 185.186 130.181C185.135 129.783 185.005 129.4 184.805 129.054Z" fill="#407BFF"/>
<path d="M122.388 151.906L117.597 143.444C117.573 143.401 117.557 143.354 117.55 143.305C117.544 143.256 117.547 143.206 117.56 143.159C117.573 143.111 117.595 143.066 117.625 143.027C117.655 142.988 117.693 142.955 117.736 142.931L131.554 135.087C131.508 134.982 131.448 134.877 131.409 134.772C131.604 134.763 131.799 134.786 131.988 134.837L137.574 131.672C137.39 131.613 137.212 131.541 137.035 131.475L134.403 130.429L132.297 131.626L134.587 133.028C133.791 132.541 132.166 132.475 130.764 132.495L116.466 140.634C115.77 141.029 115.259 141.684 115.046 142.455C114.833 143.226 114.934 144.05 115.327 144.747L119.486 152.077C119.677 152.024 119.874 151.978 120.065 151.945C120.592 151.87 121.125 151.843 121.657 151.866C121.901 151.865 122.145 151.878 122.388 151.906Z" fill="#407BFF"/>
<path d="M139.456 155.209C139.691 155.419 139.957 155.59 140.246 155.716C140.542 155.847 140.937 156.163 140.706 156.374C139.64 156.861 138.324 156.499 137.278 157.032C136.706 157.308 136.153 157.854 135.541 157.69C136.281 158.139 136.947 158.701 137.515 159.355L163.644 144.536C163.644 144.431 163.677 144.326 163.697 144.214C163.697 144.007 163.745 143.803 163.837 143.617C163.928 143.431 164.061 143.268 164.224 143.142C164.388 143.015 164.579 142.927 164.781 142.885C164.984 142.842 165.194 142.847 165.394 142.898C165.733 142.883 166.073 142.919 166.401 143.003L169.658 141.154C169.211 140.384 168.682 139.665 168.079 139.009L139.456 155.209Z" fill="#407BFF"/>
<path d="M135.225 159.558C134.595 159.354 134.015 159.02 133.521 158.578L128.31 161.539C128.267 161.564 128.221 161.58 128.172 161.586C128.124 161.592 128.075 161.589 128.027 161.576C127.98 161.563 127.936 161.541 127.898 161.511C127.859 161.481 127.827 161.444 127.803 161.401L123.197 153.327C122.756 153.175 122.286 153.121 121.822 153.169C121.289 153.275 120.822 153.893 121.111 154.347C121.383 154.354 121.648 154.433 121.88 154.577C122.111 154.72 122.3 154.923 122.427 155.163C122.143 155.389 121.831 155.577 121.499 155.722L125.447 162.704C125.644 163.056 125.908 163.366 126.226 163.615C126.543 163.864 126.908 164.047 127.297 164.153C127.686 164.259 128.093 164.286 128.493 164.233C128.893 164.179 129.278 164.046 129.626 163.842L136.456 159.966L136.377 159.92C136 159.779 135.615 159.658 135.225 159.558Z" fill="#407BFF"/>
<g opacity="0.2">
<path d="M133.449 152.176C133.512 151.419 133.325 150.663 132.916 150.024L132.106 148.59L130.501 149.498L131.376 151.037C131.81 151.807 131.633 152.281 131.093 152.584C130.554 152.886 130.054 152.807 129.619 152.038L127.744 148.708L125.73 149.103L127.876 152.886C128.856 154.617 130.277 155.11 131.942 154.202C132.207 154.05 132.452 153.867 132.672 153.656C132.579 153.439 132.562 153.197 132.626 152.969C132.689 152.742 132.829 152.543 133.021 152.406C133.15 152.306 133.295 152.229 133.449 152.176Z" fill="black"/>
<path d="M124.697 147.28L125.079 147.938H127.296L126.329 146.227C125.895 145.458 126.066 144.971 126.605 144.668C127.145 144.365 127.652 144.457 128.086 145.234L128.744 146.385L130.343 145.477L129.751 144.431C128.77 142.707 127.349 142.207 125.684 143.155C125.302 143.361 124.963 143.638 124.684 143.97C125.062 144.092 125.458 144.148 125.855 144.135L124.276 144.727C124.16 145.158 124.138 145.609 124.211 146.049C124.283 146.49 124.449 146.909 124.697 147.28Z" fill="black"/>
<path d="M136.995 140.266C137.206 140.16 137.426 140.074 137.653 140.009C138.502 139.628 138.693 138.404 138.62 137.542L137.745 136.456L135.39 137.772L136.864 140.365C136.902 140.325 136.946 140.292 136.995 140.266Z" fill="black"/>
<path d="M147.03 145.418L148.629 144.51L142.516 133.732L140.996 134.587C141.483 134.706 141.832 134.936 141.845 135.291C141.371 135.357 140.792 135.291 140.279 135.384L143.359 143.365L139.463 138.509C139.474 138.617 139.458 138.725 139.416 138.825C139.375 138.925 139.31 139.013 139.226 139.081C139.049 139.206 138.792 139.206 138.654 139.371C138.516 139.535 138.535 139.733 138.417 139.878C138.299 140.022 138.114 140.062 137.97 140.167C137.825 140.272 137.667 140.542 137.502 140.72C137.423 140.803 137.323 140.865 137.213 140.898L141.543 148.53L143.016 147.688L138.693 140.068L144.247 146.991L145.852 146.083L142.608 137.706L147.03 145.418Z" fill="black"/>
<path d="M151.076 136.035C151.193 136.093 151.297 136.175 151.382 136.274C151.467 136.374 151.531 136.489 151.57 136.614C151.708 135.801 151.532 134.966 151.076 134.278L150.28 132.87C149.3 131.146 147.938 130.679 146.24 131.64L143.746 133.054L149.865 143.839L151.451 142.937C150.938 142.615 150.366 142.339 149.879 141.99C149.65 141.844 149.462 141.642 149.333 141.404C149.271 141.284 149.246 141.149 149.26 141.014C149.274 140.88 149.326 140.753 149.411 140.648C149.523 140.554 149.659 140.493 149.803 140.473C149.948 140.454 150.095 140.475 150.227 140.536L149.26 138.825L150.063 138.371C150.504 138.132 150.888 137.799 151.188 137.397C150.852 136.864 150.267 135.732 151.076 136.035ZM149.188 136.864L148.385 137.318L146.312 133.666L147.115 133.212C147.655 132.909 148.089 132.988 148.523 133.758L149.444 135.377C149.879 136.114 149.727 136.528 149.188 136.864Z" fill="black"/>
<path d="M160.15 138.002L159.282 136.463L156.492 138.042L152.412 130.85L152.228 130.995C152.109 131.105 151.964 131.184 151.807 131.225C151.728 131.243 151.645 131.231 151.573 131.193C151.502 131.154 151.447 131.091 151.419 131.014C151.396 130.913 151.396 130.807 151.419 130.705C151.42 130.093 151.226 129.496 150.866 129.001L149.55 129.764L155.663 140.542L160.15 138.002Z" fill="black"/>
<path d="M159.387 134.232C159.571 133.752 160.144 133.574 160.466 133.14C160.495 133.095 160.521 133.049 160.545 133.002L159.887 131.896L161.552 130.955C161.521 130.85 161.467 130.753 161.394 130.672C161.155 130.556 160.9 130.476 160.637 130.435C160.597 130.354 160.576 130.263 160.578 130.172C160.579 130.081 160.602 129.991 160.646 129.91C160.689 129.83 160.751 129.761 160.826 129.709C160.901 129.657 160.988 129.624 161.078 129.613C161.19 129.613 161.322 129.613 161.407 129.56C161.467 129.489 161.498 129.397 161.493 129.304L161.341 129.04L159.012 130.356L157.315 127.356L160.236 125.691L159.361 124.151L154.755 126.783L159.282 134.765C159.29 134.583 159.325 134.403 159.387 134.232Z" fill="black"/>
<path d="M165.513 134.962L164.638 133.423L161.71 135.081L160.835 133.574L159.756 134.587L159.381 134.949L160.894 137.614L165.513 134.962Z" fill="black"/>
<path d="M163.335 122.441C163.335 122.671 163.171 122.928 162.947 122.947C162.833 122.946 162.72 122.928 162.611 122.895C162.408 122.898 162.205 122.879 162.006 122.836C161.963 122.818 161.923 122.793 161.888 122.763L159.953 123.862L160.828 125.408L162.598 124.402L167.862 133.614L169.553 132.653L164.289 123.441L166.066 122.434L165.191 120.894L163.375 121.921C163.342 122.092 163.355 122.27 163.335 122.441Z" fill="black"/>
<path d="M170.724 128.968L172.04 131.291L173.817 130.284C173.859 130.167 173.912 130.055 173.975 129.948C174.366 129.377 174.893 128.911 175.508 128.593L176.324 128.086L175.784 127.126L172.856 128.79L171.066 125.632L173.396 124.316L172.52 122.776L170.191 124.092L168.493 121.072L171.422 119.414L170.546 117.874L165.94 120.506L169.263 126.369C170.066 125.941 170.467 127.481 170.724 128.968Z" fill="black"/>
<path d="M136.646 150.261C136.923 150.307 137.087 150.583 137.304 150.768C137.383 150.84 137.475 150.898 137.574 150.939C137.7 150.889 137.823 150.831 137.943 150.768C139.601 149.827 139.95 148.326 138.976 146.596L138.877 146.425L136.6 146.366L137.344 147.682C137.778 148.451 137.607 148.938 137.067 149.241C136.528 149.544 136.021 149.445 135.587 148.675L132.297 142.852C131.856 142.082 132.034 141.602 132.573 141.292C133.113 140.983 133.613 141.088 134.054 141.858L136.284 145.806C136.969 145.637 137.671 145.548 138.377 145.543L135.804 141.009C134.83 139.285 133.363 138.818 131.698 139.759C130.033 140.7 129.685 142.207 130.665 143.931L133.843 149.537C134.044 149.969 134.344 150.348 134.719 150.642C135.095 150.936 135.534 151.137 136.002 151.228C135.998 151.189 135.998 151.149 136.002 151.11C135.923 150.682 136.238 150.182 136.646 150.261Z" fill="black"/>
<path d="M159.368 119.315L164.533 116.387C163.052 116.795 161.749 118.032 160.223 117.861C159.947 117.789 159.657 117.789 159.381 117.861C159.208 117.972 159.084 118.144 159.033 118.343C158.981 118.542 159.007 118.753 159.104 118.934C159.171 119.074 159.26 119.203 159.368 119.315Z" fill="black"/>
<path d="M146.411 126.665C146.399 126.551 146.422 126.437 146.477 126.336C146.604 126.38 146.737 126.402 146.871 126.402L148.655 125.395C148.934 125.079 149.252 124.801 149.602 124.566C149.94 124.385 150.298 124.244 150.668 124.145L151.063 124.026L154.353 122.171C154.388 122.104 154.434 122.043 154.491 121.993C154.542 121.959 154.597 121.933 154.656 121.914L151.26 120.888L150.346 121.401L150.247 122.125L146.332 124.217C145.944 124.459 145.513 124.623 145.062 124.698C144.894 124.717 144.724 124.717 144.555 124.698L138.975 127.863C139.02 128.127 139.095 128.385 139.199 128.632C138.872 128.572 138.561 128.444 138.285 128.257L137.14 128.915C137.956 129.455 138.758 130.008 139.541 130.593L146.411 126.665Z" fill="black"/>
<path d="M170.297 113.123L167.599 111.61L166.322 112.334C167.074 113.107 168.046 113.631 169.106 113.834L170.297 113.123Z" fill="black"/>
<path d="M184.805 129.054L174.619 111.097C174.223 110.402 173.568 109.893 172.798 109.68C172.027 109.466 171.204 109.567 170.507 109.958L169.283 110.656L169.75 111.11C170.237 111.597 170.737 112.09 171.191 112.61L171.81 112.261C171.895 112.214 171.997 112.201 172.091 112.227C172.186 112.253 172.267 112.315 172.316 112.4L182.509 130.363C182.556 130.45 182.568 130.551 182.54 130.646C182.513 130.741 182.45 130.821 182.364 130.87L168.5 138.766C169.698 138.838 170.908 138.667 172.106 138.805C172.537 138.86 172.966 138.936 173.389 139.035L183.667 133.206C184.016 133.009 184.323 132.746 184.569 132.43C184.816 132.115 184.997 131.753 185.103 131.367C185.209 130.981 185.237 130.578 185.186 130.181C185.135 129.783 185.005 129.4 184.805 129.054Z" fill="black"/>
<path d="M122.388 151.906L117.597 143.444C117.573 143.401 117.557 143.354 117.55 143.305C117.544 143.256 117.547 143.206 117.56 143.159C117.573 143.111 117.595 143.066 117.625 143.027C117.655 142.988 117.693 142.955 117.736 142.931L131.554 135.087C131.508 134.982 131.448 134.877 131.409 134.772C131.604 134.763 131.799 134.786 131.988 134.837L137.574 131.672C137.39 131.613 137.212 131.541 137.035 131.475L134.403 130.429L132.297 131.626L134.587 133.028C133.791 132.541 132.166 132.475 130.764 132.495L116.466 140.634C115.77 141.029 115.259 141.684 115.046 142.455C114.833 143.226 114.934 144.05 115.327 144.747L119.486 152.077C119.677 152.024 119.874 151.978 120.065 151.945C120.592 151.87 121.125 151.843 121.657 151.866C121.901 151.865 122.145 151.878 122.388 151.906Z" fill="black"/>
<path d="M139.456 155.209C139.691 155.419 139.957 155.59 140.246 155.716C140.542 155.847 140.937 156.163 140.706 156.374C139.64 156.861 138.324 156.499 137.278 157.032C136.706 157.308 136.153 157.854 135.541 157.69C136.281 158.139 136.947 158.701 137.515 159.355L163.644 144.536C163.644 144.431 163.677 144.326 163.697 144.214C163.697 144.007 163.745 143.803 163.837 143.617C163.928 143.431 164.061 143.268 164.224 143.142C164.388 143.015 164.579 142.927 164.781 142.885C164.984 142.842 165.194 142.847 165.394 142.898C165.733 142.883 166.073 142.919 166.401 143.003L169.658 141.154C169.211 140.384 168.682 139.665 168.079 139.009L139.456 155.209Z" fill="black"/>
<path d="M135.225 159.558C134.595 159.354 134.015 159.02 133.521 158.578L128.31 161.539C128.267 161.564 128.221 161.58 128.172 161.586C128.124 161.592 128.075 161.589 128.027 161.576C127.98 161.563 127.936 161.541 127.898 161.511C127.859 161.481 127.827 161.444 127.803 161.401L123.197 153.327C122.756 153.175 122.286 153.121 121.822 153.169C121.289 153.275 120.822 153.893 121.111 154.347C121.383 154.354 121.648 154.433 121.88 154.577C122.111 154.72 122.3 154.923 122.427 155.163C122.143 155.389 121.831 155.577 121.499 155.722L125.447 162.704C125.644 163.056 125.908 163.366 126.226 163.615C126.543 163.864 126.908 164.047 127.297 164.153C127.686 164.259 128.093 164.286 128.493 164.233C128.893 164.179 129.278 164.046 129.626 163.842L136.456 159.966L136.377 159.92C136 159.779 135.615 159.658 135.225 159.558Z" fill="black"/>
</g>
<path opacity="0.3" d="M105.595 136.061C109.609 139.009 112.965 153.169 113.268 166.152C113.57 179.134 119.848 201.026 120.598 204.612C121.348 208.198 121.071 213.37 125.73 206.171C130.389 198.973 144.016 186.477 149.694 190.629C155.373 194.781 145.812 208.737 140.634 216.252C135.455 223.766 134.929 236.998 128.724 245.283C122.519 253.567 116.913 266.075 110.833 265.885C104.753 265.694 64.4834 295.567 64.4834 295.567L65.273 254.679L101.463 195.459L105.595 136.061Z" fill="black" fill-opacity="0.7"/>
<path d="M152.998 192.636C152.794 193.919 145.707 203.309 141.542 210.336C137.377 217.364 133.475 229.596 132.429 231.392C131.382 233.189 118.611 244.408 115.11 249.099C111.61 253.791 105.359 255.863 99.1141 260.285C95.1003 263.128 82.5918 277.794 74.1628 287.921C69.4778 293.547 66.0496 297.791 66.0496 297.791L12.166 283.743C12.166 283.743 16.6273 280.065 22.4966 275.103H22.5361L22.5953 275.057C32.2416 266.865 45.6845 255.304 49.3957 250.941C55.3769 243.914 63.7072 235.564 63.7072 235.564C63.2005 225.806 64.2336 216.561 63.3189 213.047C62.8452 211.211 62.0029 200.769 61.3449 197.558C59.746 189.353 52.7909 180.851 52.0079 177.502C51.2249 174.153 42.0458 159.894 46.5268 157.262C47.3414 156.749 48.3097 156.537 49.2641 156.663C55.3177 157.499 60.3053 172.12 63.7401 175.844C65.2118 177.607 66.545 179.481 67.7275 181.45C70.4385 185.747 73.0968 190.577 73.0968 190.577C74.1365 186.411 66.5892 171.574 64.5033 157.519C62.4175 143.464 56.4363 135.917 64.5033 135.048C65.1662 134.974 65.8372 135.032 66.4773 135.219C72.1559 136.877 74.6168 148.675 78.0121 160.124C78.3279 161.177 80.9139 168.738 82.9273 174.567C84.2433 178.384 85.2961 181.457 85.2961 181.457C85.5528 174.298 83.3221 167.639 82.9537 161.151C82.7957 158.552 83.6117 148.136 82.5852 137.726C81.7035 128.942 82.1048 125.382 85.5396 124.691C86.2753 124.559 87.0253 124.523 87.7702 124.586C93.7251 124.961 95.8373 140.786 95.8373 146.958C95.8373 150.544 96.4492 157.545 96.9625 162.796C97.3375 166.592 97.66 169.475 97.66 169.475C97.66 169.475 98.6996 160.756 97.9232 141.95C97.7455 137.831 98.0153 134.883 99.6339 133.692C100.522 133.034 101.805 132.923 103.648 133.423C108.853 134.831 110.544 154.117 110.544 161.407C110.544 168.698 114.709 181.187 115.492 191.017C116.275 200.848 119.683 212.929 119.683 212.929C119.683 212.929 121.611 213.712 122.907 213.455C124.204 213.199 133.192 199.92 133.192 199.92C137.377 190.833 145.523 188.076 149.958 189.096C151.998 189.563 153.314 190.82 152.998 192.636Z" fill="white"/>
<path opacity="0.4" d="M152.998 192.636C152.794 193.919 145.707 203.309 141.542 210.336C137.377 217.364 133.475 229.596 132.429 231.392C131.383 233.189 118.611 244.408 115.11 249.099C111.61 253.791 105.359 255.863 99.1145 260.285C95.1007 263.128 82.5921 277.794 74.1631 287.921C75.0909 284.249 77.1701 279.558 82.6052 275.051C92.0409 267.214 92.6068 261.068 97.68 255.863C102.753 250.659 111.689 252.218 114.9 245.993C118.111 239.769 129.31 234.018 131.653 228.55C133.995 223.082 129.31 221.924 133.475 215.344C137.64 208.764 141.68 207.165 141.088 204.585C140.496 202.006 138.746 198.097 142.358 194.84C144.615 192.814 147.267 190.267 149.978 189.096C151.998 189.563 153.314 190.82 152.998 192.636Z" fill="#407BFF"/>
<path opacity="0.4" d="M85.4873 223.523C83.7568 222.654 85.1452 220.924 83.9279 219.483C82.7106 218.041 79.9338 227.346 79.3219 227.379C78.7099 227.411 76.8478 222.647 76.1108 222.174C75.3739 221.7 74.9396 223.694 73.8934 227.379C72.8472 231.063 69.0044 232.932 66.7738 235.564C64.5432 238.196 51.1266 252.508 47.83 257.883C44.5334 263.259 24.1749 273.899 22.5957 275.044C32.242 266.865 45.6849 255.304 49.396 250.941C55.3773 243.914 63.7075 235.564 63.7075 235.564C63.2009 225.806 64.2339 216.561 63.3193 213.047C62.8456 211.211 62.0033 200.769 61.3453 197.558C59.7464 189.353 52.7913 180.851 52.0083 177.502C51.2253 174.153 42.0462 159.894 46.5272 157.262C47.3418 156.749 48.3101 156.537 49.2644 156.663C48.2445 157.387 47.251 158.427 48.1787 159.953C49.8303 162.625 51.6464 165.434 51.6464 168.389C51.6464 171.343 56.6801 175.502 58.6344 178.259C60.5886 181.016 58.766 180.042 60.0688 183.819C61.3716 187.596 62.9311 186.806 63.7075 190.623C64.484 194.439 68.8268 196.874 68.1359 201.631C67.445 206.388 70.2152 213.008 70.2152 213.008C70.2152 213.008 72.4721 206.592 71.6496 203.138C70.8271 199.683 71.7812 195.327 70.9916 194.156C70.3336 193.103 68.5307 185.957 67.7016 181.516C70.4126 185.813 73.0709 190.642 73.0709 190.642C74.1105 186.477 66.5633 171.639 64.4774 157.584C62.3915 143.53 56.4103 135.982 64.4774 135.114C65.1402 135.039 65.8112 135.098 66.4514 135.285C69.8927 141.713 67.4976 146.471 66.7343 149.261C65.8987 152.301 70.8732 160.105 71.6101 165.48C72.2681 170.501 73.6236 169.981 73.8013 169.889C73.6499 170.027 72.3668 171.337 73.1433 175.061C73.9526 179.009 79.7233 188.385 79.7233 191.004C79.7233 193.623 79.2495 197.933 79.2495 199.21C79.2495 200.486 83.8555 209.027 84.4082 211.264C84.9609 213.501 84.1911 206.954 85.4479 204.684C86.7046 202.414 87.3692 194.492 87.5337 194.919C89.6985 200.42 87.2245 224.378 85.4873 223.523Z" fill="#407BFF"/>
<path opacity="0.4" d="M89.2175 164.724C87.7436 166.954 87.7831 184.365 85.2695 184.424C84.0522 184.424 83.46 180.049 82.9665 174.554C84.2825 178.371 85.3353 181.444 85.3353 181.444C85.5919 174.284 83.3613 167.626 82.9928 161.138C82.8349 158.539 83.6508 148.122 82.6244 137.713C81.7426 128.929 82.144 125.369 85.5788 124.678C86.3026 127.02 88.0792 129.784 88.5332 132.35C89.1517 135.89 87.941 138.818 86.9014 139.259C85.8617 139.7 85.6841 141.983 86.9869 142.319C88.2897 142.654 86.9869 159.269 87.5923 161.401C88.1976 163.533 90.698 162.526 89.2175 164.724Z" fill="#407BFF"/>
<path opacity="0.4" d="M102.74 145.234C100.035 146.425 99.8906 148.557 99.0813 151.616C98.2719 154.676 100.239 159.144 99.0813 166.165C97.9232 173.186 102.148 177.713 99.0813 185.569C96.015 193.426 97.456 178.989 96.9428 172.409C96.7659 169.205 96.7791 165.992 96.9822 162.789C97.3573 166.586 97.6797 169.468 97.6797 169.468C97.6797 169.468 98.7194 160.749 97.9429 141.944C97.7653 137.825 98.035 134.877 99.6537 133.686C102.43 136.206 105.043 144.22 102.74 145.234Z" fill="#407BFF"/>
<path d="M66.0492 297.798C66.0492 297.798 92.8627 264.74 99.1137 260.292C105.365 255.844 111.616 253.784 115.11 249.106C118.604 244.427 131.389 233.222 132.428 231.399C133.468 229.576 137.376 217.344 141.542 210.343C145.707 203.342 152.793 193.893 152.997 192.643C153.905 186.912 139.331 186.655 133.211 199.933C133.211 199.933 124.23 213.205 122.927 213.468C121.624 213.732 119.702 212.942 119.702 212.942C119.702 212.942 116.294 200.868 115.511 191.031C114.728 181.194 110.563 168.692 110.563 161.421C110.563 154.15 108.872 134.844 103.667 133.436C98.4623 132.028 97.6727 135.594 97.9424 141.99C98.7189 160.796 97.6792 169.514 97.6792 169.514C97.6792 169.514 95.8566 153.176 95.8566 146.997C95.8566 140.819 93.7444 124.994 87.7895 124.625C82.3215 124.277 81.5582 127.349 82.6044 137.785C83.6507 148.221 82.815 158.611 82.9729 161.21C83.3611 167.718 85.6049 174.37 85.3154 181.516C85.3154 181.516 78.5446 161.914 78.0248 160.17C74.2544 147.392 71.6422 134.232 64.4831 135.022C56.416 135.89 62.4038 143.438 64.4831 157.492C66.5624 171.547 74.1162 186.385 73.0766 190.55C73.0766 190.55 66.8322 179.213 63.7198 175.818C59.7718 171.547 53.8104 152.939 46.5197 157.236C42.0387 159.868 51.2442 174.173 52.0206 177.522C52.797 180.871 59.7587 189.366 61.3576 197.578C62.0156 200.789 62.8381 211.231 63.3316 213.067C64.2462 216.581 63.2132 225.826 63.7198 235.584C63.7198 235.584 55.3896 243.914 49.4083 250.942C43.4271 257.969 12.1787 283.743 12.1787 283.743" stroke="#263238" stroke-linecap="round" stroke-linejoin="round"/>
<path d="M119.703 212.935C120.904 215.9 120.904 219.216 119.703 222.18" stroke="#263238" stroke-linecap="round" stroke-linejoin="round"/>
<path d="M121.895 213.488C122.641 214.037 123.195 214.808 123.475 215.692C123.756 216.575 123.748 217.525 123.454 218.403" stroke="#263238" stroke-linecap="round" stroke-linejoin="round"/>
<path d="M97.6797 169.468C97.6797 169.468 99.7655 184.174 98.8509 186.905" stroke="#263238" stroke-linecap="round" stroke-linejoin="round"/>
<path d="M85.3154 181.443C85.5388 182.865 85.5388 184.312 85.3154 185.734" stroke="#263238" stroke-linecap="round" stroke-linejoin="round"/>
<path d="M73.084 190.55C73.084 190.55 73.4722 192.768 73.084 193.288" stroke="#263238" stroke-linecap="round" stroke-linejoin="round"/>
<path d="M139.068 203.046C139.068 203.046 141.424 204.322 142.194 206.171" stroke="#263238" stroke-linecap="round" stroke-linejoin="round"/>
<path d="M85.4014 141.944C86.1649 142.127 86.9623 142.115 87.7201 141.91C88.4779 141.704 89.1717 141.31 89.7376 140.766" stroke="#263238" stroke-linecap="round" stroke-linejoin="round"/>
<path d="M86.1973 163.092C86.1973 163.092 90.8822 164.651 92.5799 163.092" stroke="#263238" stroke-linecap="round" stroke-linejoin="round"/>
<path d="M101.457 167.645C101.457 167.645 104.576 166.474 106.662 167.125" stroke="#263238" stroke-linecap="round" stroke-linejoin="round"/>
<path d="M71.6494 171.81C71.6494 171.81 74.1235 168.553 76.0778 169.468" stroke="#263238" stroke-linecap="round" stroke-linejoin="round"/>
<path d="M61.4961 181.443C61.4961 181.443 59.2852 182.483 58.6338 183.589" stroke="#263238" stroke-linecap="round" stroke-linejoin="round"/>
<path d="M63.707 235.564C64.2494 234.955 64.7299 234.294 65.1415 233.59C65.5297 232.807 65.0099 224.477 65.1415 219.114" stroke="#263238" stroke-linecap="round" stroke-linejoin="round"/>
<path d="M91.0139 268.359C87.9476 271.794 78.5448 278.018 74.7744 281.789" stroke="#263238" stroke-linecap="round" stroke-linejoin="round"/>
<path d="M103.404 190.55C101.845 194.979 103.536 200.572 103.404 203.052C103.272 205.533 102.746 216.87 102.746 216.87" stroke="#263238" stroke-linecap="round" stroke-linejoin="round"/>
<path d="M89.2175 190.55C87.1382 194.064 87.7896 198.749 88.441 201.078C89.0924 203.408 88.5134 212.922 88.5134 212.922" stroke="#263238" stroke-linecap="round" stroke-linejoin="round"/>
<path d="M66.8325 201.743C66.6602 204.034 67.1151 206.33 68.1485 208.382" stroke="#263238" stroke-linecap="round" stroke-linejoin="round"/>
<path d="M79.7164 194.847C78.5451 199.144 80.1112 201.091 80.2428 201.743" stroke="#263238" stroke-linecap="round" stroke-linejoin="round"/>
<path opacity="0.3" d="M184.379 168.21L182.161 155.34C182.063 154.768 182.082 154.182 182.216 153.618C182.351 153.053 182.598 152.522 182.942 152.055C183.287 151.589 183.723 151.197 184.223 150.903C184.723 150.609 185.277 150.42 185.853 150.345L190.821 149.687C190.821 149.687 189.162 146.325 194.499 136.527C199.835 126.73 225.491 100.706 244.941 144.423C264.392 188.141 282.164 277.227 282.164 277.227C282.164 277.227 229.662 216.086 227.991 212.954C226.32 209.822 210.337 211.697 206.646 203.295C202.954 194.892 195.203 170.914 195.203 170.914L189.202 171.737C188.098 171.886 186.979 171.602 186.08 170.945C185.181 170.287 184.571 169.307 184.379 168.21Z" fill="black" fill-opacity="0.7"/>
<path d="M230.649 138.679L220.575 140.508L206.573 143.055L188.234 146.391C187.883 146.455 187.522 146.45 187.172 146.375C186.822 146.299 186.491 146.156 186.197 145.952C185.903 145.749 185.652 145.489 185.459 145.188C185.265 144.888 185.133 144.552 185.069 144.2L181.043 122.058C180.916 121.348 181.075 120.617 181.486 120.024C181.896 119.431 182.524 119.024 183.234 118.893L193.9 116.919L209.415 114.103L225.648 111.148C226 111.084 226.361 111.089 226.711 111.164C227.06 111.24 227.392 111.383 227.686 111.587C227.98 111.79 228.231 112.05 228.424 112.351C228.618 112.651 228.75 112.987 228.813 113.339L232.84 135.481C232.91 135.835 232.908 136.2 232.835 136.553C232.762 136.906 232.619 137.242 232.415 137.539C232.211 137.837 231.95 138.091 231.647 138.287C231.344 138.483 231.004 138.616 230.649 138.679Z" fill="#407BFF"/>
<mask id="mask0_62_2746" style="mask-type:luminance" maskUnits="userSpaceOnUse" x="181" y="111" width="52" height="36">
<path d="M230.649 138.679L220.575 140.508L206.573 143.055L188.234 146.391C187.883 146.455 187.522 146.45 187.172 146.375C186.822 146.299 186.491 146.156 186.197 145.952C185.903 145.749 185.652 145.489 185.459 145.188C185.265 144.888 185.133 144.552 185.069 144.2L181.043 122.058C180.916 121.348 181.075 120.617 181.486 120.024C181.896 119.431 182.524 119.024 183.234 118.893L193.9 116.919L209.415 114.103L225.648 111.148C226 111.084 226.361 111.089 226.711 111.164C227.06 111.24 227.392 111.383 227.686 111.587C227.98 111.79 228.231 112.05 228.424 112.351C228.618 112.651 228.75 112.987 228.813 113.339L232.84 135.481C232.91 135.835 232.908 136.2 232.835 136.553C232.762 136.906 232.619 137.242 232.415 137.539C232.211 137.837 231.95 138.091 231.647 138.287C231.344 138.483 231.004 138.616 230.649 138.679Z" fill="white"/>
</mask>
<g mask="url(#mask0_62_2746)">
<path opacity="0.3" d="M223.523 123.979L220.575 140.508L206.573 143.055C202.52 141.271 195.834 138.166 194.499 136.475C192.906 134.501 193.13 122.867 193.9 116.919L209.415 114.103C214.883 117.873 223.523 123.979 223.523 123.979Z" fill="black" fill-opacity="0.7"/>
<path opacity="0.3" d="M191.018 145.884L188.234 146.391C187.883 146.455 187.522 146.45 187.172 146.374C186.822 146.299 186.491 146.156 186.197 145.952C185.903 145.749 185.652 145.489 185.459 145.188C185.265 144.888 185.133 144.552 185.069 144.2L181.043 122.058C180.916 121.348 181.075 120.617 181.486 120.024C181.896 119.431 182.524 119.024 183.234 118.893L186.01 118.386C185.302 118.517 184.674 118.924 184.264 119.517C183.855 120.111 183.697 120.842 183.826 121.551L187.853 143.693C187.916 144.045 188.048 144.381 188.242 144.682C188.435 144.982 188.686 145.242 188.98 145.445C189.274 145.649 189.606 145.793 189.955 145.868C190.305 145.943 190.666 145.949 191.018 145.884Z" fill="black" fill-opacity="0.7"/>
</g>
<path d="M230.649 138.679L220.575 140.508L206.573 143.055L188.234 146.391C187.883 146.455 187.522 146.45 187.172 146.375C186.822 146.299 186.491 146.156 186.197 145.952C185.903 145.749 185.652 145.489 185.459 145.188C185.265 144.888 185.133 144.552 185.069 144.2L181.043 122.058C180.916 121.348 181.075 120.617 181.486 120.024C181.896 119.431 182.524 119.024 183.234 118.893L193.9 116.919L209.415 114.103L225.648 111.148C226 111.084 226.361 111.089 226.711 111.164C227.06 111.24 227.392 111.383 227.686 111.587C227.98 111.79 228.231 112.05 228.424 112.351C228.618 112.651 228.75 112.987 228.813 113.339L232.84 135.481C232.91 135.835 232.908 136.2 232.835 136.553C232.762 136.906 232.619 137.242 232.415 137.539C232.211 137.837 231.95 138.091 231.647 138.287C231.344 138.483 231.004 138.616 230.649 138.679Z" stroke="#263238" stroke-linecap="round" stroke-linejoin="round"/>
<path d="M227.657 109.978L185.414 117.737C183.939 118.008 182.964 119.423 183.234 120.897L187.284 142.945C187.555 144.419 188.97 145.395 190.444 145.124L232.687 137.365C234.162 137.094 235.138 135.679 234.867 134.205L230.817 112.158C230.546 110.683 229.132 109.708 227.657 109.978Z" stroke="#263238" stroke-width="0.996394" stroke-linecap="round" stroke-linejoin="round"/>
<path d="M226.475 112.641L186.667 119.876C185.952 120.005 185.477 120.691 185.607 121.406L189.572 143.223C189.702 143.938 190.387 144.412 191.102 144.282L230.911 137.048C231.626 136.918 232.1 136.233 231.97 135.518L228.005 113.701C227.875 112.986 227.19 112.511 226.475 112.641Z" stroke="#263238" stroke-linecap="round" stroke-linejoin="round"/>
<path d="M233.433 138.172L230.669 138.672C231.375 138.54 231.999 138.133 232.406 137.541C232.813 136.949 232.969 136.221 232.84 135.514L228.813 113.372C228.75 113.02 228.618 112.684 228.424 112.384C228.231 112.083 227.98 111.823 227.686 111.62C227.392 111.416 227.06 111.273 226.711 111.197C226.361 111.122 226 111.117 225.648 111.181L228.432 110.674C229.142 110.548 229.873 110.707 230.466 111.118C231.059 111.528 231.465 112.156 231.597 112.866L235.624 135.007C235.75 135.717 235.591 136.449 235.181 137.042C234.77 137.635 234.142 138.041 233.433 138.172Z" stroke="#263238" stroke-linecap="round" stroke-linejoin="round"/>
<path d="M313.465 209.098L286.217 282.189C286.217 282.189 274.82 260.475 264.292 240.379C255.883 224.311 248.027 209.243 246.967 207.025C244.592 202.031 236.479 191.569 236.479 191.569C236.479 191.569 228.155 186.805 224.345 178.508C220.535 170.21 216.344 140.528 216.344 140.528C216.344 140.528 205.401 136.409 202.789 134.606C200.177 132.803 197.795 116.142 197.795 114.241C197.795 112.339 200.427 108.529 200.427 108.529C200.427 108.529 199.841 105.739 203.184 102.923C204.277 102.026 205.488 101.285 206.783 100.719H206.849C206.849 100.719 206.415 94.4219 209.692 92.5861C209.848 92.4975 210.011 92.4206 210.178 92.3558C213.1 91.2306 222.68 89.7764 222.68 89.7764C224.035 88.5863 225.611 87.6761 227.319 87.0983C229.017 86.6312 238.334 88.796 243.539 90.0791C245.632 90.5923 247.059 90.9608 247.059 90.9608C247.059 90.9608 255.863 91.3622 257.528 92.3558C258.689 93.1171 259.751 94.0213 260.687 95.047L260.851 95.2378C260.851 95.2378 268.701 96.8696 270.366 99.7451C272.03 102.621 272.741 116.886 271.557 126.157C270.372 135.428 272.498 151.161 272.498 151.161C272.498 151.161 274.952 163.314 276.854 167.927C278.755 172.54 313.465 209.098 313.465 209.098Z" fill="white"/>
<path opacity="0.4" d="M264.292 240.379C255.883 224.311 248.027 209.243 246.967 207.025C244.592 202.031 236.479 191.569 236.479 191.569C236.479 191.569 228.155 186.805 224.345 178.508C220.535 170.21 216.344 140.528 216.344 140.528C216.344 140.528 205.401 136.409 202.789 134.606C200.177 132.803 197.795 116.142 197.795 114.241C197.795 112.339 200.427 108.529 200.427 108.529C200.427 108.529 199.841 105.739 203.184 102.923C203.184 103.673 203.184 104.937 203.184 106.924C203.105 110.694 207.546 133.428 208.645 132.737C209.744 132.046 211.442 130.382 210.994 128.914C210.994 128.914 208.843 120.09 206.81 100.719H206.875C206.875 100.719 206.441 94.4219 209.718 92.5861C209.154 93.9496 208.793 95.3883 208.645 96.8565C208.573 99.9228 212.218 126.197 213.646 126.861C215.074 127.526 218.693 124.025 218.693 124.025C218.693 124.025 217.456 116.57 217.897 113.392C217.897 113.392 228.905 120.104 229.234 127.723C229.267 128.559 231.379 140.502 231.379 140.502C231.379 140.502 221.911 158.531 231.577 174.981C231.577 174.981 226.661 172.033 225.49 167.348C225.49 167.348 224.062 181.127 234.215 188.404C234.215 188.404 241.499 181.252 248.691 180.344C248.691 180.344 248.823 180.817 244.006 184.614C239.19 188.411 238.538 190.102 238.538 190.102C238.538 190.102 243.75 184.838 247.915 184.614C247.915 184.614 243.618 189.582 243.75 190.621C243.881 191.661 256.035 212.441 260.456 226.936C262.259 232.99 263.49 237.359 264.292 240.379Z" fill="#407BFF"/>
<path opacity="0.4" d="M230.169 102.476C230.169 102.476 233.676 105.108 234.716 102.476C235.313 101.067 235.692 99.5765 235.841 98.0541C235.841 98.0541 237.19 97.4356 238.473 100.686C239.756 103.937 252.62 104.766 255.634 106.43C258.647 108.095 259.845 106.43 259.845 106.43C260.547 107.007 261.028 107.809 261.208 108.699C261.388 109.59 261.255 110.515 260.832 111.319C259.371 114.34 263.51 114.609 265.115 112.385C266.721 110.161 265.477 118.748 261.509 119.623C261.509 119.623 261.621 123.374 259.068 125.947H261.233C261.233 125.947 255.469 130.52 253.936 130.77C252.403 131.02 259.641 133.579 258.298 134.119C256.956 134.659 253.153 134.613 253.153 134.613C253.153 134.613 255.614 136.317 255.634 137.442C255.653 138.567 254.469 139.416 253.936 138.475C253.403 137.534 249.152 124.058 247.033 119.077C244.915 114.096 236.163 110.155 230.169 102.476Z" fill="#407BFF"/>
<path opacity="0.4" d="M260.68 95.001C253.297 92.9809 243.395 90.1055 243.395 90.1055L243.533 90.0331C245.625 90.5463 247.053 90.9148 247.053 90.9148C247.053 90.9148 255.857 91.3162 257.522 92.3098C258.683 93.0711 259.744 93.9752 260.68 95.001Z" fill="#407BFF"/>
<path d="M250.297 106.615C243.875 105.299 239.289 110.786 239.289 110.786C239.289 110.786 245.672 116.564 247.086 119.044C248.501 121.525 250.85 129.888 250.85 129.888C253.541 130.322 258.503 127.546 259.694 120.176C260.885 112.806 256.687 107.924 250.297 106.615Z" fill="#407BFF"/>
<path d="M286.217 282.189C286.217 282.189 249.369 212.02 246.967 207.025C244.566 202.031 236.479 191.569 236.479 191.569C236.479 191.569 228.155 186.805 224.345 178.508C220.535 170.21 216.344 140.528 216.344 140.528C216.344 140.528 205.401 136.409 202.789 134.606C200.177 132.803 197.795 116.142 197.795 114.241C197.795 112.339 200.427 108.529 200.427 108.529C200.427 108.529 199.479 104.022 206.849 100.686C206.849 100.686 206.375 93.7836 210.178 92.3229C213.1 91.1977 222.68 89.7435 222.68 89.7435C224.035 88.5534 225.611 87.6432 227.319 87.0654C229.695 86.4074 247.059 90.9279 247.059 90.9279C247.059 90.9279 255.863 91.3293 257.528 92.3229C258.746 93.126 259.854 94.0837 260.825 95.172C260.825 95.172 268.675 96.8039 270.339 99.6793C272.004 102.555 272.715 116.82 271.53 126.091C270.346 135.363 272.471 151.095 272.471 151.095C272.471 151.095 274.926 163.249 276.827 167.861C278.729 172.474 313.465 209.098 313.465 209.098" stroke="#263238" stroke-linecap="round" stroke-linejoin="round"/>
<path d="M255.022 139.561C255.022 139.561 253.357 139.205 251.218 131.355C249.08 123.506 248.514 119.834 244.079 115.182C240.934 111.892 233.735 106.516 230.169 102.476C226.603 98.4358 222.661 95.1721 219.582 97.6725C217.121 99.6465 215.515 104.772 217.68 112.681C220.464 122.841 229.241 127.677 229.241 127.677L231.386 140.456C231.386 140.456 222.076 159.103 232.571 176.705" stroke="#263238" stroke-linecap="round" stroke-linejoin="round"/>
<path d="M239.256 110.786C239.256 110.786 243.862 105.305 250.264 106.615C256.667 107.924 260.825 112.8 259.66 120.176C258.496 127.552 253.508 130.322 250.817 129.888" stroke="#263238" stroke-linecap="round" stroke-linejoin="round"/>
<path d="M222.661 89.7303C221.7 92.1477 220.96 94.6474 220.45 97.1987" stroke="#263238" stroke-linecap="round" stroke-linejoin="round"/>
<path d="M218.766 115.498C218.766 115.498 219.318 123.624 220.463 126.118C221.608 128.612 223.51 130.638 224.339 133.849C225.168 137.06 225.293 142.055 225.53 142.772C225.767 143.489 227.142 143.673 227.142 143.673C229.116 143.719 229.912 142.693 231.05 141.127" stroke="#263238" stroke-linecap="round" stroke-linejoin="round"/>
<path d="M206.869 100.673C206.869 100.673 208.652 118.031 210.08 125.407C211.508 132.783 214.028 133.849 218.167 136.231C222.306 138.613 224.589 143.469 224.951 144.2C225.313 144.93 226.668 145.009 226.668 145.009C227.465 144.943 228.232 144.679 228.901 144.241C229.57 143.803 230.119 143.205 230.498 142.502" stroke="#263238" stroke-linecap="round" stroke-linejoin="round"/>
<path d="M200.434 108.516C199.986 109.207 203.803 126.835 205.79 131.948C207.777 137.06 208.001 137.87 213.258 139.317C218.515 140.765 222.51 143.173 223.931 142.324" stroke="#263238" stroke-linecap="round" stroke-linejoin="round"/>
<path d="M236.946 98.7646C236.946 98.7646 239.677 105.305 237.874 109.608" stroke="#263238" stroke-linecap="round" stroke-linejoin="round"/>
<path d="M247.053 90.9148C251.528 92.6839 256.132 94.1072 260.825 95.1721" stroke="#263238" stroke-linecap="round" stroke-linejoin="round"/>
<path d="M265.135 113.517C265.135 113.517 263.043 117.34 259.871 118.163" stroke="#263238" stroke-linecap="round" stroke-linejoin="round"/>
<path d="M259.865 109.352C259.865 109.352 259.115 111.326 258.318 111.872" stroke="#263238" stroke-linecap="round" stroke-linejoin="round"/>
<path d="M262.497 125.052C262.497 125.052 257.739 128.651 253.173 129.585" stroke="#263238" stroke-linecap="round" stroke-linejoin="round"/>
<path d="M251.218 131.362C251.218 131.362 253.192 133.856 258.318 134.093" stroke="#263238" stroke-linecap="round" stroke-linejoin="round"/>
<path d="M235.821 120.446C235.821 120.446 240.48 115.971 243.138 116.59" stroke="#263238" stroke-linecap="round" stroke-linejoin="round"/>
<path d="M244.941 121.354C244.941 121.354 241.414 123.986 240.77 123.986" stroke="#263238" stroke-linecap="round" stroke-linejoin="round"/>
<path d="M208.626 135.31C208.626 135.31 209.797 135.527 210.712 134.112" stroke="#263238" stroke-linecap="round" stroke-linejoin="round"/>
<path d="M212.791 128.901C212.791 128.901 215.62 127.151 217.469 126.815" stroke="#263238" stroke-linecap="round" stroke-linejoin="round"/>
<path d="M237.716 188.253C238.301 187.733 243.769 183.311 247.152 181.745" stroke="#263238" stroke-linecap="round" stroke-linejoin="round"/>
<path d="M244.809 186.16C244.421 186.042 241.315 189.292 239.677 190.595" stroke="#263238" stroke-linecap="round" stroke-linejoin="round"/>
<path d="M246.349 195.8C246.349 195.8 256.765 215.54 259.107 223.436" stroke="#263238" stroke-linecap="round" stroke-linejoin="round"/>
<path d="M276.854 167.888C277.735 172.737 280.598 176.31 282.164 178.244" stroke="#263238" stroke-linecap="round" stroke-linejoin="round"/>
<path opacity="0.4" d="M244.019 108.516C242.506 109.451 244.098 112.504 244.94 114.063C245.783 115.623 249.546 118.103 250.329 120.446C251.112 122.788 256.061 122.722 257.567 120.446C259.074 118.169 258.883 113.622 254.778 110.161C250.672 106.7 246.171 107.2 244.019 108.516Z" fill="white"/>
<path d="M216.185 237.913C209.484 236.774 202.595 237.939 196.641 241.218C190.686 244.497 186.019 249.697 183.399 255.969C180.779 262.241 180.362 269.216 182.215 275.756C184.068 282.296 188.082 288.015 193.603 291.981" stroke="#263238" stroke-linecap="round" stroke-linejoin="round"/>
<path d="M228.721 243.157C225.931 241.143 222.815 239.625 219.509 238.67" stroke="#263238" stroke-linecap="round" stroke-linejoin="round"/>
<path d="M225.693 293.85C229.749 291.604 233.23 288.451 235.864 284.637C238.499 280.823 240.215 276.451 240.879 271.863C241.543 267.275 241.137 262.596 239.692 258.192C238.247 253.787 235.802 249.777 232.55 246.474" stroke="#263238" stroke-linecap="round" stroke-linejoin="round"/>
<path d="M227.148 303.338L228.937 304.917L226.147 295.356" stroke="#263238" stroke-linecap="round" stroke-linejoin="round"/>
<path d="M206.092 297.192C210.516 297.951 215.054 297.706 219.37 296.475L225.036 301.476" stroke="#263238" stroke-linecap="round" stroke-linejoin="round"/>
<path d="M199.196 295.152C200.319 295.636 201.471 296.052 202.644 296.396" stroke="#263238" stroke-linecap="round" stroke-linejoin="round"/>
<path d="M213.514 252.929C217.241 253.566 220.595 255.575 222.915 258.561C225.234 261.546 226.353 265.292 226.049 269.061C225.746 272.83 224.043 276.349 221.275 278.925C218.507 281.501 214.875 282.947 211.094 282.98C207.313 283.012 203.657 281.628 200.846 279.1C198.034 276.572 196.27 273.083 195.902 269.32C195.534 265.557 196.588 261.793 198.856 258.767C201.124 255.742 204.442 253.676 208.158 252.975" stroke="#263238" stroke-linecap="round" stroke-linejoin="round"/>
<path d="M208.158 284.374C203.776 283.628 199.869 281.171 197.297 277.545C194.726 273.918 193.7 269.419 194.445 265.036" stroke="#263238" stroke-linecap="round" stroke-linejoin="round"/>
<path d="M226.739 273.544C225.708 276.398 223.921 278.918 221.57 280.837C219.219 282.756 216.391 284.001 213.389 284.44" stroke="#263238" stroke-linecap="round" stroke-linejoin="round"/>
<path d="M195.735 260.851C197.434 257.157 200.418 254.206 204.13 252.548C207.842 250.89 212.031 250.637 215.916 251.837C219.8 253.037 223.117 255.608 225.247 259.071C227.378 262.534 228.177 266.653 227.497 270.662" stroke="#263238" stroke-linecap="round" stroke-linejoin="round"/>
<path d="M205 274L217 262M205 262L217 274" stroke="black" stroke-linecap="round" stroke-linejoin="round"/>
</svg>
