<svg width="255" height="240" viewBox="0 0 255 240" fill="none" xmlns="http://www.w3.org/2000/svg">
<path opacity="0.7" d="M117.802 0.974924C189.69 -5.28655 189.835 34.5194 222.236 71.6328C254.638 108.746 261.566 125.567 249.333 168.35C237.101 211.133 195.997 244.666 145.061 225.665C94.1255 206.664 64.9761 224.908 32.8643 208.019C0.75248 191.13 -11.196 158.548 12.3299 120.125C35.8558 81.7024 29.1366 8.72777 117.802 0.974924Z" fill="#C6D7FF"/>
<path d="M169.96 65.8142H183.241C185.594 65.8142 187.851 66.7319 189.514 68.3654C191.178 69.999 192.113 72.2145 192.113 74.5247C192.113 76.8349 191.178 79.0504 189.514 80.6839C187.851 82.3175 185.594 83.2352 183.241 83.2352H162.896C161.731 83.2358 160.577 83.011 159.5 82.5735C158.423 82.136 157.445 81.4944 156.621 80.6854C155.797 79.8764 155.144 78.9159 154.698 77.8588C154.253 76.8017 154.024 75.6688 154.024 74.5247C154.024 72.2145 154.959 69.999 156.623 68.3654C158.286 66.7319 160.543 65.8142 162.896 65.8142" stroke="#263238" stroke-width="0.210064" stroke-miterlimit="10"/>
<path d="M165.931 65.8041H168.251" stroke="#263238" stroke-width="0.210064" stroke-miterlimit="10"/>
<path d="M166.659 72.9217V73.461H166.017V72.8712C166.017 72.3319 165.802 72.0093 165.304 72.0093C164.806 72.0093 164.606 72.3672 164.606 72.8712V76.0217C164.606 76.5611 164.832 76.8837 165.314 76.8837C165.797 76.8837 166.028 76.5611 166.028 76.0217V75.2455H166.659V75.9865C166.659 76.8938 166.223 77.4987 165.288 77.4987C164.354 77.4987 163.923 76.9039 163.923 75.9865V72.9217C163.923 72.0194 164.359 71.4094 165.288 71.4094C166.218 71.4094 166.659 72.0194 166.659 72.9217Z" fill="#263238"/>
<path d="M167.979 76.2486L167.743 77.4484H167.116L168.282 71.4851H169.262L170.422 77.4484H169.74L169.503 76.2486H167.979ZM168.066 75.679H169.416L168.713 72.2311L168.066 75.679Z" fill="#263238"/>
<path d="M171.556 77.4484H170.945V71.4851H171.792L173.199 75.795V71.4851H173.795V77.4484H173.091L171.551 72.6243L171.556 77.4484Z" fill="#263238"/>
<path d="M177.188 72.9217V73.461H176.547V72.8712C176.547 72.3319 176.331 72.0093 175.833 72.0093C175.335 72.0093 175.124 72.3319 175.124 72.8712V76.0217C175.124 76.5611 175.35 76.8837 175.833 76.8837C176.316 76.8837 176.547 76.5611 176.547 76.0217V75.2455H177.188V75.9865C177.188 76.8938 176.757 77.4987 175.818 77.4987C174.878 77.4987 174.457 76.9039 174.457 75.9865V72.9217C174.457 72.0194 174.888 71.4094 175.818 71.4094C176.747 71.4094 177.188 72.0194 177.188 72.9217Z" fill="#263238"/>
<path d="M179.966 74.1265V74.7213H178.467V76.8435H180.289V77.4484H177.789V71.4851H180.289V72.09H178.467V74.1063L179.966 74.1265Z" fill="#263238"/>
<path d="M180.932 77.4484V71.4851H181.609V76.8435H183.345V77.4484H180.932Z" fill="#263238"/>
<path d="M119.052 12.4928C118.396 12.3199 117.729 12.1936 117.055 12.1147M115.407 12.019C111.907 12.0104 108.53 13.2827 105.934 15.5876C103.338 17.8924 101.71 21.0644 101.367 24.4843C101.025 27.9043 101.993 31.3267 104.082 34.0837C106.171 36.8406 109.232 38.7342 112.667 39.3948C116.101 40.0554 119.663 39.4356 122.658 37.6564C125.652 35.8772 127.864 33.0662 128.861 29.7722C129.858 26.4782 129.569 22.9376 128.051 19.8414C126.532 16.7452 123.893 14.3157 120.649 13.0271M111.408 24.5302L120.135 34.5614C118.109 35.6449 115.765 36.013 113.496 35.6041C111.227 35.1951 109.169 34.034 107.666 32.3146C106.164 30.5951 105.308 28.4216 105.241 26.1571C105.175 23.8926 105.902 21.6742 107.301 19.8725L110.273 23.2801L111.367 24.5302M119.452 27.8067L110.335 17.2715C111.871 16.3794 113.622 15.9093 115.407 15.9105C117.312 15.9097 119.178 16.4389 120.788 17.4368C122.399 18.4347 123.689 19.8604 124.509 21.5486C125.328 23.2368 125.643 25.1185 125.418 26.9755C125.193 28.8325 124.436 30.5889 123.236 32.041L122.019 30.6447L119.452 27.8067Z" stroke="#263238" stroke-width="0.210064" stroke-miterlimit="10"/>
<path d="M55.9766 62.1546L56.7672 61.3783" stroke="#263238" stroke-width="0.210064" stroke-miterlimit="10"/>
<path d="M54.3239 63.7778L46.7719 56.3628L40.5137 62.5075L48.0656 69.9225L40.5137 77.3375L46.7719 83.4822L54.3239 76.0672L61.8758 83.4822L68.1341 77.3375L60.5821 69.9225L68.1341 62.5075L61.8758 56.3628L57.7431 60.4206" stroke="#263238" stroke-width="0.210064" stroke-miterlimit="10"/>
<path d="M33.8252 185.014L60.3572 149.728C64.911 138.638 64.3257 132.317 65.5219 121.238C66.5487 111.509 69.2594 103.464 69.5315 100.102C69.629 98.917 70.6096 84.6667 70.6302 83.467C70.6661 81.8993 72.6837 78.1893 73.0636 76.6619C76.144 63.7777 78.5672 61.847 82.012 63.7978C82.5254 64.0852 88.0187 66.6207 83.9116 81.2641C82.9721 84.6213 84.0758 105.868 84.0758 105.868L140.225 83.6283V138.613L115.459 166.66C111.582 170.77 106.856 174.022 101.598 176.197C99.2106 177.205 96.3664 177.457 96.1765 177.634C94.7646 178.955 79.1422 201.149 70.8304 213.015C57.0869 203.71 44.4729 194.379 33.8252 185.014Z" fill="white"/>
<path d="M84.0756 105.863L83.4133 106.125C83.4133 106.125 82.0939 84.6163 83.0334 81.2591C85.3026 73.1586 84.9072 68.768 84.0088 66.4089C83.7983 69.9375 82.905 79.9031 79.3883 84.0517C84.7943 91.5121 81.8629 105.898 80.0352 108.752C80.0352 108.752 82.3762 126.586 87.0122 138.996C85.2718 138.321 83.4595 138.22 82.4276 139.687C80.3329 142.656 83.0899 149.647 84.0396 152.632C85.0664 155.848 86.0932 159.065 87.12 162.285C93.2362 161.553 99.3947 161.217 105.556 161.277L105.386 161.347C96.5715 164.704 86.6271 166.025 77.6325 163.187C76.2053 161.861 74.7832 160.384 74.7011 160.354C72.3138 159.583 73.1609 163.379 72.5653 165.153C71.7593 167.673 70.3321 169.962 68.9203 172.21L54.5967 195.09C67.0669 182.302 72.4627 173.465 80.2149 165.511L82.443 167.441H82.3916C80.4921 167.764 79.6347 171.61 78.9519 173.102C76.7375 177.962 74.3896 182.757 71.9082 187.489L79.2908 178.022C81.4111 175.295 83.9113 172.371 87.2021 171.56L88.7423 172.891C89.2865 173.364 89.8409 173.838 90.4057 174.297C87.9465 176.817 77.8635 194.037 66.1736 209.421L70.8917 212.99C79.2035 201.124 94.826 178.929 96.2378 177.609C96.5694 177.488 96.9139 177.406 97.2646 177.362L97.2954 177.301H97.5521C98.9558 177.057 100.332 176.677 101.659 176.167C106.918 173.991 111.643 170.74 115.521 166.63L129.726 150.499C130.62 148.881 130.912 147.263 128.289 148.559C127.832 148.785 127.39 149.063 126.944 149.3C126.798 149.144 126.638 149.003 126.466 148.876C125.357 148.1 123.899 148.044 122.534 148.115C118.129 148.352 113.847 149.627 109.468 150.131C105.089 150.635 100.324 150.308 96.7974 147.702C94.7695 146.189 93.332 144.087 91.6173 142.237C94.0105 128.859 94.9997 115.276 94.5693 101.699L84.0756 105.858V105.863Z" fill="#407BFF"/>
<path opacity="0.5" d="M84.0756 105.863L83.4133 106.125C83.4133 106.125 82.0939 84.6163 83.0334 81.2591C85.3026 73.1586 84.9072 68.768 84.0088 66.4089C83.7983 69.9375 82.905 79.9031 79.3883 84.0517C84.7943 91.5121 81.8629 105.898 80.0352 108.752C80.0352 108.752 82.3762 126.586 87.0122 138.996C85.2718 138.321 83.4595 138.22 82.4276 139.687C80.3329 142.656 83.0899 149.647 84.0396 152.632C85.0664 155.848 86.0932 159.065 87.12 162.285C93.2362 161.553 99.3947 161.217 105.556 161.277L105.386 161.347C96.5715 164.704 86.6271 166.025 77.6325 163.187C76.2053 161.861 74.7832 160.384 74.7011 160.354C72.3138 159.583 73.1609 163.379 72.5653 165.153C71.7593 167.673 70.3321 169.962 68.9203 172.21L54.5967 195.09C67.0669 182.302 72.4627 173.465 80.2149 165.511L82.443 167.441H82.3916C80.4921 167.764 79.6347 171.61 78.9519 173.102C76.7375 177.962 74.3896 182.757 71.9082 187.489L79.2908 178.022C81.4111 175.295 83.9113 172.371 87.2021 171.56L88.7423 172.891C89.2865 173.364 89.8409 173.838 90.4057 174.297C87.9465 176.817 77.8635 194.037 66.1736 209.421L70.8917 212.99C79.2035 201.124 94.826 178.929 96.2378 177.609C96.5694 177.488 96.9139 177.406 97.2646 177.362L97.2954 177.301H97.5521C98.9558 177.057 100.332 176.677 101.659 176.167C106.918 173.991 111.643 170.74 115.521 166.63L129.726 150.499C130.62 148.881 130.912 147.263 128.289 148.559C127.832 148.785 127.39 149.063 126.944 149.3C126.798 149.144 126.638 149.003 126.466 148.876C125.357 148.1 123.899 148.044 122.534 148.115C118.129 148.352 113.847 149.627 109.468 150.131C105.089 150.635 100.324 150.308 96.7974 147.702C94.7695 146.189 93.332 144.087 91.6173 142.237C94.0105 128.859 94.9997 115.276 94.5693 101.699L84.0756 105.858V105.863Z" fill="white"/>
<path d="M33.8252 185.014L60.3572 149.728C64.911 138.638 64.3257 132.317 65.5219 121.238C66.5487 111.509 69.2594 103.464 69.5315 100.102C69.629 98.917 70.6096 84.6667 70.6302 83.467C70.6661 81.8993 72.6837 78.1893 73.0636 76.6619C76.144 63.7777 78.5672 61.847 82.012 63.7978C82.5254 64.0852 88.0187 66.6207 83.9116 81.2641C82.9721 84.6213 84.0758 105.868 84.0758 105.868L140.225 83.6283V138.613L115.459 166.66C111.582 170.77 106.856 174.022 101.598 176.197C99.2106 177.205 96.3664 177.457 96.1765 177.634C94.7646 178.955 79.1422 201.149 70.8304 213.015" stroke="#263238" stroke-width="0.210064" stroke-miterlimit="10"/>
<path d="M145.123 82.5243C145.675 82.2721 146.24 82.05 146.817 81.8589C148.871 81.1784 151.761 80.8507 153.553 82.0807C155.56 83.4316 156.715 88.1851 152.085 91.4868C149.307 93.5025 146.266 95.1436 143.044 96.3663C142.335 96.65 141.571 96.7763 140.807 96.7362C140.043 96.6961 139.297 96.4906 138.623 96.1344C137.812 95.6908 137.124 95.0355 137.083 94.0828C136.883 88.5379 139.999 84.8682 145.123 82.5243Z" fill="white"/>
<mask id="mask0_62_2909" style="mask-type:luminance" maskUnits="userSpaceOnUse" x="137" y="81" width="19" height="16">
<path d="M145.122 82.5244C145.674 82.2722 146.239 82.0501 146.816 81.859C148.87 81.1785 151.76 80.8508 153.552 82.0808C155.559 83.4317 156.714 88.1852 152.084 91.4869C149.306 93.5026 146.265 95.1437 143.043 96.3664C142.334 96.6501 141.57 96.7764 140.806 96.7363C140.042 96.6962 139.296 96.4907 138.623 96.1345C137.811 95.6909 137.123 95.0356 137.082 94.0829C136.882 88.538 139.998 84.8683 145.122 82.5244Z" fill="white"/>
</mask>
<g mask="url(#mask0_62_2909)">
<path d="M153.039 84.8331C151.093 80.1351 144.799 81.4054 143.495 85.7607C142.859 87.8929 143.172 90.1764 143.495 92.3742C143.665 93.5335 144.008 94.8946 145.092 95.318C145.178 95.3462 145.265 95.3697 145.354 95.3886C147.168 94.5604 148.92 93.6053 150.595 92.5304C151.254 91.9192 151.83 91.2281 152.31 90.4738C153.357 88.7952 153.789 86.6529 153.039 84.8331Z" fill="#407BFF"/>
<path opacity="0.5" d="M153.039 84.8331C151.093 80.1351 144.799 81.4054 143.495 85.7607C142.859 87.8929 143.172 90.1764 143.495 92.3742C143.665 93.5335 144.008 94.8946 145.092 95.318C145.178 95.3462 145.265 95.3697 145.354 95.3886C147.168 94.5604 148.92 93.6053 150.595 92.5304C151.254 91.9192 151.83 91.2281 152.31 90.4738C153.357 88.7952 153.789 86.6529 153.039 84.8331Z" fill="white"/>
</g>
<path d="M145.123 82.5243C145.675 82.2721 146.24 82.05 146.817 81.8589C148.871 81.1784 151.761 80.8507 153.553 82.0807C155.56 83.4316 156.715 88.1851 152.085 91.4868C149.307 93.5025 146.266 95.1436 143.044 96.3663C142.335 96.65 141.571 96.7763 140.807 96.7362C140.043 96.6961 139.297 96.4906 138.623 96.1344C137.812 95.6908 137.124 95.0355 137.083 94.0828C136.883 88.5379 139.999 84.8682 145.123 82.5243Z" stroke="#263238" stroke-width="0.210064" stroke-miterlimit="10"/>
<path d="M144.394 108.207L136.221 112.24V99.9403L146.191 95.4036C146.191 95.4036 141.113 102.148 144.394 108.207Z" stroke="#263238" stroke-width="0.210064" stroke-miterlimit="10"/>
<path d="M141.606 112.885L136.221 115.819V129.565L145.056 126.364L146.191 113.732C146.191 113.732 144.815 113.152 141.606 112.885Z" stroke="#263238" stroke-width="0.210064" stroke-miterlimit="10"/>
<path d="M145.452 50.717V149.385C145.45 151.351 144.656 153.235 143.243 154.627C141.829 156.019 139.912 156.804 137.91 156.81H91.7048C89.6996 156.809 87.7769 156.026 86.359 154.634C84.9411 153.242 84.1439 151.354 84.1426 149.385V50.717C84.1426 48.7477 84.9393 46.8591 86.3575 45.4666C87.7757 44.0742 89.6992 43.2919 91.7048 43.2919H137.91C138.459 43.2916 139.007 43.3507 139.543 43.4683C141.22 43.8372 142.719 44.7563 143.793 46.0739C144.867 47.3916 145.452 49.0292 145.452 50.717Z" fill="#263238"/>
<path d="M133.523 46.271H93.5759C89.3994 46.271 86.0137 49.5953 86.0137 53.6961V146.331C86.0137 150.431 89.3994 153.756 93.5759 153.756H133.523C137.699 153.756 141.085 150.431 141.085 146.331V53.6961C141.085 49.5953 137.699 46.271 133.523 46.271Z" fill="#407BFF"/>
<path d="M100.767 46.271H130.117V47.1128C130.117 48.55 129.536 49.9283 128.501 50.9445C127.466 51.9607 126.062 52.5317 124.598 52.5317H106.286C104.822 52.5317 103.418 51.9607 102.383 50.9445C101.348 49.9283 100.767 48.55 100.767 47.1128V46.271Z" fill="#263238"/>
<path d="M105.819 50.5605C106.604 50.5605 107.241 49.9354 107.241 49.1642C107.241 48.3931 106.604 47.7679 105.819 47.7679C105.033 47.7679 104.396 48.3931 104.396 49.1642C104.396 49.9354 105.033 50.5605 105.819 50.5605Z" fill="white" stroke="#263238" stroke-width="0.210064" stroke-miterlimit="10"/>
<path d="M119.423 48.0454H111.46C110.783 48.0454 110.233 48.5848 110.233 49.2502V49.6282C110.233 50.2936 110.783 50.833 111.46 50.833H119.423C120.101 50.833 120.65 50.2936 120.65 49.6282V49.2502C120.65 48.5848 120.101 48.0454 119.423 48.0454Z" fill="white" stroke="#263238" stroke-width="0.210064" stroke-miterlimit="10"/>
<path d="M115.29 136.521C123.26 136.521 129.721 130.177 129.721 122.352C129.721 114.526 123.26 108.182 115.29 108.182C107.32 108.182 100.858 114.526 100.858 122.352C100.858 130.177 107.32 136.521 115.29 136.521Z" fill="#263238"/>
<path d="M120.614 112.744L124.983 117.034L119.711 122.21L124.983 127.387L120.614 131.677L115.342 126.5L110.069 131.677L105.7 127.387L110.973 122.21L105.7 117.034L110.069 112.744L115.342 117.916L120.614 112.744Z" fill="#407BFF"/>
<path d="M108.365 101.81V102.35H107.723V101.78C107.723 101.241 107.502 100.913 107.004 100.913C106.506 100.913 106.291 101.241 106.291 101.78V104.946C106.291 105.485 106.517 105.813 107.004 105.813C107.492 105.813 107.723 105.485 107.723 104.946V104.169H108.365V104.91C108.365 105.818 107.928 106.423 106.989 106.423C106.049 106.423 105.618 105.823 105.618 104.91V101.81C105.618 100.903 106.055 100.298 106.989 100.298C107.923 100.298 108.365 100.903 108.365 101.81Z" fill="#263238"/>
<path d="M109.674 105.132L109.438 106.337H108.812L109.977 100.344H110.963L112.133 106.337H111.45L111.214 105.132H109.674ZM109.761 104.558H111.122L110.434 101.1L109.761 104.558Z" fill="#263238"/>
<path d="M113.267 106.357H112.656V100.364H113.519L114.931 104.699V100.364H115.531V106.357H114.807L113.267 101.513V106.357Z" fill="#263238"/>
<path d="M118.915 101.81V102.35H118.268V101.78C118.268 101.241 118.052 100.913 117.554 100.913C117.056 100.913 116.841 101.241 116.841 101.78V104.946C116.841 105.485 117.066 105.813 117.554 105.813C118.042 105.813 118.268 105.485 118.268 104.946V104.169H118.915V104.91C118.915 105.818 118.478 106.423 117.539 106.423C116.599 106.423 116.168 105.823 116.168 104.91V101.81C116.168 100.903 116.604 100.298 117.539 100.298C118.473 100.298 118.915 100.903 118.915 101.81Z" fill="#263238"/>
<path d="M121.718 103.02V103.62H120.224V105.752H122.056V106.357H119.546V100.364H122.056V100.974H120.224V103.02H121.718Z" fill="#263238"/>
<path d="M122.683 106.357V100.364H123.365V105.752H125.106V106.357H122.683Z" fill="#263238"/>
<path opacity="0.2" d="M103.358 43.3069L84.0703 67.795V50.732C84.0703 48.7627 84.867 46.8741 86.2852 45.4816C87.7034 44.0892 89.6269 43.3069 91.6326 43.3069H103.358Z" fill="white"/>
<path opacity="0.2" d="M145.452 118.979V130.392L142.351 134.127L126.046 153.756L123.509 156.81H113.452L116.035 153.756L142.351 122.644L145.452 118.979Z" fill="white"/>
<path d="M141.93 102.163C141.786 103.014 141.833 103.885 142.067 104.717C142.302 105.548 142.717 106.319 143.285 106.977C144.568 108.428 146.329 109.391 148.26 109.699C149.774 109.956 151.556 109.77 152.536 108.772C153.394 107.905 153.425 106.68 153.409 105.561C153.384 102.818 152.665 99.063 148.825 98.2112C145.667 97.5054 142.392 99.6226 141.93 102.163Z" fill="white"/>
<mask id="mask1_62_2909" style="mask-type:luminance" maskUnits="userSpaceOnUse" x="141" y="98" width="13" height="12">
<path d="M141.928 102.163C141.784 103.014 141.831 103.885 142.066 104.717C142.3 105.548 142.715 106.319 143.283 106.977C144.566 108.427 146.327 109.391 148.258 109.699C149.772 109.956 151.554 109.77 152.534 108.771C153.392 107.904 153.423 106.68 153.407 105.561C153.382 102.818 152.663 99.0629 148.823 98.211C145.665 97.5053 142.39 99.6225 141.928 102.163Z" fill="white"/>
</mask>
<g mask="url(#mask1_62_2909)">
<path d="M141.924 101.326C141.678 102.28 141.682 103.28 141.936 104.232C142.19 105.184 142.686 106.057 143.377 106.77C144.785 108.185 146.633 109.1 148.629 109.371C149.06 108.555 148.393 107.632 147.889 106.851C146.999 105.473 146.567 103.858 146.652 102.229C146.693 101.498 146.981 100.621 147.715 100.479C148.367 100.353 148.968 100.938 149.163 101.563C149.289 102.203 149.356 102.852 149.363 103.504C149.373 103.833 149.473 104.153 149.654 104.43C149.835 104.707 150.089 104.931 150.39 105.077C150.536 103.601 150.361 102.111 149.876 100.706C148.274 96.9761 143.043 97.5709 141.924 101.326Z" fill="#407BFF"/>
<path opacity="0.5" d="M141.924 101.326C141.678 102.28 141.682 103.28 141.936 104.232C142.19 105.184 142.686 106.057 143.377 106.77C144.785 108.185 146.633 109.1 148.629 109.371C149.06 108.555 148.393 107.632 147.889 106.851C146.999 105.473 146.567 103.858 146.652 102.229C146.693 101.498 146.981 100.621 147.715 100.479C148.367 100.353 148.968 100.938 149.163 101.563C149.289 102.203 149.356 102.852 149.363 103.504C149.373 103.833 149.473 104.153 149.654 104.43C149.835 104.707 150.089 104.931 150.39 105.077C150.536 103.601 150.361 102.111 149.876 100.706C148.274 96.9761 143.043 97.5709 141.924 101.326Z" fill="white"/>
</g>
<path d="M141.93 102.163C141.786 103.014 141.833 103.885 142.067 104.717C142.302 105.548 142.717 106.319 143.285 106.977C144.568 108.428 146.329 109.391 148.26 109.699C149.774 109.956 151.556 109.77 152.536 108.772C153.394 107.905 153.425 106.68 153.409 105.561C153.384 102.818 152.665 99.063 148.825 98.2112C145.667 97.5054 142.392 99.6226 141.93 102.163Z" stroke="#263238" stroke-width="0.210064" stroke-miterlimit="10"/>
<path d="M145.194 133.734L139.521 137.948C139.521 137.948 135.999 143.594 142.828 145.055L148.69 143.397C150.076 143.027 151.304 142.232 152.196 141.127C153.087 140.022 153.595 138.666 153.645 137.257C153.681 134.55 152.022 131.687 145.23 131.042L145.194 133.734Z" fill="white"/>
<mask id="mask2_62_2909" style="mask-type:luminance" maskUnits="userSpaceOnUse" x="138" y="131" width="16" height="15">
<path d="M145.194 133.734L139.521 137.948C139.521 137.948 135.999 143.593 142.828 145.055L148.69 143.397C150.076 143.027 151.304 142.232 152.196 141.127C153.087 140.022 153.595 138.666 153.645 137.257C153.681 134.55 152.022 131.687 145.23 131.042L145.194 133.734Z" fill="white"/>
</mask>
<g mask="url(#mask2_62_2909)">
<path d="M143.901 136.103C143.952 136.568 144.118 137.014 144.383 137.403C145.541 139.502 146.274 141.801 146.539 144.173C146.349 142.464 147.315 140.256 147.263 138.421C147.212 136.587 147.037 134.182 146.057 132.615C145.492 133.542 143.885 134.953 143.901 136.103Z" fill="#407BFF"/>
<path opacity="0.5" d="M143.901 136.103C143.952 136.568 144.118 137.014 144.383 137.403C145.541 139.502 146.274 141.801 146.539 144.173C146.349 142.464 147.315 140.256 147.263 138.421C147.212 136.587 147.037 134.182 146.057 132.615C145.492 133.542 143.885 134.953 143.901 136.103Z" fill="white"/>
</g>
<path d="M145.194 133.734L139.521 137.948C139.521 137.948 135.999 143.594 142.828 145.055L148.69 143.397C150.076 143.027 151.304 142.232 152.196 141.127C153.087 140.022 153.595 138.666 153.645 137.257C153.681 134.55 152.022 131.687 145.23 131.042L145.194 133.734Z" stroke="#263238" stroke-width="0.210064" stroke-miterlimit="10"/>
<path d="M143.156 117.23L137.909 122.775C137.909 122.775 135.219 129.484 142.822 129.777L148.762 126.929C150.24 126.244 151.531 125.225 152.529 123.955C153.528 122.685 154.206 121.201 154.507 119.625C155.072 116.398 153.829 113.127 146.011 113.727L143.156 117.23Z" fill="white"/>
<mask id="mask3_62_2909" style="mask-type:luminance" maskUnits="userSpaceOnUse" x="137" y="113" width="18" height="17">
<path d="M143.156 117.23L137.909 122.775C137.909 122.775 135.219 129.484 142.822 129.777L148.762 126.928C150.24 126.244 151.531 125.224 152.529 123.955C153.528 122.685 154.206 121.201 154.507 119.624C155.072 116.398 153.829 113.127 146.011 113.727L143.156 117.23Z" fill="white"/>
</mask>
<g mask="url(#mask3_62_2909)">
<path d="M143.526 129.151C144.039 129.595 144.922 129.278 145.266 128.693C145.554 128.076 145.629 127.384 145.482 126.722C145.354 125.714 144.039 118.823 142.443 119.665C141.503 120.169 143.341 127.916 143.526 129.151Z" fill="#407BFF"/>
<path opacity="0.5" d="M143.526 129.151C144.039 129.595 144.922 129.278 145.266 128.693C145.554 128.076 145.629 127.384 145.482 126.722C145.354 125.714 144.039 118.823 142.443 119.665C141.503 120.169 143.341 127.916 143.526 129.151Z" fill="white"/>
</g>
<path d="M143.156 117.23L137.909 122.775C137.909 122.775 135.219 129.484 142.822 129.777L148.762 126.929C150.24 126.244 151.531 125.225 152.529 123.955C153.528 122.685 154.206 121.201 154.507 119.625C155.072 116.398 153.829 113.127 146.011 113.727L143.156 117.23Z" stroke="#263238" stroke-width="0.210064" stroke-miterlimit="10"/>
<path d="M142.787 121.323C142.381 121.394 141.995 121.552 141.657 121.784C141.318 122.017 141.036 122.32 140.829 122.671C140.623 123.022 140.497 123.413 140.46 123.817C140.424 124.221 140.478 124.628 140.618 125.009C140.759 125.391 140.982 125.737 141.274 126.025C141.565 126.312 141.916 126.534 142.304 126.674C142.692 126.814 143.106 126.87 143.517 126.836C143.929 126.802 144.328 126.681 144.687 126.48" stroke="#263238" stroke-width="0.210064" stroke-miterlimit="10"/>
<path d="M144.543 138.134C142.915 137.877 141.355 139.647 141.858 141.204C142.361 142.762 144.692 143.301 145.862 142.162" fill="white"/>
<path d="M144.543 138.134C142.915 137.877 141.355 139.647 141.858 141.204C142.361 142.762 144.692 143.301 145.862 142.162" stroke="#263238" stroke-width="0.210064" stroke-miterlimit="10"/>
<path d="M76.9395 84.0719C79.4419 84.2581 81.9253 83.5232 83.9062 82.0103" stroke="#263238" stroke-width="0.210064" stroke-miterlimit="10"/>
<path d="M82.9776 107.27C80.9696 108.867 78.4722 109.755 75.8877 109.79" stroke="#263238" stroke-width="0.210064" stroke-miterlimit="10"/>
<path d="M90.1649 156.382C89.0239 159.576 86.8331 162.307 83.9375 164.145" stroke="#263238" stroke-width="0.210064" stroke-miterlimit="10"/>
<path d="M150.473 238.905L149.046 233.446C138.562 222.86 119.31 213.151 117.641 198.473C115.485 179.625 112.533 180.391 112.533 175.703C113.682 173.393 114.668 171.008 115.485 168.566C115.999 167.018 116.276 164.745 116.563 162.88C116.703 161.927 117.204 161.061 117.965 160.455C118.726 159.849 119.692 159.546 120.67 159.608C122.036 159.693 123.341 160.193 124.403 161.04C126.349 162.658 127.334 165.173 127.576 167.668C127.817 170.164 127.427 172.669 127.011 175.144C129.064 178.965 130.24 183.713 131.118 187.932C132.022 184.404 133.428 173.591 129.732 166.333C123.515 154.104 116.707 142.369 111.347 126.853C110.905 125.409 110.835 123.88 111.142 122.402C112.389 117.78 117.2 118.511 119.443 121.006C120.035 121.664 120.519 122.406 120.881 123.209C123.448 128.693 128.7 137.066 132.412 141.86L145.205 158.494L146.746 157.315C146.746 157.315 147.439 136.647 147.095 136.32C146.751 135.992 144.687 122.775 144.687 122.775C144.687 122.775 143.557 120.315 142.182 117.175C141.776 116.296 141.567 115.342 141.567 114.377C141.567 113.412 141.776 112.459 142.182 111.58C144.584 106.761 149.595 109.004 150.622 111.58C151.648 114.155 154.729 119.196 154.729 119.196L160.443 134.54C160.227 138.008 162.255 155.147 162.255 155.147L164.309 154.225L167.62 144.143L165.12 133.865C165.12 133.865 159.647 127.937 160.561 124.459C161.475 120.981 166.147 121.999 166.147 121.999L175.495 132.968H178.242L184.742 141.033C186.491 146.225 187.384 151.659 187.386 157.128C187.387 160.72 187 164.303 186.23 167.815L184.742 174.63V218.651C184.742 218.651 189.188 225.708 189.188 226.373C189.188 226.509 190.117 229.03 191.369 232.387C178.283 237.584 164.606 239.58 150.473 238.905Z" fill="white"/>
<path d="M121.538 169.765C122.098 170.395 121.81 171.671 120.958 171.691C119.827 171.336 118.612 171.34 117.484 171.702C116.356 172.064 115.373 172.766 114.674 173.707C114.469 173.995 114.099 174.342 113.822 174.121C113.642 173.974 113.683 173.697 113.74 173.475C113.822 173.173 113.904 172.87 113.981 172.568C114.428 171.52 114.941 170.204 115.485 168.581C115.598 168.258 115.69 167.895 115.783 167.517C115.952 167.975 116.27 168.366 116.686 168.631C117.41 169.075 118.324 169.029 119.176 169.034C120.029 169.039 120.968 169.15 121.538 169.765ZM125.229 191.254C125.358 191.027 125.465 190.796 125.573 190.559C125.46 190.636 125.368 190.74 125.308 190.862C125.248 190.984 125.221 191.119 125.229 191.254ZM131.113 187.932C130.24 183.693 129.059 178.965 127.006 175.144C127.421 172.669 127.822 170.164 127.57 167.668C127.319 165.173 126.343 162.658 124.398 161.04C123.335 160.193 122.031 159.693 120.665 159.608C120.322 159.584 119.976 159.606 119.638 159.674C117.919 160.339 116.866 161.816 118.052 164.079C118.41 164.738 119 165.245 119.712 165.506C120.424 165.767 121.208 165.763 121.918 165.496C122.258 165.339 122.562 165.116 122.813 164.842C123.064 164.567 123.256 164.246 123.378 163.898C123.501 163.549 123.551 163.18 123.526 162.812C123.501 162.444 123.401 162.085 123.232 161.756C124.7 164.035 125.425 166.7 125.311 169.394C125.198 172.089 124.25 174.685 122.596 176.838C126.456 180.124 127.683 186.012 125.568 190.559C125.824 190.387 126.126 190.296 126.436 190.296C126.745 190.296 127.048 190.387 127.303 190.559C128.043 191.103 128.289 192.071 128.648 192.898C129.008 193.724 129.706 194.606 130.63 194.546C131.549 192.333 131.58 189.903 131.21 187.489C131.179 187.65 131.149 187.801 131.113 187.932ZM150.011 132.045C150.036 132.217 150.052 132.388 150.072 132.549C150.11 132.379 150.089 132.202 150.011 132.045ZM118.981 125.17C123.637 130.858 126.139 137.955 126.061 145.252C127.55 144.103 129.583 145.696 130.748 147.162C137.9 156.179 144.582 165.545 150.77 175.225C149.574 170.945 149.543 166.408 148.25 162.159C147.755 160.595 147.143 159.071 146.417 157.597L145.221 158.509L132.427 141.875C128.715 137.066 123.463 128.693 120.896 123.224C120.535 122.422 120.05 121.679 119.459 121.021C118.863 120.37 118.131 119.855 117.313 119.509C116.548 121.137 117.939 123.597 116.286 125.124C116.702 125.124 118.761 124.907 118.981 125.17ZM162.209 154.749C161.906 152.148 160.248 137.701 160.443 134.545L154.729 119.201C154.729 119.201 151.648 114.16 150.622 111.585C150.531 111.366 150.419 111.157 150.288 110.96C150.098 110.772 149.873 110.623 149.626 110.521C147.192 109.659 148.835 112.759 148.517 114.322C152.514 119.415 154.757 125.627 154.919 132.055C153.782 132.243 152.755 132.836 152.035 133.72C151.315 134.605 150.953 135.719 151.017 136.849C151.238 135.337 153.497 134.913 154.734 135.841C155.971 136.768 156.397 138.361 156.674 139.873C158.312 148.74 157.07 157.859 157.727 166.847C157.973 170.239 160.905 177.644 162.861 193.139C162.347 181.868 162.861 169.896 162.347 158.63C162.311 157.289 162.26 156.009 162.209 154.749ZM189.177 226.373C189.177 225.703 184.731 218.651 184.731 218.651V182.256C184.012 180.321 183.17 178.432 182.21 176.601C182.195 176.574 182.172 176.553 182.144 176.54C182.116 176.527 182.084 176.523 182.053 176.528C182.023 176.534 181.995 176.549 181.973 176.571C181.952 176.593 181.938 176.621 181.933 176.651C181.502 180.18 180.1 179.323 177.893 176.49C177.893 176.49 174.628 178.652 174.612 178.632C173.508 177.17 173.036 175.396 172.774 173.591C172.81 173.511 172.851 173.43 172.892 173.344C172.934 173.259 173.01 173.102 173.072 172.981C173.134 172.86 173.242 172.629 173.329 172.447L173.508 172.069L173.77 171.509L173.945 171.131C174.037 170.935 174.125 170.733 174.217 170.532C174.268 170.411 174.325 170.295 174.376 170.174C174.479 169.942 174.581 169.715 174.679 169.483L174.802 169.201V169.155C174.843 169.065 174.879 168.974 174.915 168.883C175.028 168.621 175.141 168.379 175.249 168.092L175.418 167.684C175.516 167.452 175.608 167.22 175.701 166.993L175.875 166.539C175.963 166.323 176.05 166.101 176.132 165.884L176.301 165.425C176.383 165.214 176.46 165.002 176.537 164.785C176.615 164.568 176.65 164.483 176.702 164.336L176.799 164.064C176.942 166.837 178.114 169.463 180.095 171.444C179.793 168.142 179.966 164.814 180.609 161.559C180.829 160.475 180.871 156.7 181.733 156.014C182.595 155.329 184.156 155.354 184.623 156.357C184.585 155.994 184.461 155.644 184.262 155.336C184.062 155.027 183.793 154.768 183.475 154.579C183.156 154.39 182.798 154.276 182.427 154.246C182.056 154.216 181.683 154.271 181.338 154.406C182.436 153.902 180.901 148.357 180.639 147.283C180.475 146.608 180.054 144.763 179.484 142.918C180.065 142.129 180.813 141.472 181.677 140.993C182.15 140.747 182.682 140.632 183.217 140.657C183.751 140.683 184.269 140.849 184.716 141.139V141.083L184.362 140.64C183.71 139.894 183.083 139.127 182.493 138.326L178.216 133.013H176.163L176.111 133.068C175.665 133.769 176.317 135.024 176.527 135.685C176.656 136.083 176.784 136.481 176.907 136.879C176.337 135.277 175.631 133.724 174.797 132.237L166.783 122.775C166.503 122.597 166.208 122.443 165.9 122.316C163.846 121.5 161.074 123.249 161.552 125.623C161.51 125.002 161.701 124.386 162.09 123.894C162.478 123.401 163.037 123.065 163.66 122.949C164.284 122.833 164.929 122.945 165.474 123.264C166.019 123.583 166.426 124.087 166.619 124.681C166.337 124.678 166.057 124.73 165.796 124.835C165.534 124.94 165.297 125.094 165.097 125.29C164.897 125.486 164.739 125.718 164.632 125.975C164.525 126.231 164.471 126.506 164.473 126.783L167.137 125.774C167.502 128.36 169.252 130.528 170.988 132.504C172.723 134.48 172.862 135.811 173.498 138.341C174.135 140.872 174.792 144.753 172.256 145.539C173.38 145.318 174.463 146.28 174.777 147.364C175.09 148.448 174.848 149.607 174.617 150.711C173.103 157.929 172.148 165.249 171.758 172.608C170.927 174.11 170.313 175.719 169.935 177.387L170.29 194.954C171.88 193.374 173.085 191.461 173.817 189.359C173.929 189.026 174.16 188.744 174.467 188.565C174.774 188.386 175.137 188.321 175.488 188.382C175.84 188.443 176.158 188.626 176.383 188.898C176.609 189.17 176.727 189.512 176.717 189.863C176.717 190.115 176.717 190.367 176.676 190.614L175.182 215.44L180.881 194.309C181.908 200.529 179.166 218.056 177.236 224.05C181.923 224.811 183.648 230.512 183.807 235.19C186.378 234.405 188.9 233.472 191.359 232.397C190.106 229.03 189.177 226.509 189.177 226.373ZM150.591 229.902C149.766 228.762 148.746 227.771 147.577 226.973C144.726 224.986 141.319 223.912 137.823 223.898L140.78 226.242C140.898 226.298 141.016 226.348 141.124 226.409C142.982 227.417 144.676 229.035 146.099 230.557C146.232 230.703 146.376 230.87 146.525 231.061C147.413 231.863 148.265 232.659 149.061 233.466L150.088 237.347C150.319 237.876 150.539 238.411 150.745 238.935C151.309 238.962 151.874 238.982 152.439 238.996C152.583 236.475 152.516 233.824 151.869 232.206C151.548 231.38 151.118 230.599 150.591 229.882V229.902Z" fill="#407BFF"/>
<path opacity="0.5" d="M121.538 169.765C122.098 170.395 121.81 171.671 120.958 171.691C119.827 171.336 118.612 171.34 117.484 171.702C116.356 172.064 115.373 172.766 114.674 173.707C114.469 173.995 114.099 174.342 113.822 174.121C113.642 173.974 113.683 173.697 113.74 173.475C113.822 173.173 113.904 172.87 113.981 172.568C114.428 171.52 114.941 170.204 115.485 168.581C115.598 168.258 115.69 167.895 115.783 167.517C115.952 167.975 116.27 168.366 116.686 168.631C117.41 169.075 118.324 169.029 119.176 169.034C120.029 169.039 120.968 169.15 121.538 169.765ZM125.229 191.254C125.358 191.027 125.465 190.796 125.573 190.559C125.46 190.636 125.368 190.74 125.308 190.862C125.248 190.984 125.221 191.119 125.229 191.254ZM131.113 187.932C130.24 183.693 129.059 178.965 127.006 175.144C127.421 172.669 127.822 170.164 127.57 167.668C127.319 165.173 126.343 162.658 124.398 161.04C123.335 160.193 122.031 159.693 120.665 159.608C120.322 159.584 119.976 159.606 119.638 159.674C117.919 160.339 116.866 161.816 118.052 164.079C118.41 164.738 119 165.245 119.712 165.506C120.424 165.767 121.208 165.763 121.918 165.496C122.258 165.339 122.562 165.116 122.813 164.842C123.064 164.567 123.256 164.246 123.378 163.898C123.501 163.549 123.551 163.18 123.526 162.812C123.501 162.444 123.401 162.085 123.232 161.756C124.7 164.035 125.425 166.7 125.311 169.394C125.198 172.089 124.25 174.685 122.596 176.838C126.456 180.124 127.683 186.012 125.568 190.559C125.824 190.387 126.126 190.296 126.436 190.296C126.745 190.296 127.048 190.387 127.303 190.559C128.043 191.103 128.289 192.071 128.648 192.898C129.008 193.724 129.706 194.606 130.63 194.546C131.549 192.333 131.58 189.903 131.21 187.489C131.179 187.65 131.149 187.801 131.113 187.932ZM150.011 132.045C150.036 132.217 150.052 132.388 150.072 132.549C150.11 132.379 150.089 132.202 150.011 132.045ZM118.981 125.17C123.637 130.858 126.139 137.955 126.061 145.252C127.55 144.103 129.583 145.696 130.748 147.162C137.9 156.179 144.582 165.545 150.77 175.225C149.574 170.945 149.543 166.408 148.25 162.159C147.755 160.595 147.143 159.071 146.417 157.597L145.221 158.509L132.427 141.875C128.715 137.066 123.463 128.693 120.896 123.224C120.535 122.422 120.05 121.679 119.459 121.021C118.863 120.37 118.131 119.855 117.313 119.509C116.548 121.137 117.939 123.597 116.286 125.124C116.702 125.124 118.761 124.907 118.981 125.17ZM162.209 154.749C161.906 152.148 160.248 137.701 160.443 134.545L154.729 119.201C154.729 119.201 151.648 114.16 150.622 111.585C150.531 111.366 150.419 111.157 150.288 110.96C150.098 110.772 149.873 110.623 149.626 110.521C147.192 109.659 148.835 112.759 148.517 114.322C152.514 119.415 154.757 125.627 154.919 132.055C153.782 132.243 152.755 132.836 152.035 133.72C151.315 134.605 150.953 135.719 151.017 136.849C151.238 135.337 153.497 134.913 154.734 135.841C155.971 136.768 156.397 138.361 156.674 139.873C158.312 148.74 157.07 157.859 157.727 166.847C157.973 170.239 160.905 177.644 162.861 193.139C162.347 181.868 162.861 169.896 162.347 158.63C162.311 157.289 162.26 156.009 162.209 154.749ZM189.177 226.373C189.177 225.703 184.731 218.651 184.731 218.651V182.256C184.012 180.321 183.17 178.432 182.21 176.601C182.195 176.574 182.172 176.553 182.144 176.54C182.116 176.527 182.084 176.523 182.053 176.528C182.023 176.534 181.995 176.549 181.973 176.571C181.952 176.593 181.938 176.621 181.933 176.651C181.502 180.18 180.1 179.323 177.893 176.49C177.893 176.49 174.628 178.652 174.612 178.632C173.508 177.17 173.036 175.396 172.774 173.591C172.81 173.511 172.851 173.43 172.892 173.344C172.934 173.259 173.01 173.102 173.072 172.981C173.134 172.86 173.242 172.629 173.329 172.447L173.508 172.069L173.77 171.509L173.945 171.131C174.037 170.935 174.125 170.733 174.217 170.532C174.268 170.411 174.325 170.295 174.376 170.174C174.479 169.942 174.581 169.715 174.679 169.483L174.802 169.201V169.155C174.843 169.065 174.879 168.974 174.915 168.883C175.028 168.621 175.141 168.379 175.249 168.092L175.418 167.684C175.516 167.452 175.608 167.22 175.701 166.993L175.875 166.539C175.963 166.323 176.05 166.101 176.132 165.884L176.301 165.425C176.383 165.214 176.46 165.002 176.537 164.785C176.615 164.568 176.65 164.483 176.702 164.336L176.799 164.064C176.942 166.837 178.114 169.463 180.095 171.444C179.793 168.142 179.966 164.814 180.609 161.559C180.829 160.475 180.871 156.7 181.733 156.014C182.595 155.329 184.156 155.354 184.623 156.357C184.585 155.994 184.461 155.644 184.262 155.336C184.062 155.027 183.793 154.768 183.475 154.579C183.156 154.39 182.798 154.276 182.427 154.246C182.056 154.216 181.683 154.271 181.338 154.406C182.436 153.902 180.901 148.357 180.639 147.283C180.475 146.608 180.054 144.763 179.484 142.918C180.065 142.129 180.813 141.472 181.677 140.993C182.15 140.747 182.682 140.632 183.217 140.657C183.751 140.683 184.269 140.849 184.716 141.139V141.083L184.362 140.64C183.71 139.894 183.083 139.127 182.493 138.326L178.216 133.013H176.163L176.111 133.068C175.665 133.769 176.317 135.024 176.527 135.685C176.656 136.083 176.784 136.481 176.907 136.879C176.337 135.277 175.631 133.724 174.797 132.237L166.783 122.775C166.503 122.597 166.208 122.443 165.9 122.316C163.846 121.5 161.074 123.249 161.552 125.623C161.51 125.002 161.701 124.386 162.09 123.894C162.478 123.401 163.037 123.065 163.66 122.949C164.284 122.833 164.929 122.945 165.474 123.264C166.019 123.583 166.426 124.087 166.619 124.681C166.337 124.678 166.057 124.73 165.796 124.835C165.534 124.94 165.297 125.094 165.097 125.29C164.897 125.486 164.739 125.718 164.632 125.975C164.525 126.231 164.471 126.506 164.473 126.783L167.137 125.774C167.502 128.36 169.252 130.528 170.988 132.504C172.723 134.48 172.862 135.811 173.498 138.341C174.135 140.872 174.792 144.753 172.256 145.539C173.38 145.318 174.463 146.28 174.777 147.364C175.09 148.448 174.848 149.607 174.617 150.711C173.103 157.929 172.148 165.249 171.758 172.608C170.927 174.11 170.313 175.719 169.935 177.387L170.29 194.954C171.88 193.374 173.085 191.461 173.817 189.359C173.929 189.026 174.16 188.744 174.467 188.565C174.774 188.386 175.137 188.321 175.488 188.382C175.84 188.443 176.158 188.626 176.383 188.898C176.609 189.17 176.727 189.512 176.717 189.863C176.717 190.115 176.717 190.367 176.676 190.614L175.182 215.44L180.881 194.309C181.908 200.529 179.166 218.056 177.236 224.05C181.923 224.811 183.648 230.512 183.807 235.19C186.378 234.405 188.9 233.472 191.359 232.397C190.106 229.03 189.177 226.509 189.177 226.373ZM150.591 229.902C149.766 228.762 148.746 227.771 147.577 226.973C144.726 224.986 141.319 223.912 137.823 223.898L140.78 226.242C140.898 226.298 141.016 226.348 141.124 226.409C142.982 227.417 144.676 229.035 146.099 230.557C146.232 230.703 146.376 230.87 146.525 231.061C147.413 231.863 148.265 232.659 149.061 233.466L150.088 237.347C150.319 237.876 150.539 238.411 150.745 238.935C151.309 238.962 151.874 238.982 152.439 238.996C152.583 236.475 152.516 233.824 151.869 232.206C151.548 231.38 151.118 230.599 150.591 229.882V229.902Z" fill="white"/>
<path d="M150.473 238.905L149.046 233.446C138.562 222.86 119.31 213.151 117.641 198.473C115.485 179.625 112.533 180.391 112.533 175.703C113.682 173.393 114.668 171.008 115.485 168.566C115.999 167.018 116.276 164.745 116.563 162.88C116.703 161.927 117.204 161.061 117.965 160.455C118.726 159.849 119.692 159.546 120.67 159.608C122.036 159.693 123.341 160.193 124.403 161.04C126.349 162.658 127.334 165.173 127.576 167.668C127.817 170.164 127.427 172.669 127.011 175.144C129.064 178.965 130.24 183.713 131.118 187.932C132.022 184.404 133.428 173.591 129.732 166.333C123.515 154.104 116.707 142.369 111.347 126.853C110.905 125.409 110.835 123.88 111.142 122.402C112.389 117.78 117.2 118.511 119.443 121.006C120.035 121.664 120.519 122.406 120.881 123.209C123.448 128.693 128.7 137.066 132.412 141.86L145.205 158.494L146.746 157.315C146.746 157.315 147.439 136.647 147.095 136.32C146.751 135.992 144.687 122.775 144.687 122.775C144.687 122.775 143.557 120.315 142.182 117.175C141.776 116.296 141.567 115.342 141.567 114.377C141.567 113.412 141.776 112.459 142.182 111.58C144.584 106.761 149.595 109.004 150.622 111.58C151.648 114.155 154.729 119.196 154.729 119.196L160.443 134.54C160.227 138.008 162.255 155.147 162.255 155.147L164.309 154.225L167.62 144.143L165.12 133.865C165.12 133.865 159.647 127.937 160.561 124.459C161.475 120.981 166.147 121.999 166.147 121.999L175.495 132.968H178.242L184.742 141.033C186.491 146.225 187.384 151.659 187.386 157.128C187.387 160.72 187 164.303 186.23 167.815L184.742 174.63V218.651C184.742 218.651 189.188 225.708 189.188 226.373C189.188 226.509 190.117 229.03 191.369 232.387" stroke="#263238" stroke-width="0.210064" stroke-miterlimit="10"/>
<path d="M125.137 145.963C125.968 145.069 127.003 144.381 128.156 143.955C129.31 143.528 130.55 143.375 131.775 143.508" stroke="#263238" stroke-width="0.210064" stroke-miterlimit="10"/>
<path d="M120.876 124.918C119.94 124.763 118.981 124.793 118.057 125.006C117.132 125.219 116.26 125.61 115.491 126.158C115.491 126.158 112.796 123.516 113.371 121.359" stroke="#263238" stroke-width="0.210064" stroke-miterlimit="10"/>
<path d="M179.844 171.615C178.356 169.362 176.918 166.267 177.313 163.616C178.094 158.414 180.507 152.43 179.423 147.283C178.739 143.997 178.044 140.71 177.339 137.424" stroke="#263238" stroke-width="0.210064" stroke-miterlimit="10"/>
<path d="M150.996 115.874C150.476 116.241 149.862 116.459 149.223 116.502C148.584 116.545 147.946 116.412 147.38 116.118C146.814 115.824 146.342 115.381 146.019 114.838C145.695 114.296 145.533 113.675 145.549 113.046" stroke="#263238" stroke-width="0.210064" stroke-miterlimit="10"/>
<path d="M147.022 147.929C146.899 149.703 147.141 158.05 147.022 159.825" stroke="#263238" stroke-width="0.210064" stroke-miterlimit="10"/>
<path d="M157.676 163.162C160.027 165.682 159.683 171.766 158.025 175.109" stroke="#263238" stroke-width="0.210064" stroke-miterlimit="10"/>
<path d="M139.512 170.224C140.778 172.649 142.691 174.691 145.046 176.132" stroke="#263238" stroke-width="0.210064" stroke-miterlimit="10"/>
<path d="M172.754 166.892C173.138 169.464 172.566 172.086 171.142 174.277" stroke="#263238" stroke-width="0.210064" stroke-miterlimit="10"/>
<path d="M182.76 174.801C182.868 176.816 182.282 178.809 181.097 180.457" stroke="#263238" stroke-width="0.210064" stroke-miterlimit="10"/>
<path d="M169.042 125.971C168.424 125.691 167.735 125.598 167.064 125.703C166.392 125.808 165.767 126.107 165.268 126.561L163.938 124.837" stroke="#263238" stroke-width="0.210064" stroke-miterlimit="10"/>
<path d="M157.974 133.744C157.064 133.216 155.993 133.023 154.952 133.197C153.91 133.372 152.965 133.903 152.285 134.697" stroke="#263238" stroke-width="0.210064" stroke-miterlimit="10"/>
<path d="M179.155 147.929C178.58 146.988 177.742 146.229 176.742 145.741C175.741 145.253 174.619 145.057 173.508 145.176" stroke="#263238" stroke-width="0.210064" stroke-miterlimit="10"/>
<path d="M186.389 158.061C186.351 157.374 186.076 156.722 185.609 156.209C185.143 155.697 184.513 155.356 183.822 155.243" stroke="#263238" stroke-width="0.210064" stroke-miterlimit="10"/>
<path d="M131.051 188.779L128.746 189.787" stroke="#263238" stroke-width="0.210064" stroke-miterlimit="10"/>
<path d="M131.647 190.599C131.269 192.35 131.26 194.158 131.621 195.912" stroke="#263238" stroke-width="0.210064" stroke-miterlimit="10"/>
<path d="M116.507 173.022C115.264 173.988 114.203 175.16 113.37 176.485" stroke="#263238" stroke-width="0.210064" stroke-miterlimit="10"/>
<path d="M117.071 166.126C118.76 164.941 121.456 167.598 123.011 166.242C123.627 165.702 123.679 164.765 123.525 163.968C123.371 163.172 123.093 162.365 123.211 161.559" stroke="#263238" stroke-width="0.210064" stroke-miterlimit="10"/>
<path d="M153.024 191.043C153.071 191.889 153.101 192.736 153.107 193.563" stroke="#263238" stroke-width="0.210064" stroke-miterlimit="10"/>
<path d="M150.601 176.555C151.632 180.216 152.347 183.956 152.736 187.736" stroke="#263238" stroke-width="0.210064" stroke-miterlimit="10"/>
<path d="M147.629 169.317C148.497 171.222 149.267 173.153 149.96 175.109" stroke="#263238" stroke-width="0.210064" stroke-miterlimit="10"/>
</svg>
