<svg width="296" height="257" viewBox="0 0 296 257" fill="none" xmlns="http://www.w3.org/2000/svg">
<g clip-path="url(#clip0_62_2710)">
<path d="M152.766 9.2948H0V114.344H152.766V9.2948Z" fill="#CDDDF9"/>
<path d="M88.7424 47.5236H0V52.2995H88.7424V47.5236Z" fill="#AEC5E5"/>
<path d="M152.766 70.6107H94.6328V75.3866H152.766V70.6107Z" fill="#AEC5E5"/>
<path d="M94.6336 9.2948H88.7432V114.344H94.6336V9.2948Z" fill="#AEC5E5"/>
<path d="M48.7937 0C43.4423 0 38.31 2.12551 34.526 5.90896C30.742 9.69242 28.6162 14.8239 28.6162 20.1745C28.6162 31.3112 48.7937 50.4791 48.7937 50.4791C48.7937 50.4791 68.9497 31.3112 68.9497 20.1745C68.9526 17.5262 68.4333 14.9032 67.4216 12.4557C66.41 10.0081 64.9257 7.78393 63.0537 5.91027C61.1818 4.03661 58.9589 2.55021 56.512 1.53609C54.0652 0.521962 51.4424 -1.49542e-06 48.7937 0ZM48.7937 22.4233C47.5227 22.4233 46.2803 22.0464 45.2236 21.3404C44.1668 20.6344 43.3432 19.631 42.8569 18.457C42.3705 17.283 42.2432 15.9911 42.4912 14.7448C42.7391 13.4984 43.3512 12.3536 44.2499 11.4551C45.1485 10.5565 46.2935 9.94459 47.54 9.69668C48.7866 9.44877 50.0786 9.576 51.2528 10.0623C52.4269 10.5486 53.4306 11.3721 54.1367 12.4287C54.8428 13.4853 55.2196 14.7275 55.2196 15.9983C55.2196 17.7023 54.5426 19.3365 53.3375 20.5414C52.1324 21.7463 50.4979 22.4233 48.7937 22.4233Z" fill="#037EE6"/>
<path d="M162.512 216.908H63.7021V156.406L97.4812 95.9038H162.512V216.908Z" fill="#7AA5EA"/>
<path d="M394.361 54.6339H162.513V216.929H394.361V54.6339Z" fill="#F5F5F5"/>
<path d="M63.7021 156.406H122.521V102.372H93.8613L63.7021 156.406Z" fill="white"/>
<path d="M162.512 201.103H60.082V220.249H162.512V201.103Z" fill="#037EE6"/>
<path d="M75.5258 183.969H68.543V198.104H75.5258V183.969Z" fill="#037EE6"/>
<path d="M68.5434 183.969H61.5605V198.104H68.5434V183.969Z" fill="white"/>
<path d="M149.511 102.372H127.855V156.406H149.511V102.372Z" fill="#037EE6"/>
<path d="M295.616 201.103H162.513V220.249H295.616V201.103Z" fill="#7AA5EA"/>
<path d="M175.579 54.6339H162.513V201.102H175.579V54.6339Z" fill="#CDDDF9"/>
<path d="M150.174 229.93C152.944 212.944 141.418 196.93 124.429 194.16C107.441 191.391 91.4244 202.916 88.6547 219.901C85.885 236.887 97.4113 252.901 114.399 255.671C131.388 258.44 147.404 246.915 150.174 229.93Z" fill="#037EE6"/>
<path d="M136.21 230.682C139.372 221.425 134.431 211.358 125.173 208.196C115.915 205.034 105.846 209.974 102.683 219.231C99.5207 228.488 104.462 238.555 113.72 241.717C122.978 244.879 133.047 239.939 136.21 230.682Z" fill="#B4CCEF"/>
<path d="M119.415 240.102C127.897 240.102 134.773 233.227 134.773 224.747C134.773 216.266 127.897 209.391 119.415 209.391C110.933 209.391 104.057 216.266 104.057 224.747C104.057 233.227 110.933 240.102 119.415 240.102Z" fill="#E3ECFF"/>
<path d="M122.5 154.864H63.7021V156.406H122.5V154.864Z" fill="#037EE6"/>
<path d="M270.211 169.042H192.5V172.19H270.211V169.042Z" fill="#21D297"/>
<path d="M214.434 108.69H136.723V111.838H214.434V108.69Z" fill="#21D297"/>
<path d="M224.438 229.394H146.727V232.542H224.438V229.394Z" fill="#037EE6"/>
<path d="M306.775 180.821H229.063V183.969H306.775V180.821Z" fill="#21D297"/>
</g>
<defs>
<clipPath id="clip0_62_2710">
<rect width="295.594" height="257" fill="white"/>
</clipPath>
</defs>
</svg>
