<svg width="25" height="24" viewBox="0 0 25 24" fill="none" xmlns="http://www.w3.org/2000/svg">
<path d="M11 3H3.5V10.5H11V3ZM5 4.5H9.5V9H5V4.5ZM8 16.5H6.5V18H8V16.5Z" fill="black"/>
<path d="M11 13.5H3.5V21H11V13.5ZM5 15H9.5V19.5H5V15ZM17 6H18.5V7.5H17V6Z" fill="black"/>
<path d="M14 3H21.5V10.5H14V3ZM15.5 4.5V9H20V4.5H15.5ZM12.5 12V15H14V16.5H12.5V18H15.5V15H17V18H18.5V16.5H21.5V15H17V12H12.5ZM15.5 15H14V13.5H15.5V15ZM21.5 18H20V19.5H17V21H21.5V18ZM15.5 21V19.5H12.5V21H15.5Z" fill="black"/>
<path d="M18.5 13.5H21.5V12H18.5V13.5Z" fill="black"/>
<circle cx="7.23337" cy="6.73337" r="0.866667" fill="black"/>
</svg>
