<svg width="24" height="24" viewBox="0 0 24 24" fill="none" xmlns="http://www.w3.org/2000/svg">
<mask id="mask0_62_3341" style="mask-type:alpha" maskUnits="userSpaceOnUse" x="0" y="0" width="24" height="24">
<rect width="24" height="24" fill="#D9D9D9"/>
</mask>
<g mask="url(#mask0_62_3341)">
<path d="M7.79199 23.4167C7.21908 23.4167 6.72862 23.2127 6.32064 22.8047C5.91265 22.3967 5.70866 21.9063 5.70866 21.3334C5.70866 20.7605 5.91265 20.27 6.32064 19.862C6.72862 19.454 7.21908 19.25 7.79199 19.25C8.36491 19.25 8.85536 19.454 9.26335 19.862C9.67133 20.27 9.87533 20.7605 9.87533 21.3334C9.87533 21.9063 9.67133 22.3967 9.26335 22.8047C8.85536 23.2127 8.36491 23.4167 7.79199 23.4167ZM18.2087 23.4167C17.6357 23.4167 17.1453 23.2127 16.7373 22.8047C16.3293 22.3967 16.1253 21.9063 16.1253 21.3334C16.1253 20.7605 16.3293 20.27 16.7373 19.862C17.1453 19.454 17.6357 19.25 18.2087 19.25C18.7816 19.25 19.272 19.454 19.68 19.862C20.088 20.27 20.292 20.7605 20.292 21.3334C20.292 21.9063 20.088 22.3967 19.68 22.8047C19.272 23.2127 18.7816 23.4167 18.2087 23.4167ZM6.90658 6.75004L9.40658 11.9584H16.6982L19.5628 6.75004H6.90658ZM5.91699 4.66671H21.2816C21.6809 4.66671 21.9847 4.84466 22.193 5.20056C22.4014 5.55646 22.41 5.91671 22.2191 6.28129L18.5212 12.948C18.3302 13.2952 18.0741 13.5643 17.7529 13.7552C17.4317 13.9462 17.0802 14.0417 16.6982 14.0417H8.93783L7.79199 16.125H20.292V18.2084H7.79199C7.01074 18.2084 6.42046 17.8655 6.02116 17.1797C5.62185 16.494 5.60449 15.8125 5.96908 15.1355L7.37533 12.5834L3.62533 4.66671H1.54199V2.58337H4.92741L5.91699 4.66671Z" fill="white"/>
</g>
</svg>
