<svg width="26" height="26" viewBox="0 0 26 26" fill="none" xmlns="http://www.w3.org/2000/svg">
<path d="M19.5476 25.5H6.45238V9.25L14.7857 0.5L16.2738 2.0625C16.4127 2.20833 16.5268 2.40625 16.6161 2.65625C16.7054 2.90625 16.75 3.14583 16.75 3.375V3.8125L15.4405 9.25H23.119C23.754 9.25 24.3095 9.5 24.7857 10C25.2619 10.5 25.5 11.0833 25.5 11.75V14.25C25.5 14.3958 25.4802 14.5521 25.4405 14.7188C25.4008 14.8854 25.3611 15.0417 25.3214 15.1875L21.75 24C21.5714 24.4167 21.2738 24.7708 20.8571 25.0625C20.4405 25.3542 20.004 25.5 19.5476 25.5ZM8.83333 23H19.5476L23.119 14.25V11.75H12.4048L14.0119 4.875L8.83333 10.3125V23ZM6.45238 9.25V11.75H2.88095V23H6.45238V25.5H0.5V9.25H6.45238Z" fill="#004080"/>
</svg>
