<svg width="237" height="182" viewBox="0 0 237 182" fill="none" xmlns="http://www.w3.org/2000/svg">
<path d="M14.1772 0.0740967C6.62082 0.0740967 0.450195 6.2427 0.450195 13.8014V178.528C0.450195 180.044 1.68051 181.274 3.19608 181.274H233.804C235.322 181.274 236.55 180.044 236.55 178.528V13.8014C236.55 6.24488 230.382 0.0740967 222.823 0.0740967H14.1772ZM14.1772 5.56589H222.82C227.43 5.56589 231.055 9.19093 231.055 13.8014V38.5107H5.93968V13.8014C5.93968 9.19082 9.56462 5.56589 14.175 5.56589H14.1772ZM25.1583 19.2932C23.6428 19.2932 22.4124 20.5214 22.4124 22.0392C22.4124 23.5547 23.6406 24.7851 25.1583 24.7851H74.5756C76.0911 24.7851 77.3215 23.5569 77.3215 22.0392C77.3215 20.5236 76.0933 19.2932 74.5756 19.2932H25.1583ZM5.94131 44.0025H231.057V175.783H5.94131V44.0025ZM118.499 65.9659C111.796 65.9659 105.609 68.1839 101.083 72.486C96.5598 76.7879 93.7904 83.1568 93.7904 90.6752V104.402H85.5551C83.7692 104.405 82.8135 105.98 82.8092 107.148V151.075C82.8092 152.511 84.1161 153.821 85.5551 153.821H151.441C152.878 153.821 154.187 152.514 154.187 151.075V107.148C154.187 105.712 152.88 104.402 151.441 104.402H99.2799V90.6752C99.2799 84.4641 101.443 79.7657 104.857 76.5195C108.273 73.2713 113.032 71.4576 118.499 71.4576C127.966 71.4576 135.555 76.4407 137.803 85.7855C138.037 87.2798 139.678 88.3717 141.149 88.0163C142.62 87.6608 143.597 85.9345 143.122 84.4998C140.299 72.7626 130.033 65.9678 118.498 65.9678L118.499 65.9659ZM88.3009 109.892H148.699V148.329H88.3009V109.892Z" fill="black"/>
</svg>
