<svg width="74" height="48" viewBox="0 0 74 48" fill="none" xmlns="http://www.w3.org/2000/svg">
<rect x="0.5" y="0.5" width="73" height="47" rx="9.5" stroke="#262626"/>
<path d="M17.4475 9H56.6806C57.9188 9 58.9225 9.99019 58.9225 11.2116V34.4334C58.9225 35.6548 57.9188 36.645 56.6806 36.645H17.4475C16.2093 36.645 15.2056 35.6548 15.2056 34.4334V11.2116C15.2056 9.99019 16.2093 9 17.4475 9Z" fill="#004080"/>
<path d="M31.6388 28.2813L33.5086 17.4577H36.4993L34.6281 28.2813H31.6388ZM45.4326 17.691C44.8402 17.4718 43.9117 17.2365 42.7523 17.2365C39.7972 17.2365 37.7156 18.7044 37.698 20.8083C37.6812 22.3637 39.184 23.2313 40.3183 23.749C41.4825 24.2795 41.8737 24.6178 41.8682 25.0916C41.8609 25.8171 40.9386 26.1485 40.0791 26.1485C38.8821 26.1485 38.2462 25.9845 37.264 25.5804L36.8786 25.4084L36.4589 27.8314C37.1574 28.1335 38.4491 28.3952 39.7902 28.4088C42.9339 28.4088 44.9746 26.9576 44.9979 24.7109C45.0091 23.4796 44.2124 22.5426 42.4869 21.7701C41.4417 21.2695 40.8015 20.9353 40.8083 20.4283C40.8083 19.9784 41.3501 19.4973 42.5209 19.4973C43.4989 19.4824 44.2074 19.6928 44.7593 19.912L45.0273 20.0369L45.4326 17.691ZM53.1285 17.4576H50.8175C50.1016 17.4576 49.5659 17.6504 49.2515 18.3551L44.8101 28.2741H47.9505C47.9505 28.2741 48.4639 26.9404 48.58 26.6476C48.9233 26.6476 51.974 26.6523 52.4102 26.6523C52.4996 27.0312 52.7739 28.2741 52.7739 28.2741H55.549L53.1285 17.4572V17.4576ZM49.462 24.4468C49.7092 23.8231 50.6535 21.4211 50.6535 21.4211C50.6358 21.45 50.899 20.7945 51.05 20.3881L51.2521 21.3213C51.2521 21.3213 51.8248 23.905 51.9445 24.4468H49.462ZM29.1 17.4576L26.1721 24.8388L25.86 23.3387C25.315 21.6097 23.6168 19.7363 21.7183 18.7984L24.3954 28.2641L27.5596 28.2605L32.2678 17.4574H29.1" fill="white"/>
<path d="M23.4401 17.4571H18.6178L18.5796 17.6823C22.3313 18.5782 24.8137 20.7433 25.8444 23.3446L24.7958 18.3707C24.6148 17.6854 24.0898 17.4808 23.4402 17.4569" fill="url(#paint0_linear_2045_8135)"/>
<defs>
<linearGradient id="paint0_linear_2045_8135" x1="18.5796" y1="20.4007" x2="25.8444" y2="20.4007" gradientUnits="userSpaceOnUse">
<stop stop-color="#FCD635"/>
<stop offset="1" stop-color="#F7A928"/>
</linearGradient>
</defs>
</svg>
